<svg width="61" height="60" viewBox="0 0 61 60" fill="none" xmlns="http://www.w3.org/2000/svg">
<g clip-path="url(#clip0_3_100)">
<path d="M48.8 38.01L12.2 37.41V8.31H48.8V38.01Z" fill="white"/>
<path d="M48.8 38.61C48.794 38.61 48.794 38.61 48.788 38.61L12.188 38.01C11.858 38.004 11.6 37.74 11.6 37.41V8.31C11.6 7.98 11.87 7.71 12.2 7.71H48.8C49.13 7.71 49.4 7.98 49.4 8.31V38.01C49.4 38.172 49.334 38.322 49.22 38.436C49.106 38.55 48.956 38.61 48.8 38.61ZM12.8 36.822L48.2 37.404V8.91H12.8V36.822Z" fill="#FF4700"/>
<path d="M16.1 59.61C14.45 59.61 13.1 58.26 13.1 56.61V53.01C13.1 51.36 14.45 50.01 16.1 50.01C17.75 50.01 19.1 51.36 19.1 53.01V56.61C19.1 58.26 17.75 59.61 16.1 59.61Z" fill="white"/>
<path d="M16.1 60.21C14.114 60.21 12.5 58.596 12.5 56.61V53.01C12.5 51.024 14.114 49.41 16.1 49.41C18.086 49.41 19.7 51.024 19.7 53.01V56.61C19.7 58.596 18.086 60.21 16.1 60.21ZM16.1 50.61C14.774 50.61 13.7 51.684 13.7 53.01V56.61C13.7 57.936 14.774 59.01 16.1 59.01C17.426 59.01 18.5 57.936 18.5 56.61V53.01C18.5 51.69 17.426 50.61 16.1 50.61Z" fill="#FF4700"/>
<path d="M44.9 59.61C43.25 59.61 41.9 58.26 41.9 56.61V53.01C41.9 51.36 43.25 50.01 44.9 50.01C46.55 50.01 47.9 51.36 47.9 53.01V56.61C47.9 58.26 46.55 59.61 44.9 59.61Z" fill="white"/>
<path d="M44.9 60.21C42.914 60.21 41.3 58.596 41.3 56.61V53.01C41.3 51.024 42.914 49.41 44.9 49.41C46.886 49.41 48.5 51.024 48.5 53.01V56.61C48.5 58.596 46.886 60.21 44.9 60.21ZM44.9 50.61C43.574 50.61 42.5 51.684 42.5 53.01V56.61C42.5 57.936 43.574 59.01 44.9 59.01C46.226 59.01 47.3 57.936 47.3 56.61V53.01C47.3 51.69 46.226 50.61 44.9 50.61Z" fill="#FF4700"/>
<path d="M45.92 16.71H14.72L11.72 35.31H48.92L45.92 16.71Z" fill="white"/>
<path d="M48.92 35.91H11.72C11.546 35.91 11.378 35.832 11.264 35.7C11.15 35.568 11.102 35.388 11.126 35.214L14.126 16.614C14.174 16.326 14.426 16.11 14.72 16.11H45.92C46.214 16.11 46.466 16.326 46.514 16.614L49.514 35.214C49.544 35.388 49.49 35.562 49.376 35.7C49.262 35.832 49.094 35.91 48.92 35.91ZM12.422 34.71H48.212L45.404 17.31H15.224L12.422 34.71Z" fill="#FF4700"/>
<path d="M48.92 35.31H11.72V52.71H48.92V35.31Z" fill="white"/>
<path d="M48.92 53.31H11.72C11.39 53.31 11.12 53.04 11.12 52.71V35.31C11.12 34.98 11.39 34.71 11.72 34.71H48.92C49.25 34.71 49.52 34.98 49.52 35.31V52.71C49.52 53.046 49.25 53.31 48.92 53.31ZM12.32 52.11H48.32V35.91H12.32V52.11V52.11Z" fill="#FF4700"/>
<path d="M17.3 44.01C18.9569 44.01 20.3 42.6669 20.3 41.01C20.3 39.3531 18.9569 38.01 17.3 38.01C15.6431 38.01 14.3 39.3531 14.3 41.01C14.3 42.6669 15.6431 44.01 17.3 44.01Z" fill="white"/>
<path d="M17.3 44.61C15.314 44.61 13.7 42.996 13.7 41.01C13.7 39.024 15.314 37.41 17.3 37.41C19.286 37.41 20.9 39.024 20.9 41.01C20.9 42.996 19.286 44.61 17.3 44.61ZM17.3 38.61C15.974 38.61 14.9 39.684 14.9 41.01C14.9 42.336 15.974 43.41 17.3 43.41C18.626 43.41 19.7 42.336 19.7 41.01C19.7 39.684 18.626 38.61 17.3 38.61Z" fill="#FF4700"/>
<path d="M43.1 44.01C44.7569 44.01 46.1 42.6669 46.1 41.01C46.1 39.3531 44.7569 38.01 43.1 38.01C41.4431 38.01 40.1 39.3531 40.1 41.01C40.1 42.6669 41.4431 44.01 43.1 44.01Z" fill="white"/>
<path d="M43.1 44.61C41.114 44.61 39.5 42.996 39.5 41.01C39.5 39.024 41.114 37.41 43.1 37.41C45.086 37.41 46.7 39.024 46.7 41.01C46.7 42.996 45.086 44.61 43.1 44.61ZM43.1 38.61C41.774 38.61 40.7 39.684 40.7 41.01C40.7 42.336 41.774 43.41 43.1 43.41C44.426 43.41 45.5 42.336 45.5 41.01C45.5 39.684 44.426 38.61 43.1 38.61Z" fill="#FF4700"/>
<path d="M37.82 41.61H22.82V42.81H37.82V41.61Z" fill="#FF4700"/>
<path d="M37.82 44.61H22.82V45.81H37.82V44.61Z" fill="#FF4700"/>
<path d="M37.82 47.61H22.82V48.81H37.82V47.61Z" fill="#FF4700"/>
<path d="M49.1 35.01C48.974 35.01 48.848 34.968 48.74 34.89C48.476 34.692 48.422 34.314 48.62 34.05L52.22 29.25C52.418 28.986 52.796 28.932 53.06 29.13C53.324 29.328 53.378 29.706 53.18 29.97L49.58 34.77C49.46 34.932 49.28 35.01 49.1 35.01Z" fill="#FF4700"/>
<path d="M11.9 35.01C11.72 35.01 11.54 34.926 11.42 34.77L7.82 29.97C7.622 29.706 7.676 29.328 7.94 29.13C8.204 28.932 8.582 28.986 8.78 29.25L12.38 34.05C12.578 34.314 12.524 34.692 12.26 34.89C12.152 34.974 12.026 35.01 11.9 35.01Z" fill="#FF4700"/>
</g>
<defs>
<clipPath id="clip0_3_100">
<rect width="60" height="60" fill="white" transform="translate(0.5)"/>
</clipPath>
</defs>
</svg>
