<svg width="149" height="30" viewBox="0 0 149 30" fill="none" xmlns="http://www.w3.org/2000/svg">
<path d="M2.40812 12.4411C10.3725 12.4411 14.4366 9.44688 14.473 5.16333H18.3763C18.4794 8.91598 16.508 11.7585 13.4115 13.6C17.6211 12.3744 20.4993 8.94329 20.3234 5.16333H24.2268C24.5846 9.41654 22.1765 13.4544 18.1003 15.8692C22.9438 14.8863 26.647 9.74721 26.1769 5.16333H30.0802C30.8991 11.0153 26.6227 20.6563 14.934 20.6563C10.6485 17.0887 8.31923 15.49 2.40812 12.4411Z" fill="#FE5A17"/>
<path d="M102.563 12.8992C101.854 14.6648 100.674 15.499 98.8026 15.499C96.9313 15.499 96.4187 14.6678 97.1284 12.8992C97.8563 11.0942 99.0118 10.3266 100.877 10.3266C102.748 10.3266 103.288 11.0942 102.563 12.8992ZM107.586 12.8992C108.757 9.189 106.085 7.36273 101.596 7.36273C97.1072 7.36273 93.31 9.189 92.1393 12.8992C90.9777 16.576 93.6042 18.4599 98.0899 18.4599C102.579 18.4569 106.424 16.576 107.586 12.8992Z" fill="black"/>
<path d="M118.686 12.8992C117.977 14.6648 116.8 15.499 114.928 15.499C113.057 15.499 112.545 14.6678 113.251 12.8992C113.979 11.0942 115.135 10.3266 117.003 10.3266C118.871 10.3266 119.411 11.0942 118.686 12.8992ZM123.706 12.8992C124.885 9.189 122.207 7.36273 117.719 7.36273C113.233 7.36273 109.436 9.189 108.262 12.8992C107.104 16.576 109.724 18.4599 114.21 18.4599C118.704 18.4569 122.55 16.576 123.706 12.8992Z" fill="black"/>
<path d="M75.325 18.2142L77.7786 11.7039C78.834 8.90383 78.37 7.34149 74.1057 7.34149C71.8098 7.34149 71.2639 7.79047 69.799 8.53373L70.1751 7.56902H64.9009L60.8762 18.2172H66.1595L68.4524 12.1317C68.9589 10.7938 69.5321 10.4267 70.9394 10.4267C72.3103 10.4267 72.8167 10.7938 72.2981 12.1741L70.0144 18.2172H75.325V18.2142Z" fill="black"/>
<path d="M39.5186 18.2112L41.1594 13.876H37.2985L35.6638 18.2142H30.3926L34.4112 7.56903H39.6824L38.2539 11.346H42.1148L43.5372 7.56903H48.8084L44.7928 18.2112H39.5186Z" fill="black"/>
<path d="M55.8356 15.3443C55.1774 15.6264 54.1068 15.8691 53.1242 15.8691C51.8534 15.8691 51.4834 15.3838 51.7351 14.7163C52.0111 13.9913 52.7845 13.5848 53.9885 13.5848C55.0986 13.5848 55.8022 13.7061 56.3845 13.8882L55.8356 15.3443ZM59.6206 18.2142L62.2289 11.3217C63.16 8.85832 62.3108 7.38092 57.5158 7.38092C54.5466 7.38092 52.7784 7.72373 50.4552 8.3517L51.077 10.7574C52.9543 10.1901 53.6883 9.98988 55.4504 9.98988C57.0518 9.98988 57.7433 10.3114 57.3914 11.2428L57.1913 11.7676C56.3421 11.5098 55.3685 11.3247 53.8035 11.3247C50.1853 11.3247 47.8712 12.4987 47.0038 14.777C46.106 17.1645 47.1615 18.4356 50.4886 18.4356C52.0536 18.4356 53.6367 17.9775 55.1016 17.3344L54.7498 18.2142H59.6206Z" fill="black"/>
<path d="M141.848 7.56903H135.394L130.712 10.4116L131.831 7.56903H126.557L122.541 18.2142H127.812L129.037 14.9682L130.323 14.143L132.453 18.2142H138.491L134.73 11.6766L141.848 7.56903Z" fill="black"/>
<path d="M95.888 7.56903H89.434L84.7512 10.4116L85.8673 7.56903H80.5931L76.5775 18.2142H81.8517L83.074 14.9682L84.363 14.143L86.3495 18.2142H92.388L88.7698 11.6766L95.888 7.56903Z" fill="black"/>
<path d="M57.0002 24.9429L57.2064 24.4302C56.5271 24.7487 55.6597 25.0308 54.5951 25.0308C53.0241 25.0308 52.0445 24.3907 52.645 22.9164C53.2455 21.439 54.8802 20.6715 56.5271 20.6715C57.5158 20.6715 58.089 20.8959 58.5136 21.2296L59.2324 19.4732L60.488 19.1364L58.1254 24.9429H57.0002ZM58.271 21.8212C57.9798 21.4723 57.3278 21.1932 56.3997 21.1932C55.1016 21.1932 54.2099 21.7909 53.755 22.9133C53.3243 23.966 53.846 24.5151 55.0925 24.5151C55.9357 24.5151 56.7181 24.2755 57.4218 23.9084L58.271 21.8212Z" fill="#B0B0B0"/>
<path d="M64.8675 21.3844C64.5946 21.2873 64.2761 21.2236 63.7514 21.2236C62.6505 21.2236 61.8559 21.6968 61.5283 22.4917L60.5214 24.9429H59.4053L61.1067 20.7594H62.2319L62.0166 21.2782C62.514 20.9445 63.3723 20.6714 64.2155 20.6714C64.7917 20.6714 65.1526 20.7139 65.4013 20.7746L64.8675 21.3844Z" fill="#B0B0B0"/>
<path d="M64.361 24.9429L66.0716 20.7594H67.1877L65.4862 24.9429H64.361ZM66.9542 20.0131C66.4901 20.0131 66.2081 19.8251 66.3021 19.5915C66.4052 19.3518 66.845 19.1577 67.306 19.1577C67.7215 19.1577 68.0035 19.3488 67.9095 19.5915C67.8155 19.8251 67.3727 20.0131 66.9542 20.0131Z" fill="#B0B0B0"/>
<path d="M69.9962 24.9428H69.0074L67.9004 20.7594H69.1014L69.7626 24.0509L69.8081 24.2481L70.0022 24.0509L73.3536 20.7594H74.5212L69.9962 24.9428Z" fill="#B0B0B0"/>
<path d="M73.5264 24.9429L75.234 20.7594H76.3501L74.6516 24.9429H73.5264ZM76.1196 20.0131C75.6555 20.0131 75.3704 19.8251 75.4645 19.5915C75.5706 19.3518 76.0074 19.1577 76.4684 19.1577C76.8808 19.1577 77.1629 19.3488 77.0749 19.5915C76.9809 19.8251 76.5411 20.0131 76.1196 20.0131Z" fill="#B0B0B0"/>
<path d="M80.9328 24.9429L81.9276 22.4947C82.3006 21.5967 81.8578 21.1932 80.6052 21.1932C79.5134 21.1932 78.4974 21.5846 78.1182 22.4947L77.1235 24.9429H76.0074L77.7088 20.7594H78.831L78.6247 21.2691C79.2192 20.9202 80.0502 20.6714 81.0389 20.6714C82.6949 20.6714 83.5835 21.1902 83.0922 22.3915L82.0519 24.9398H80.9328V24.9429Z" fill="#B0B0B0"/>
<path d="M84.5662 26.4779L84.3933 26.0259C87.0289 25.9834 87.778 25.6194 88.1723 24.6486L88.2602 24.4332C87.5778 24.7518 86.7135 25.0339 85.6459 25.0339C84.0718 25.0339 83.0952 24.3938 83.6957 22.9194C84.2993 21.442 85.9279 20.6745 87.5748 20.6745C88.5635 20.6745 89.1398 20.899 89.5614 21.2327L89.7494 20.7625H90.8746L89.3248 24.5728C88.8153 25.8257 87.502 26.4324 84.5662 26.4779ZM89.3248 21.8212C89.0336 21.4724 88.3785 21.1933 87.4505 21.1933C86.1554 21.1933 85.2607 21.7909 84.8058 22.9133C84.3751 23.966 84.9028 24.5151 86.1463 24.5151C86.9864 24.5151 87.7719 24.2755 88.4725 23.9084L89.3248 21.8212Z" fill="#B0B0B0"/>
<path d="M99.852 23.0529H94.6142C94.3564 23.9478 94.9235 24.5121 96.2064 24.5121C97.1254 24.5121 97.7168 24.3695 98.5418 24.1147L98.8936 24.5455C97.8199 24.864 97.0617 25.0339 95.8758 25.0339C94.4382 25.0339 92.9127 24.4727 93.583 22.8375C94.1259 21.5057 95.8394 20.6745 97.7138 20.6745C99.764 20.6745 100.525 21.5361 100.034 22.7344C99.9763 22.8739 99.9248 22.9589 99.852 23.0529ZM97.4833 21.1933C96.3156 21.1933 95.3299 21.6362 94.8143 22.5705H99.0482C99.2939 21.7606 98.8693 21.1933 97.4833 21.1933Z" fill="#B0B0B0"/>
<path d="M109.157 24.9429L110.155 22.4947C110.54 21.5391 110.127 21.1932 108.993 21.1932C107.929 21.1932 107.088 21.5755 106.709 22.4947L105.712 24.9429H104.589L105.584 22.4947C105.981 21.5391 105.527 21.1932 104.426 21.1932C103.352 21.1932 102.518 21.5755 102.142 22.4947L101.144 24.9429H100.028L101.726 20.7594H102.855L102.645 21.2691C103.197 20.9111 103.952 20.6714 104.877 20.6714C105.984 20.6714 106.53 20.99 106.743 21.3904C107.367 20.99 108.141 20.6714 109.415 20.6714C111.013 20.6714 111.811 21.175 111.319 22.3915L110.282 24.9398H109.157V24.9429Z" fill="#B0B0B0"/>
<path d="M114.446 25.0339C112.536 25.0339 111.374 24.2724 111.95 22.8557C112.523 21.442 114.364 20.6745 116.281 20.6745C118.192 20.6745 119.363 21.4086 118.792 22.8254C118.21 24.2421 116.36 25.0339 114.446 25.0339ZM116.039 21.1933C114.68 21.1933 113.539 21.7393 113.094 22.8436C112.648 23.9418 113.327 24.5121 114.692 24.5121C116.051 24.5121 117.215 23.9418 117.667 22.8436C118.11 21.7393 117.406 21.1933 116.039 21.1933Z" fill="#B0B0B0"/>
<path d="M121.734 21.2661L120.618 23.9873C120.47 24.3604 120.609 24.4909 121.21 24.4909C121.658 24.4909 121.974 24.4514 122.368 24.3726L122.077 24.8883C121.604 24.9854 121.167 25.0339 120.564 25.0339C119.593 25.0339 119.171 24.7791 119.46 24.0874L120.609 21.2691H119.639L119.836 20.7625H120.812L121.334 19.4762L122.59 19.1395L121.928 20.7625H123.876L123.672 21.2691H121.734V21.2661Z" fill="#B0B0B0"/>
<path d="M123.226 24.9429L124.937 20.7594H126.053L124.358 24.9429H123.226ZM125.826 20.0131C125.359 20.0131 125.077 19.8251 125.171 19.5915C125.271 19.3518 125.71 19.1577 126.174 19.1577C126.59 19.1577 126.869 19.3488 126.775 19.5915C126.681 19.8251 126.244 20.0131 125.826 20.0131Z" fill="#B0B0B0"/>
<path d="M128.637 25.0339C126.723 25.0339 125.565 24.2724 126.138 22.8557C126.717 21.442 128.552 20.6745 130.469 20.6745C132.386 20.6745 133.553 21.4086 132.98 22.8254C132.404 24.2421 130.557 25.0339 128.637 25.0339ZM130.229 21.1933C128.871 21.1933 127.733 21.7393 127.284 22.8436C126.839 23.9418 127.515 24.5121 128.883 24.5121C130.242 24.5121 131.406 23.9418 131.852 22.8436C132.301 21.7393 131.594 21.1933 130.229 21.1933Z" fill="#B0B0B0"/>
<path d="M137.909 24.9429L138.907 22.4947C139.277 21.5967 138.837 21.1932 137.584 21.1932C136.492 21.1932 135.476 21.5846 135.1 22.4947L134.105 24.9429H132.986L134.688 20.7594H135.81L135.607 21.2691C136.201 20.9202 137.032 20.6714 138.018 20.6714C139.677 20.6714 140.562 21.1902 140.071 22.3915L139.031 24.9398H137.909V24.9429Z" fill="#B0B0B0"/>
</svg>
