<svg width="60" height="60" viewBox="0 0 60 60" fill="none" xmlns="http://www.w3.org/2000/svg">
<g clip-path="url(#clip0_3_23)">
<path d="M12 59.46C10.35 59.46 9 58.11 9 56.46V52.86C9 51.21 10.35 49.86 12 49.86C13.65 49.86 15 51.21 15 52.86V56.46C15 58.11 13.65 59.46 12 59.46Z" fill="white"/>
<path d="M12 60.162C9.96 60.162 8.298 58.5 8.298 56.46V52.86C8.298 50.82 9.96 49.158 12 49.158C14.04 49.158 15.702 50.82 15.702 52.86V56.46C15.702 58.5 14.04 60.162 12 60.162ZM12 50.562C10.734 50.562 9.702 51.594 9.702 52.86V56.46C9.702 57.726 10.734 58.758 12 58.758C13.266 58.758 14.298 57.726 14.298 56.46V52.86C14.298 51.594 13.266 50.562 12 50.562Z" fill="#FF4700"/>
<path d="M48 59.46C46.35 59.46 45 58.11 45 56.46V52.86C45 51.21 46.35 49.86 48 49.86C49.65 49.86 51 51.21 51 52.86V56.46C51 58.11 49.65 59.46 48 59.46Z" fill="white"/>
<path d="M48 60.162C45.96 60.162 44.298 58.5 44.298 56.46V52.86C44.298 50.82 45.96 49.158 48 49.158C50.04 49.158 51.702 50.82 51.702 52.86V56.46C51.702 58.5 50.04 60.162 48 60.162ZM48 50.562C46.734 50.562 45.702 51.594 45.702 52.86V56.46C45.702 57.726 46.734 58.758 48 58.758C49.266 58.758 50.298 57.726 50.298 56.46V52.86C50.298 51.594 49.266 50.562 48 50.562Z" fill="#FF4700"/>
<path d="M51.228 36.36H9.228L15.15 21.96H45.15L51.228 36.36Z" fill="white"/>
<path d="M51.228 36.96H9.228C9.03 36.96 8.838 36.858 8.73 36.696C8.616 36.528 8.59799 36.318 8.67599 36.132L14.604 21.732C14.694 21.504 14.916 21.36 15.156 21.36H45.156C45.396 21.36 45.612 21.504 45.708 21.726L51.78 36.126C51.858 36.312 51.84 36.522 51.726 36.69C51.612 36.864 51.426 36.96 51.228 36.96ZM10.122 35.76H50.322L44.754 22.56H15.552L10.122 35.76Z" fill="#FF4700"/>
<path d="M52.572 39.36H7.572V52.56H52.572V39.36Z" fill="white"/>
<path d="M52.572 53.16H7.572C7.242 53.16 6.972 52.89 6.972 52.56V39.36C6.972 39.03 7.242 38.76 7.572 38.76H52.572C52.902 38.76 53.172 39.03 53.172 39.36V52.56C53.172 52.896 52.908 53.16 52.572 53.16ZM8.172 51.96H51.972V39.96H8.172V51.96V51.96Z" fill="#FF4700"/>
<path d="M52.572 39.36H7.572L9.228 36.36H51.228L52.572 39.36Z" fill="white"/>
<path d="M52.572 39.96H7.572C7.362 39.96 7.164 39.846 7.056 39.666C6.948 39.486 6.942 39.258 7.044 39.072L8.694 36.072C8.802 35.88 9 35.76 9.222 35.76H51.222C51.456 35.76 51.672 35.898 51.768 36.114L53.118 39.114C53.202 39.3 53.184 39.516 53.076 39.684C52.968 39.852 52.776 39.96 52.572 39.96ZM8.592 38.76H51.648L50.838 36.96H9.582L8.592 38.76Z" fill="#FF4700"/>
<path d="M13.5 46.56C14.8255 46.56 15.9 45.4855 15.9 44.16C15.9 42.8345 14.8255 41.76 13.5 41.76C12.1745 41.76 11.1 42.8345 11.1 44.16C11.1 45.4855 12.1745 46.56 13.5 46.56Z" fill="white"/>
<path d="M13.5 47.16C11.844 47.16 10.5 45.816 10.5 44.16C10.5 42.504 11.844 41.16 13.5 41.16C15.156 41.16 16.5 42.504 16.5 44.16C16.5 45.816 15.156 47.16 13.5 47.16ZM13.5 42.36C12.51 42.36 11.7 43.17 11.7 44.16C11.7 45.15 12.51 45.96 13.5 45.96C14.49 45.96 15.3 45.15 15.3 44.16C15.3 43.17 14.49 42.36 13.5 42.36Z" fill="#FF4700"/>
<path d="M47.1 46.56C48.4255 46.56 49.5 45.4855 49.5 44.16C49.5 42.8345 48.4255 41.76 47.1 41.76C45.7745 41.76 44.7 42.8345 44.7 44.16C44.7 45.4855 45.7745 46.56 47.1 46.56Z" fill="white"/>
<path d="M47.1 47.16C45.444 47.16 44.1 45.816 44.1 44.16C44.1 42.504 45.444 41.16 47.1 41.16C48.756 41.16 50.1 42.504 50.1 44.16C50.1 45.816 48.756 47.16 47.1 47.16ZM47.1 42.36C46.11 42.36 45.3 43.17 45.3 44.16C45.3 45.15 46.11 45.96 47.1 45.96C48.09 45.96 48.9 45.15 48.9 44.16C48.9 43.17 48.09 42.36 47.1 42.36Z" fill="#FF4700"/>
<path d="M41.85 42.66H19.65V43.26H41.85V42.66Z" fill="#FF4700"/>
<path d="M39.6 45.36H21.6V45.96H39.6V45.36Z" fill="#FF4700"/>
<path d="M37.5 48.06H23.7V48.66H37.5V48.06Z" fill="#FF4700"/>
<path d="M9.3 36.96C9.12 36.96 8.94 36.876 8.82 36.72L5.22 31.92C5.022 31.656 5.076 31.278 5.34 31.08C5.604 30.882 5.982 30.936 6.18 31.2L9.78 36C9.978 36.264 9.924 36.642 9.66 36.84C9.552 36.924 9.426 36.96 9.3 36.96Z" fill="#FF4700"/>
<path d="M50.7 36.96C50.574 36.96 50.448 36.918 50.34 36.84C50.076 36.642 50.022 36.264 50.22 36L53.82 31.2C54.018 30.936 54.396 30.882 54.66 31.08C54.924 31.278 54.978 31.656 54.78 31.92L51.18 36.72C51.06 36.882 50.88 36.96 50.7 36.96Z" fill="#FF4700"/>
</g>
<defs>
<clipPath id="clip0_3_23">
<rect width="60" height="60" fill="white"/>
</clipPath>
</defs>
</svg>
