<?xml version="1.0" encoding="utf-8"?>
<!-- Generator: Adobe Illustrator 19.0.0, SVG Export Plug-In . SVG Version: 6.00 Build 0)  -->
<svg version="1.1" id="Layer_1" xmlns="http://www.w3.org/2000/svg" xmlns:xlink="http://www.w3.org/1999/xlink" x="0px" y="0px"
	 viewBox="72.6 -38 70 37.1" style="enable-background:new 72.6 -38 70 37.1;" xml:space="preserve">
<style type="text/css">
	.st0{fill:#FFFFFF;}
</style>
<path id="XMLID_20_" class="st0" d="M143.1-9.6c0-4.4-3.3-7.9-7.5-8.4c0.1-0.6,0.1-1.2,0.1-1.8c0-6.2-5-11.2-11.2-11.2
	c-3,0-5.8,1.2-7.8,3.1c-1.9-5.9-7.5-10.1-14-10.1C94.6-38,88-31.4,88-23.3c0,0.5,0,0.9,0.1,1.4c-0.9-0.2-1.8-0.4-2.7-0.4
	c-5.9,0-10.7,4.8-10.7,10.7S79.4-1,85.3-1h51.1l0,0C140.3-1.8,143.1-5.5,143.1-9.6z"/>
</svg>
