<?xml version="1.0" encoding="utf-8"?>
<!-- Generator: Adobe Illustrator 25.0.0, SVG Export Plug-In . SVG Version: 6.00 Build 0)  -->
<svg version="1.1" id="Layer_1" xmlns="http://www.w3.org/2000/svg" xmlns:xlink="http://www.w3.org/1999/xlink" x="0px" y="0px"
	 viewBox="0 0 491.28 98.89" style="enable-background:new 0 0 491.28 98.89;" xml:space="preserve">
<style type="text/css">
	.st0{fill:#FE5A17;}
	.st1{fill:#B0B0B0;}
</style>
<g>
	<g>
		<path class="st0" d="M7.94,41.01c26.26,0,39.66-9.87,39.78-23.99h12.87c0.34,12.37-6.16,21.74-16.37,27.81
			c13.88-4.04,23.37-15.35,22.79-27.81h12.87c1.18,14.02-6.76,27.33-20.2,35.29c15.97-3.24,28.18-20.18,26.63-35.29h12.87
			c2.7,19.29-11.4,51.07-49.94,51.07C35.11,56.33,27.43,51.06,7.94,41.01z"/>
		<g>
			<path d="M338.17,42.52c-2.34,5.82-6.23,8.57-12.4,8.57c-6.17,0-7.86-2.74-5.52-8.57c2.4-5.95,6.21-8.48,12.36-8.48
				C338.78,34.04,340.56,36.57,338.17,42.52z M354.73,42.52c3.86-12.23-4.95-18.25-19.75-18.25c-14.8,0-27.32,6.02-31.18,18.25
				c-3.83,12.12,4.83,18.33,19.62,18.33C338.22,60.84,350.9,54.64,354.73,42.52z"/>
			<path d="M391.33,42.52c-2.34,5.82-6.22,8.57-12.39,8.57c-6.17,0-7.86-2.74-5.53-8.57c2.4-5.95,6.21-8.48,12.37-8.48
				S393.72,36.57,391.33,42.52z M407.88,42.52c3.89-12.23-4.94-18.25-19.74-18.25c-14.79,0-27.31,6.02-31.18,18.25
				c-3.82,12.12,4.82,18.33,19.61,18.33C391.39,60.84,404.07,54.64,407.88,42.52z"/>
			<path d="M248.36,60.04l8.09-21.46c3.48-9.23,1.95-14.38-12.11-14.38c-7.57,0-9.37,1.48-14.2,3.93l1.24-3.18h-17.39l-13.27,35.1
				h17.42l7.56-20.06c1.67-4.41,3.56-5.62,8.2-5.62c4.52,0,6.19,1.21,4.48,5.76l-7.53,19.92H248.36z"/>
			<polygon points="130.3,60.03 135.71,45.74 122.98,45.74 117.59,60.04 100.21,60.04 113.46,24.95 130.84,24.95 126.13,37.4 
				138.86,37.4 143.55,24.95 160.93,24.95 147.69,60.03 			"/>
			<path d="M184.1,50.58c-2.17,0.93-5.7,1.73-8.94,1.73c-4.19,0-5.41-1.6-4.58-3.8c0.91-2.39,3.46-3.73,7.43-3.73
				c3.66,0,5.98,0.4,7.9,1L184.1,50.58z M196.58,60.04l8.6-22.72c3.07-8.12,0.27-12.99-15.54-12.99c-9.79,0-15.62,1.13-23.28,3.2
				l2.05,7.93c6.19-1.87,8.61-2.53,14.42-2.53c5.28,0,7.56,1.06,6.4,4.13l-0.66,1.73c-2.8-0.85-6.01-1.46-11.17-1.46
				c-11.93,0-19.56,3.87-22.42,11.38c-2.96,7.87,0.52,12.06,11.49,12.06c5.16,0,10.38-1.51,15.21-3.63l-1.16,2.9H196.58z"/>
			<polygon points="467.7,24.95 446.42,24.95 430.98,34.32 434.67,24.95 417.28,24.95 404.04,60.04 421.42,60.04 425.46,49.34 
				429.7,46.62 436.72,60.04 456.63,60.04 444.23,38.49 			"/>
			<polygon points="316.16,24.95 294.88,24.95 279.44,34.32 283.12,24.95 265.73,24.95 252.49,60.04 269.88,60.04 273.91,49.34 
				278.16,46.62 284.71,60.04 304.62,60.04 292.69,38.49 			"/>
		</g>
	</g>
	<g>
		<path class="st1" d="M187.94,82.22l0.68-1.69c-2.24,1.05-5.1,1.98-8.61,1.98c-5.18,0-8.41-2.11-6.43-6.97
			c1.98-4.87,7.37-7.4,12.8-7.4c3.26,0,5.15,0.74,6.55,1.84l2.37-5.79l4.14-1.11l-7.79,19.14H187.94z M192.13,71.93
			c-0.96-1.15-3.11-2.07-6.17-2.07c-4.28,0-7.22,1.97-8.72,5.67c-1.42,3.47,0.3,5.28,4.41,5.28c2.78,0,5.36-0.79,7.68-2
			L192.13,71.93z"/>
		<path class="st1" d="M213.88,70.49c-0.9-0.32-1.95-0.53-3.68-0.53c-3.63,0-6.25,1.56-7.33,4.18l-3.32,8.08h-3.68l5.61-13.79h3.71
			l-0.71,1.71c1.64-1.1,4.47-2,7.25-2c1.9,0,3.09,0.14,3.91,0.34L213.88,70.49z"/>
		<path class="st1" d="M212.21,82.22l5.64-13.79h3.68l-5.61,13.79H212.21z M220.76,65.97c-1.53,0-2.46-0.62-2.15-1.39
			c0.34-0.79,1.79-1.43,3.31-1.43c1.37,0,2.3,0.63,1.99,1.43C223.6,65.35,222.14,65.97,220.76,65.97z"/>
		<path class="st1" d="M230.79,82.22h-3.26l-3.65-13.79h3.96l2.18,10.85l0.15,0.65l0.64-0.65l11.05-10.85h3.85L230.79,82.22z"/>
		<path class="st1" d="M242.43,82.22l5.63-13.79h3.68l-5.6,13.79H242.43z M250.98,65.97c-1.53,0-2.47-0.62-2.16-1.39
			c0.35-0.79,1.79-1.43,3.31-1.43c1.36,0,2.29,0.63,2,1.43C253.82,65.35,252.37,65.97,250.98,65.97z"/>
		<path class="st1" d="M266.85,82.22l3.28-8.07c1.23-2.96-0.23-4.29-4.36-4.29c-3.6,0-6.95,1.29-8.2,4.29l-3.28,8.07h-3.68
			l5.61-13.79h3.7l-0.68,1.68c1.96-1.15,4.7-1.97,7.96-1.97c5.46,0,8.39,1.71,6.77,5.67l-3.43,8.4H266.85z"/>
		<path class="st1" d="M278.83,87.28l-0.57-1.49c8.69-0.14,11.16-1.34,12.46-4.54l0.29-0.71c-2.25,1.05-5.1,1.98-8.62,1.98
			c-5.19,0-8.41-2.11-6.43-6.97c1.99-4.87,7.36-7.4,12.79-7.4c3.26,0,5.16,0.74,6.55,1.84l0.62-1.55h3.71L294.52,81
			C292.84,85.13,288.51,87.13,278.83,87.28z M294.52,71.93c-0.96-1.15-3.12-2.07-6.18-2.07c-4.27,0-7.22,1.97-8.72,5.67
			c-1.42,3.47,0.32,5.28,4.42,5.28c2.77,0,5.36-0.79,7.67-2L294.52,71.93z"/>
		<path class="st1" d="M329.23,75.99h-17.27c-0.85,2.95,1.02,4.81,5.25,4.81c3.03,0,4.98-0.47,7.7-1.31l1.16,1.42
			c-3.54,1.05-6.04,1.61-9.95,1.61c-4.74,0-9.77-1.85-7.56-7.24c1.79-4.39,7.44-7.13,13.62-7.13c6.76,0,9.27,2.84,7.65,6.79
			C329.64,75.4,329.47,75.68,329.23,75.99z M321.42,69.86c-3.85,0-7.1,1.46-8.8,4.54h13.96C327.39,71.73,325.99,69.86,321.42,69.86z
			"/>
		<path class="st1" d="M359.91,82.22l3.29-8.07c1.27-3.15-0.09-4.29-3.83-4.29c-3.51,0-6.28,1.26-7.53,4.29l-3.29,8.07h-3.7
			l3.28-8.07c1.31-3.15-0.19-4.29-3.82-4.29c-3.54,0-6.29,1.26-7.53,4.29l-3.29,8.07h-3.68l5.6-13.79h3.72l-0.69,1.68
			c1.82-1.18,4.31-1.97,7.36-1.97c3.65,0,5.45,1.05,6.15,2.37c2.06-1.32,4.61-2.37,8.81-2.37c5.27,0,7.9,1.66,6.28,5.67l-3.42,8.4
			H359.91z"/>
		<path class="st1" d="M377.35,82.52c-6.3,0-10.13-2.51-8.23-7.18c1.89-4.66,7.96-7.19,14.28-7.19c6.3,0,10.16,2.42,8.28,7.09
			C389.76,79.91,383.66,82.52,377.35,82.52z M382.6,69.86c-4.48,0-8.24,1.8-9.71,5.44c-1.47,3.62,0.77,5.5,5.27,5.5
			c4.48,0,8.32-1.88,9.81-5.5C389.43,71.66,387.11,69.86,382.6,69.86z"/>
		<path class="st1" d="M401.38,70.1l-3.68,8.97c-0.49,1.23-0.03,1.66,1.95,1.66c1.48,0,2.52-0.13,3.82-0.39l-0.96,1.7
			c-1.56,0.32-3,0.48-4.99,0.48c-3.2,0-4.59-0.84-3.64-3.12l3.79-9.29h-3.2l0.65-1.67h3.22l1.72-4.24l4.14-1.11l-2.18,5.35h6.42
			l-0.67,1.67H401.38z"/>
		<path class="st1" d="M406.3,82.22l5.64-13.79h3.68l-5.59,13.79H406.3z M414.87,65.97c-1.54,0-2.47-0.62-2.16-1.39
			c0.33-0.79,1.78-1.43,3.31-1.43c1.37,0,2.29,0.63,1.98,1.43C417.69,65.35,416.25,65.97,414.87,65.97z"/>
		<path class="st1" d="M424.14,82.52c-6.31,0-10.13-2.51-8.24-7.18c1.91-4.66,7.96-7.19,14.28-7.19c6.32,0,10.17,2.42,8.28,7.09
			C436.56,79.91,430.47,82.52,424.14,82.52z M429.39,69.86c-4.48,0-8.23,1.8-9.71,5.44c-1.47,3.62,0.76,5.5,5.27,5.5
			c4.48,0,8.32-1.88,9.79-5.5C436.22,71.66,433.89,69.86,429.39,69.86z"/>
		<path class="st1" d="M454.71,82.22l3.29-8.07c1.22-2.96-0.23-4.29-4.36-4.29c-3.6,0-6.95,1.29-8.19,4.29l-3.28,8.07h-3.69
			l5.61-13.79h3.7l-0.67,1.68c1.96-1.15,4.7-1.97,7.95-1.97c5.47,0,8.39,1.71,6.77,5.67l-3.43,8.4H454.71z"/>
	</g>
</g>
</svg>
