<?xml version="1.0" encoding="utf-8"?>
<!-- Generator: Adobe Illustrator 25.0.0, SVG Export Plug-In . SVG Version: 6.00 Build 0)  -->
<svg version="1.1" xmlns="http://www.w3.org/2000/svg" xmlns:xlink="http://www.w3.org/1999/xlink" x="0px" y="0px"
	 viewBox="0 0 100 100" style="enable-background:new 0 0 100 100;" xml:space="preserve">
<style type="text/css">
	.st0{fill:#FFFFFF;}
	.st1{fill:#FF4700;}
	.st2{display:none;}
	.st3{display:inline;}
</style>
<g id="Layer_1">
	<g>
		<g>
			<path class="st0" d="M20,99.1L20,99.1c-2.75,0-5-2.25-5-5v-6c0-2.75,2.25-5,5-5h0c2.75,0,5,2.25,5,5v6
				C25,96.85,22.75,99.1,20,99.1z"/>
			<path class="st1" d="M20,100.27c-3.4,0-6.17-2.77-6.17-6.17v-6c0-3.4,2.77-6.17,6.17-6.17s6.17,2.77,6.17,6.17v6
				C26.17,97.5,23.4,100.27,20,100.27z M20,84.27c-2.11,0-3.83,1.72-3.83,3.83v6c0,2.11,1.72,3.83,3.83,3.83s3.83-1.72,3.83-3.83v-6
				C23.83,85.99,22.11,84.27,20,84.27z"/>
		</g>
		<g>
			<path class="st0" d="M80,99.1L80,99.1c-2.75,0-5-2.25-5-5v-6c0-2.75,2.25-5,5-5h0c2.75,0,5,2.25,5,5v6
				C85,96.85,82.75,99.1,80,99.1z"/>
			<path class="st1" d="M80,100.27c-3.4,0-6.17-2.77-6.17-6.17v-6c0-3.4,2.77-6.17,6.17-6.17s6.17,2.77,6.17,6.17v6
				C86.17,97.5,83.4,100.27,80,100.27z M80,84.27c-2.11,0-3.83,1.72-3.83,3.83v6c0,2.11,1.72,3.83,3.83,3.83s3.83-1.72,3.83-3.83v-6
				C83.83,85.99,82.11,84.27,80,84.27z"/>
		</g>
		<g>
			<polygon class="st0" points="85.38,60.6 15.38,60.6 25.25,36.6 75.25,36.6 			"/>
			<path class="st1" d="M85.38,61.6h-70c-0.33,0-0.65-0.17-0.83-0.44c-0.19-0.28-0.22-0.63-0.09-0.94l9.88-24
				c0.15-0.38,0.52-0.62,0.92-0.62h50c0.4,0,0.76,0.24,0.92,0.61l10.12,24c0.13,0.31,0.1,0.66-0.09,0.94
				C86.02,61.44,85.71,61.6,85.38,61.6z M16.87,59.6h67l-9.28-22H25.92L16.87,59.6z"/>
		</g>
		<g>
			<rect x="12.62" y="65.6" class="st0" width="75" height="22"/>
			<path class="st1" d="M87.62,88.6h-75c-0.55,0-1-0.45-1-1v-22c0-0.55,0.45-1,1-1h75c0.55,0,1,0.45,1,1v22
				C88.62,88.16,88.18,88.6,87.62,88.6z M13.62,86.6h73v-20h-73V86.6z"/>
		</g>
		<g>
			<polygon class="st0" points="87.62,65.6 12.62,65.6 15.38,60.6 85.38,60.6 			"/>
			<path class="st1" d="M87.62,66.6h-75c-0.35,0-0.68-0.19-0.86-0.49c-0.18-0.3-0.19-0.68-0.02-0.99l2.75-5
				c0.18-0.32,0.51-0.52,0.88-0.52h70c0.39,0,0.75,0.23,0.91,0.59l2.25,5c0.14,0.31,0.11,0.67-0.07,0.95S87.96,66.6,87.62,66.6z
				 M14.32,64.6h71.76l-1.35-3H15.97L14.32,64.6z"/>
		</g>
		<g>
			<circle class="st0" cx="22.5" cy="73.6" r="4"/>
			<path class="st1" d="M22.5,78.6c-2.76,0-5-2.24-5-5s2.24-5,5-5s5,2.24,5,5S25.26,78.6,22.5,78.6z M22.5,70.6c-1.65,0-3,1.35-3,3
				s1.35,3,3,3s3-1.35,3-3S24.15,70.6,22.5,70.6z"/>
		</g>
		<g>
			<circle class="st0" cx="78.5" cy="73.6" r="4"/>
			<path class="st1" d="M78.5,78.6c-2.76,0-5-2.24-5-5s2.24-5,5-5s5,2.24,5,5S81.26,78.6,78.5,78.6z M78.5,70.6c-1.65,0-3,1.35-3,3
				s1.35,3,3,3s3-1.35,3-3S80.15,70.6,78.5,70.6z"/>
		</g>
		<g>
			<line class="st0" x1="32.75" y1="71.6" x2="69.75" y2="71.6"/>
			<rect x="32.75" y="71.1" class="st1" width="37" height="1"/>
		</g>
		<g>
			<line class="st0" x1="36" y1="76.1" x2="66" y2="76.1"/>
			<rect x="36" y="75.6" class="st1" width="30" height="1"/>
		</g>
		<g>
			<line class="st0" x1="39.5" y1="80.6" x2="62.5" y2="80.6"/>
			<rect x="39.5" y="80.1" class="st1" width="23" height="1"/>
		</g>
		<g>
			<line class="st0" x1="9.5" y1="52.6" x2="15.5" y2="60.6"/>
			<path class="st1" d="M15.5,61.6c-0.3,0-0.6-0.14-0.8-0.4l-6-8c-0.33-0.44-0.24-1.07,0.2-1.4c0.44-0.33,1.07-0.24,1.4,0.2l6,8
				c0.33,0.44,0.24,1.07-0.2,1.4C15.92,61.54,15.71,61.6,15.5,61.6z"/>
		</g>
		<g>
			<line class="st0" x1="90.5" y1="52.6" x2="84.5" y2="60.6"/>
			<path class="st1" d="M84.5,61.6c-0.21,0-0.42-0.07-0.6-0.2c-0.44-0.33-0.53-0.96-0.2-1.4l6-8c0.33-0.44,0.96-0.53,1.4-0.2
				c0.44,0.33,0.53,0.96,0.2,1.4l-6,8C85.1,61.47,84.8,61.6,84.5,61.6z"/>
		</g>
	</g>
</g>
<g id="Layer_2" class="st2">
	<g class="st3">
		<g>
			<polygon class="st0" points="80.5,63.35 19.5,62.35 19.5,13.85 80.5,13.85 			"/>
			<path class="st1" d="M80.5,64.35c-0.01,0-0.01,0-0.02,0l-61-1c-0.55-0.01-0.98-0.45-0.98-1v-48.5c0-0.55,0.45-1,1-1h61
				c0.55,0,1,0.45,1,1v49.5c0,0.27-0.11,0.52-0.3,0.71C81.01,64.25,80.76,64.35,80.5,64.35z M20.5,61.37l59,0.97V14.85h-59V61.37z"
				/>
		</g>
		<g>
			<path class="st0" d="M26,99.35L26,99.35c-2.75,0-5-2.25-5-5v-6c0-2.75,2.25-5,5-5h0c2.75,0,5,2.25,5,5v6
				C31,97.1,28.75,99.35,26,99.35z"/>
			<path class="st1" d="M26,100.35c-3.31,0-6-2.69-6-6v-6c0-3.31,2.69-6,6-6s6,2.69,6,6v6C32,97.66,29.31,100.35,26,100.35z
				 M26,84.35c-2.21,0-4,1.79-4,4v6c0,2.21,1.79,4,4,4s4-1.79,4-4v-6C30,86.15,28.21,84.35,26,84.35z"/>
		</g>
		<g>
			<path class="st0" d="M74,99.35L74,99.35c-2.75,0-5-2.25-5-5v-6c0-2.75,2.25-5,5-5h0c2.75,0,5,2.25,5,5v6
				C79,97.1,76.75,99.35,74,99.35z"/>
			<path class="st1" d="M74,100.35c-3.31,0-6-2.69-6-6v-6c0-3.31,2.69-6,6-6s6,2.69,6,6v6C80,97.66,77.31,100.35,74,100.35z
				 M74,84.35c-2.21,0-4,1.79-4,4v6c0,2.21,1.79,4,4,4s4-1.79,4-4v-6C78,86.15,76.21,84.35,74,84.35z"/>
		</g>
		<g>
			<polygon class="st0" points="75.7,27.85 23.7,27.85 18.7,58.85 80.7,58.85 			"/>
			<path class="st1" d="M80.7,59.85h-62c-0.29,0-0.57-0.13-0.76-0.35c-0.19-0.22-0.27-0.52-0.23-0.81l5-31
				c0.08-0.48,0.5-0.84,0.99-0.84h52c0.49,0,0.91,0.36,0.99,0.84l5,31c0.05,0.29-0.04,0.58-0.23,0.81
				C81.27,59.72,80.99,59.85,80.7,59.85z M19.87,57.85h59.65l-4.68-29h-50.3L19.87,57.85z"/>
		</g>
		<g>
			<rect x="18.7" y="58.85" class="st0" width="62" height="29"/>
			<path class="st1" d="M80.7,88.85h-62c-0.55,0-1-0.45-1-1v-29c0-0.55,0.45-1,1-1h62c0.55,0,1,0.45,1,1v29
				C81.7,88.41,81.25,88.85,80.7,88.85z M19.7,86.85h60v-27h-60V86.85z"/>
		</g>
		<g>
			<circle class="st0" cx="28" cy="68.35" r="5"/>
			<path class="st1" d="M28,74.35c-3.31,0-6-2.69-6-6s2.69-6,6-6s6,2.69,6,6S31.31,74.35,28,74.35z M28,64.35c-2.21,0-4,1.79-4,4
				s1.79,4,4,4s4-1.79,4-4S30.21,64.35,28,64.35z"/>
		</g>
		<g>
			<circle class="st0" cx="71" cy="68.35" r="5"/>
			<path class="st1" d="M71,74.35c-3.31,0-6-2.69-6-6s2.69-6,6-6s6,2.69,6,6S74.31,74.35,71,74.35z M71,64.35c-2.21,0-4,1.79-4,4
				s1.79,4,4,4s4-1.79,4-4S73.21,64.35,71,64.35z"/>
		</g>
		<g>
			<line class="st0" x1="37.2" y1="70.35" x2="62.2" y2="70.35"/>
			<rect x="37.2" y="69.35" class="st1" width="25" height="2"/>
		</g>
		<g>
			<line class="st0" x1="37.2" y1="75.35" x2="62.2" y2="75.35"/>
			<rect x="37.2" y="74.35" class="st1" width="25" height="2"/>
		</g>
		<g>
			<line class="st0" x1="37.2" y1="80.35" x2="62.2" y2="80.35"/>
			<rect x="37.2" y="79.35" class="st1" width="25" height="2"/>
		</g>
		<g>
			<line class="st0" x1="87" y1="49.35" x2="81" y2="57.35"/>
			<path class="st1" d="M81,58.35c-0.21,0-0.42-0.07-0.6-0.2c-0.44-0.33-0.53-0.96-0.2-1.4l6-8c0.33-0.44,0.96-0.53,1.4-0.2
				c0.44,0.33,0.53,0.96,0.2,1.4l-6,8C81.6,58.22,81.3,58.35,81,58.35z"/>
		</g>
		<g>
			<line class="st0" x1="13" y1="49.35" x2="19" y2="57.35"/>
			<path class="st1" d="M19,58.35c-0.3,0-0.6-0.14-0.8-0.4l-6-8c-0.33-0.44-0.24-1.07,0.2-1.4c0.44-0.33,1.07-0.24,1.4,0.2l6,8
				c0.33,0.44,0.24,1.07-0.2,1.4C19.42,58.29,19.21,58.35,19,58.35z"/>
		</g>
	</g>
</g>
</svg>
