<?xml version="1.0" standalone="no"?>
<!DOCTYPE svg PUBLIC "-//W3C//DTD SVG 1.1//EN" "http://www.w3.org/Graphics/SVG/1.1/DTD/svg11.dtd" >
<svg xmlns="http://www.w3.org/2000/svg" xmlns:xlink="http://www.w3.org/1999/xlink" version="1.1">
<metadata>
Created by FontForge 20201107 at Mon Nov 25 01:14:34 2013
 By Jimmy Wärting
Copyright (c) 2012 by Toni Hurme. All rights reserved.
</metadata>
<defs>
<font id="HurmeGeometricSans4-Regular" horiz-adv-x="814" >
  <font-face 
    font-family="Hurme Geometric Sans 4"
    font-weight="400"
    font-stretch="normal"
    units-per-em="1000"
    panose-1="2 11 5 0 2 0 0 0 0 0"
    ascent="764"
    descent="-236"
    x-height="504"
    cap-height="697"
    bbox="-63 -292 1419 1052"
    underline-thickness="50"
    underline-position="-190"
    unicode-range="U+0020-FB04"
  />
<missing-glyph horiz-adv-x="712" 
d="M712 0h-712v697h712v-697zM60 637v-577h592v577h-592zM171 123l-40 40l185 185l-185 185l40 40l185 -185l185 185l40 -40l-185 -185l185 -185l-40 -40l-185 185z" />
    <glyph glyph-name="ff" unicode="ff" horiz-adv-x="546" 
d="M186 0h-74v435h-81v69h81v42c0 69 19 117 51 138s61 28 101 28c15 0 28 -1 39 -4v-70c-13 3 -28 5 -47 5c-49 0 -70 -24 -70 -87v-52h160v42c0 69 19 117 51 138s61 28 101 28c15 0 28 -1 39 -4v-70c-13 3 -28 5 -47 5c-49 0 -70 -24 -70 -87v-52h95v-69h-95v-435h-74
v435h-160v-435z" />
    <glyph glyph-name="fj" unicode="fj" horiz-adv-x="477" 
d="M186 0h-74v435h-81v69h81v42c0 65 16 110 49 137c27 19 68 29 123 29c19 0 36 -1 49 -4v-70c-15 3 -34 5 -57 5c-63 0 -90 -24 -90 -87v-52h234v-556c0 -104 -51 -156 -152 -156c-10 0 -19 1 -27 2v70c11 -2 22 -3 35 -3c49 0 70 24 70 87v487h-160v-435z" />
    <glyph glyph-name="ffj" unicode="ffj" horiz-adv-x="711" 
d="M186 0h-74v435h-81v69h81v42c0 69 19 117 51 138s61 28 101 28c15 0 28 -1 39 -4v-70c-13 3 -28 5 -47 5c-49 0 -70 -24 -70 -87v-52h160v42c0 65 16 110 49 137c27 19 68 29 123 29c19 0 36 -1 49 -4v-70c-15 3 -34 5 -57 5c-63 0 -90 -24 -90 -87v-52h234v-556
c0 -104 -51 -156 -152 -156c-10 0 -19 1 -27 2v70c11 -2 22 -3 35 -3c49 0 70 24 70 87v487h-160v-435h-74v435h-160v-435z" />
    <glyph glyph-name=".notdef" horiz-adv-x="712" 
d="M712 0h-712v697h712v-697zM60 637v-577h592v577h-592zM171 123l-40 40l185 185l-185 185l40 40l185 -185l185 185l40 -40l-185 -185l185 -185l-40 -40l-185 185z" />
    <glyph glyph-name="NULL" horiz-adv-x="0" 
 />
    <glyph glyph-name="CR" horiz-adv-x="333" 
 />
    <glyph glyph-name="space" unicode=" " horiz-adv-x="412" 
 />
    <glyph glyph-name="exclam" unicode="!" horiz-adv-x="240" 
d="M151 155h-62l-16 542h94zM85 0c-20 19 -20 51 0 70c20 20 50 20 70 0c20 -19 20 -51 0 -70c-20 -20 -50 -20 -70 0z" />
    <glyph glyph-name="quotedbl" unicode="&#x22;" horiz-adv-x="289" 
d="M233 445h-51l-12 252h75zM107 445h-51l-12 252h75z" />
    <glyph glyph-name="numbersign" unicode="#" horiz-adv-x="547" 
d="M156 116h-69l28 108h-88v62h104l30 118h-89v62h105l27 107h69l-28 -107h118l28 107h68l-27 -107h88v-62h-104l-30 -118h90v-62h-105l-28 -108h-69l28 108h-118zM229 404l-30 -118h118l31 118h-119z" />
    <glyph glyph-name="dollar" unicode="$" horiz-adv-x="544" 
d="M45 155l73 34c25 -69 68 -111 128 -125v284c-55 25 -97 52 -124 79c-27 28 -40 67 -40 116c0 45 15 83 46 114s70 49 118 54v96h64v-98c67 -10 116 -45 148 -106l-66 -34c-19 35 -46 57 -82 66v-234c70 -31 120 -62 150 -93c30 -30 45 -73 45 -128
c0 -107 -71 -183 -195 -191v-96h-64v98c-97 13 -164 68 -201 164zM246 430v209c-52 -7 -86 -41 -86 -96s27 -84 86 -113zM310 319v-258c49 4 83 24 98 51s19 47 19 68c0 68 -34 100 -117 139z" />
    <glyph glyph-name="percent" unicode="%" horiz-adv-x="733" 
d="M302 446c-31 -31 -67 -46 -110 -46s-79 15 -110 46s-46 67 -46 110s15 79 46 110s67 46 110 46s79 -15 110 -46s46 -67 46 -110s-15 -79 -46 -110zM181 0h-77l451 697h77zM192 461c49 0 90 42 90 95c0 52 -41 95 -90 95s-90 -43 -90 -95c0 -53 39 -95 90 -95zM430 30
c-30 31 -45 68 -45 111s15 80 45 110c31 31 68 46 111 46s80 -15 110 -46c31 -30 46 -67 46 -110s-15 -80 -46 -111c-30 -30 -67 -45 -110 -45s-80 15 -111 45zM451 141c0 -53 39 -95 90 -95c49 0 90 42 90 95c0 52 -41 95 -90 95s-90 -43 -90 -95z" />
    <glyph glyph-name="ampersand" unicode="&#x26;" horiz-adv-x="739" 
d="M42 223c0 96 46 166 139 210c-19 35 -29 71 -29 106c0 49 16 90 49 122c33 33 75 49 128 49c50 0 91 -15 123 -46c32 -30 48 -67 48 -112c0 -36 -11 -65 -33 -87h244v-72h-135v-38c0 -91 -13 -165 -39 -222l120 -133h-100l-61 68c-50 -55 -116 -83 -199 -83
c-76 0 -138 22 -185 66s-70 101 -70 172zM320 372l159 -175c13 42 19 95 19 158v38h-149v48c45 11 77 50 77 102c0 55 -42 95 -99 95c-49 0 -97 -36 -97 -99c0 -20 5 -40 14 -61c19 -41 36 -62 76 -106zM120 223c0 -103 68 -166 177 -166c66 0 115 23 147 68l-87 95
c-25 28 -44 48 -56 61c-11 13 -21 23 -30 32c-27 31 -23 25 -48 58c-69 -31 -103 -80 -103 -148z" />
    <glyph glyph-name="quotesingle" unicode="'" horiz-adv-x="163" 
d="M107 445h-51l-12 252h75z" />
    <glyph glyph-name="parenleft" unicode="(" horiz-adv-x="294" 
d="M273 789l37 -40c-126 -124 -189 -271 -189 -440s63 -316 189 -440l-37 -40c-151 133 -226 293 -226 480s75 347 226 480z" />
    <glyph glyph-name="parenright" unicode=")" horiz-adv-x="294" 
d="M21 -171l-37 40c126 124 189 271 189 440s-63 316 -189 440l37 40c151 -133 226 -293 226 -480s-75 -347 -226 -480z" />
    <glyph glyph-name="asterisk" unicode="*" horiz-adv-x="388" 
d="M194 509l-68 -94l-46 36l75 86l-110 34l21 56l104 -44l-5 114h59l-6 -114l105 44l20 -56l-110 -34l76 -86l-47 -36z" />
    <glyph glyph-name="plus" unicode="+" horiz-adv-x="384" 
d="M230 190h-76v123h-112v69h112v124h76v-124h112v-69h-112v-123z" />
    <glyph glyph-name="comma" unicode="," horiz-adv-x="192" 
d="M27 -128h-63l90 239h99z" />
    <glyph glyph-name="hyphen" unicode="-" horiz-adv-x="384" 
d="M342 229h-300v69h300v-69z" />
    <glyph glyph-name="period" unicode="." horiz-adv-x="188" 
d="M59 7c-20 20 -20 52 0 71c20 20 50 20 70 0c20 -19 20 -51 0 -71c-20 -19 -50 -19 -70 0z" />
    <glyph glyph-name="slash" unicode="/" horiz-adv-x="422" 
d="M70 -136h-69l312 859h71z" />
    <glyph glyph-name="zero" unicode="0" horiz-adv-x="554" 
d="M43 199c-2 22 -3 72 -3 150c0 77 1 127 3 149c6 61 31 111 76 152s97 62 158 62s113 -21 158 -62s70 -91 76 -152c2 -22 3 -72 3 -149c0 -78 -1 -128 -3 -150c-6 -61 -31 -112 -76 -153s-97 -61 -158 -61s-113 20 -158 61s-70 92 -76 153zM117 204c4 -42 21 -77 51 -104
c31 -27 67 -41 109 -41s78 14 108 41c31 27 48 62 52 104c2 19 3 68 3 145s-1 125 -3 144c-4 42 -21 77 -52 104c-30 27 -66 41 -108 41s-78 -14 -109 -41c-30 -27 -47 -62 -51 -104c-2 -19 -3 -67 -3 -144s1 -126 3 -145z" />
    <glyph glyph-name="one" unicode="1" horiz-adv-x="301" 
d="M212 0h-78v625h-96v72h174v-697z" />
    <glyph glyph-name="two" unicode="2" horiz-adv-x="502" 
d="M467 0h-454v51l313 353c31 35 46 72 46 111c0 34 -12 63 -37 87c-24 24 -53 36 -87 36s-63 -12 -87 -37c-24 -24 -36 -53 -36 -87h-77c0 55 20 101 59 140s87 58 142 58s103 -19 142 -58s59 -85 59 -140s-24 -110 -72 -165l-249 -277h338v-72z" />
    <glyph glyph-name="three" unicode="3" horiz-adv-x="561" 
d="M12 130l67 31c27 -64 98 -102 191 -102c52 0 94 15 127 44c33 30 49 69 49 116c0 93 -71 157 -186 157c-29 0 -55 -4 -80 -12l-28 50l225 211h-301v72h419v-52l-222 -206c4 1 11 2 20 2c64 0 118 -21 161 -63c44 -42 66 -95 66 -159c0 -69 -24 -126 -71 -169
s-106 -65 -179 -65c-121 0 -219 54 -258 145z" />
    <glyph glyph-name="four" unicode="4" horiz-adv-x="571" 
d="M417 155h-364v52l242 490h84l-233 -470h271v152h78v-379h-78v155z" />
    <glyph glyph-name="five" unicode="5" horiz-adv-x="555" 
d="M28 127l67 32c29 -61 92 -100 163 -100c47 0 89 17 124 50s53 73 53 119c0 47 -16 88 -49 121s-72 50 -118 50c-51 0 -95 -15 -130 -45l-55 13l59 330h323v-72h-257l-31 -171c27 13 57 19 90 19c73 0 133 -24 179 -73s69 -104 69 -166c0 -74 -25 -134 -75 -180
c-49 -46 -110 -69 -182 -69c-49 0 -95 13 -137 39c-41 26 -72 60 -93 103z" />
    <glyph glyph-name="six" unicode="6" horiz-adv-x="563" 
d="M40 230c0 33 7 64 22 95s40 71 73 120c3 3 58 87 167 252h93l-160 -238c18 4 37 6 57 6c62 0 116 -23 163 -69c47 -45 70 -100 70 -165c0 -69 -24 -128 -71 -175s-104 -71 -171 -71s-124 24 -172 71c-47 48 -71 106 -71 174zM283 394c-47 0 -87 -16 -118 -48
c-31 -31 -46 -71 -46 -119s16 -88 47 -120c32 -32 71 -48 117 -48s85 16 118 49s50 73 50 119s-17 85 -50 118s-72 49 -118 49z" />
    <glyph glyph-name="seven" unicode="7" horiz-adv-x="548" 
d="M197 0h-86l308 625h-383v72h476v-54z" />
    <glyph glyph-name="eight" unicode="8" horiz-adv-x="542" 
d="M38 211c0 95 52 163 124 192c-47 33 -71 76 -71 129c0 49 18 92 53 127s78 53 127 53s92 -18 127 -53s53 -78 53 -127c0 -53 -24 -96 -71 -129c72 -29 124 -97 124 -192c0 -62 -23 -115 -68 -160c-45 -44 -100 -66 -165 -66s-120 22 -165 66c-45 45 -68 98 -68 160z
M198 457c40 -41 106 -41 146 0s40 109 0 150s-106 41 -146 0s-40 -109 0 -150zM161 318c-30 -29 -45 -65 -45 -107s15 -78 45 -108c31 -29 67 -44 110 -44s79 15 109 44c31 30 46 66 46 108s-15 78 -46 107c-30 30 -66 45 -109 45s-79 -15 -110 -45z" />
    <glyph glyph-name="nine" unicode="9" horiz-adv-x="552" 
d="M251 0h-93l171 252c-21 -6 -41 -9 -60 -9c-60 0 -113 22 -160 65s-70 98 -70 163c0 67 23 124 69 171c47 47 103 70 168 70c69 0 125 -23 170 -69s67 -102 67 -168c0 -25 -5 -52 -16 -80c-10 -27 -21 -50 -32 -69s-29 -47 -54 -84c-1 -1 -3 -6 -8 -13zM276 312
c101 0 163 70 163 163c0 45 -16 83 -48 115c-31 32 -70 48 -115 48s-84 -16 -116 -48c-31 -32 -47 -70 -47 -115s16 -83 47 -115c32 -32 71 -48 116 -48z" />
    <glyph glyph-name="colon" unicode=":" horiz-adv-x="188" 
d="M129 354c-20 -19 -50 -19 -70 0c-20 20 -20 52 0 71c20 20 50 20 70 0c20 -19 20 -51 0 -71zM129 78c-20 -19 -50 -19 -70 0c-20 20 -20 52 0 71c20 20 50 20 70 0c20 -19 20 -51 0 -71z" />
    <glyph glyph-name="semicolon" unicode=";" horiz-adv-x="228" 
d="M149 354c-20 -19 -50 -19 -70 0c-20 20 -20 52 0 71c20 20 50 20 70 0c20 -19 20 -51 0 -71zM51 -112h-66l84 223h99z" />
    <glyph glyph-name="less" unicode="&#x3c;" horiz-adv-x="414" 
d="M362 134l-318 195v54l318 196v-78l-239 -145l239 -144v-78z" />
    <glyph glyph-name="equal" unicode="=" horiz-adv-x="426" 
d="M384 402h-342v69h342v-69zM384 238h-342v69h342v-69z" />
    <glyph glyph-name="greater" unicode="&#x3e;" horiz-adv-x="413" 
d="M370 329l-318 -195v78l239 144l-239 145v78l318 -196v-54z" />
    <glyph glyph-name="question" unicode="?" horiz-adv-x="396" 
d="M215 156c-81 0 -134 48 -134 123c0 49 30 95 89 138l49 36c10 7 21 17 33 30c25 25 31 47 31 82c0 8 -2 75 -92 75c-50 0 -97 -22 -142 -65v88c41 33 88 49 142 49c63 0 112 -22 136 -54c24 -31 34 -62 34 -90c0 -49 -6 -81 -37 -116c-15 -17 -29 -30 -40 -39l-61 -47
c-43 -31 -64 -60 -64 -87c0 -34 19 -51 56 -51c27 0 50 6 71 18v-77c-20 -9 -44 -13 -71 -13zM157 0c-20 19 -20 51 0 70c20 20 50 20 70 0c20 -19 20 -51 0 -70c-20 -20 -50 -20 -70 0z" />
    <glyph glyph-name="at" unicode="@" horiz-adv-x="803" 
d="M38 292c0 62 15 121 45 176c31 55 74 100 130 135c57 35 119 53 188 53c98 0 183 -33 255 -100c73 -67 109 -149 109 -247c0 -136 -57 -211 -152 -211c-53 0 -88 22 -105 67c-29 -35 -66 -53 -110 -53c-48 0 -89 17 -122 50s-50 75 -50 125s17 92 50 125s74 50 122 50
c41 0 75 -15 100 -44v35h68v-229c0 -63 33 -63 47 -63c19 0 31 3 51 19c21 17 33 62 33 129c0 79 -29 146 -87 201s-128 83 -209 83s-151 -30 -209 -89c-57 -59 -86 -129 -86 -212s29 -153 86 -212c58 -59 128 -88 209 -88c48 0 94 13 138 39l32 -60
c-52 -28 -109 -42 -170 -42c-62 0 -121 15 -176 46c-55 30 -100 73 -135 129c-35 57 -52 119 -52 188zM293 287c0 -63 44 -109 105 -109c59 0 105 48 105 109c0 64 -45 110 -105 110c-61 0 -105 -46 -105 -110z" />
    <glyph glyph-name="A" unicode="A" horiz-adv-x="720" 
d="M119 0h-84l295 697h60l295 -697h-84l-72 172h-338zM360 576l-139 -332h278z" />
    <glyph glyph-name="B" unicode="B" horiz-adv-x="592" 
d="M331 0h-239v697h213c53 0 97 -17 133 -51c36 -33 54 -76 54 -127c0 -67 -33 -117 -89 -140c91 -19 140 -84 140 -173c0 -59 -20 -109 -61 -148c-40 -39 -90 -58 -151 -58zM170 625v-219h130c65 0 114 47 114 110s-48 109 -113 109h-131zM170 336v-264h156
c80 0 139 57 139 134c0 37 -13 68 -40 93c-26 25 -59 37 -100 37h-155z" />
    <glyph glyph-name="C" unicode="C" horiz-adv-x="711" 
d="M410 710c107 0 196 -39 266 -118l-53 -48c-54 63 -125 94 -213 94c-82 0 -150 -28 -204 -83s-81 -124 -81 -207s27 -153 81 -208s122 -82 204 -82c90 0 162 33 216 98l53 -48c-70 -81 -160 -122 -269 -122c-101 0 -187 34 -258 103c-70 69 -105 156 -105 259
s35 189 105 258c71 69 157 104 258 104z" />
    <glyph glyph-name="D" unicode="D" horiz-adv-x="726" 
d="M317 0h-225v697h224c111 0 199 -32 263 -96c65 -64 97 -148 97 -253s-32 -189 -96 -253c-64 -63 -152 -95 -263 -95zM170 625v-553h141c188 0 287 108 287 276c0 169 -99 277 -288 277h-140z" />
    <glyph glyph-name="E" unicode="E" horiz-adv-x="549" 
d="M493 0h-401v697h394v-72h-316v-221h297v-72h-297v-260h323v-72z" />
    <glyph glyph-name="F" unicode="F" horiz-adv-x="506" 
d="M170 0h-78v697h364v-72h-286v-225h261v-72h-261v-328z" />
    <glyph glyph-name="G" unicode="G" horiz-adv-x="740" 
d="M410 710c95 0 175 -30 241 -91l-49 -54c-53 49 -117 73 -192 73c-82 0 -150 -28 -204 -83s-81 -124 -81 -207s27 -153 81 -208s122 -82 204 -82c74 0 138 23 191 70v180h-213v72h291v-279c-71 -77 -161 -115 -269 -115c-101 0 -187 34 -258 103c-70 69 -105 156 -105 259
s35 189 105 258c71 69 157 104 258 104z" />
    <glyph glyph-name="H" unicode="H" horiz-adv-x="727" 
d="M170 0h-78v697h78v-291h387v291h78v-697h-78v334h-387v-334z" />
    <glyph glyph-name="I" unicode="I" horiz-adv-x="270" 
d="M174 0h-78v697h78v-697z" />
    <glyph glyph-name="J" unicode="J" horiz-adv-x="310" 
d="M14 -5v74c17 -7 34 -10 53 -10c66 4 79 55 78 130v508h78v-505c0 -48 -1 -76 -13 -116c-16 -56 -55 -86 -138 -90c-20 0 -39 3 -58 9z" />
    <glyph glyph-name="K" unicode="K" horiz-adv-x="638" 
d="M170 0h-78v697h78v-370l335 370h96l-278 -304l286 -393h-94l-244 336l-101 -110v-226z" />
    <glyph glyph-name="L" unicode="L" horiz-adv-x="496" 
d="M457 0h-365v697h78v-625h287v-72z" />
    <glyph glyph-name="M" unicode="M" horiz-adv-x="859" 
d="M169 0h-77v697h72l266 -442l266 442h71v-697h-77v543l-260 -426l-261 425v-542z" />
    <glyph glyph-name="N" unicode="N" horiz-adv-x="751" 
d="M170 0h-78v697h68l421 -558v558h78v-697h-63l-426 564v-564z" />
    <glyph glyph-name="O" unicode="O" horiz-adv-x="820" 
d="M152 89c-70 69 -105 156 -105 259s35 189 105 258c71 69 157 104 258 104s187 -35 257 -104c71 -69 106 -155 106 -258s-35 -190 -106 -259c-70 -69 -156 -103 -257 -103s-187 34 -258 103zM205 555c-54 -55 -81 -124 -81 -207s27 -153 81 -208c55 -55 123 -82 205 -82
s150 27 204 82s81 125 81 208s-27 152 -81 207s-122 83 -204 83s-150 -28 -205 -83z" />
    <glyph glyph-name="P" unicode="P" horiz-adv-x="573" 
d="M170 0h-78v697h223c59 0 110 -20 151 -61c41 -40 62 -90 62 -151s-21 -111 -62 -152c-41 -40 -92 -60 -151 -60h-145v-273zM170 625v-280h142c39 0 72 13 98 40c27 27 40 60 40 100s-13 73 -40 100c-26 27 -59 40 -98 40h-142z" />
    <glyph glyph-name="Q" unicode="Q" horiz-adv-x="820" 
d="M773 348c0 -101 -34 -187 -102 -256l74 -91l-55 -45l-74 91c-61 -41 -129 -61 -206 -61c-101 0 -187 34 -258 103c-70 69 -105 156 -105 259s35 189 105 258c71 69 157 104 258 104s187 -35 257 -104c71 -69 106 -155 106 -258zM410 58c59 0 112 15 159 46l-114 140
l55 45l113 -139c48 55 72 121 72 198c0 83 -27 152 -81 207s-122 83 -204 83s-150 -28 -205 -83c-54 -55 -81 -124 -81 -207s27 -153 81 -208c55 -55 123 -82 205 -82z" />
    <glyph glyph-name="R" unicode="R" horiz-adv-x="606" 
d="M170 0h-78v697h238c58 0 107 -20 148 -60c41 -39 61 -89 61 -148c0 -92 -53 -167 -133 -198l168 -291h-89l-157 276h-1h-157v-276zM170 625v-277h152c40 0 73 13 99 40c27 27 40 60 40 101c0 77 -57 136 -134 136h-157z" />
    <glyph glyph-name="S" unicode="S" horiz-adv-x="550" 
d="M41 153l67 31c35 -84 93 -126 175 -126c59 0 101 20 118 49s22 50 22 74c0 38 -12 67 -35 87s-64 43 -121 68c-63 28 -110 56 -139 83s-44 67 -44 118c0 50 18 91 54 124s82 49 137 49c85 0 148 -37 188 -111l-67 -34c-26 49 -67 73 -122 73c-63 0 -112 -42 -112 -99
c0 -36 9 -60 41 -84c17 -11 30 -20 41 -26l60 -27c71 -31 121 -62 151 -93c31 -30 46 -72 46 -127c0 -57 -19 -104 -58 -141c-38 -37 -92 -55 -161 -55c-111 0 -201 56 -241 167z" />
    <glyph glyph-name="T" unicode="T" horiz-adv-x="518" 
d="M298 0h-78v625h-190v72h458v-72h-190v-625z" />
    <glyph glyph-name="U" unicode="U" horiz-adv-x="696" 
d="M87 244v453h78v-445c0 -125 70 -192 183 -192s183 67 183 192v445h78v-453c0 -82 -24 -145 -72 -190c-48 -44 -111 -66 -189 -66s-141 22 -189 66c-48 45 -72 108 -72 190z" />
    <glyph glyph-name="V" unicode="V" horiz-adv-x="709" 
d="M382 0h-55l-292 697h85l235 -566l234 566h85z" />
    <glyph glyph-name="W" unicode="W" horiz-adv-x="920" 
d="M281 0h-50l-204 697h79l155 -527l172 527h54l172 -527l155 527h79l-204 -697h-50l-179 539z" />
    <glyph glyph-name="X" unicode="X" horiz-adv-x="653" 
d="M125 0h-83l234 361l-220 336h87l184 -283l183 283h84l-219 -337l236 -360h-88l-200 306z" />
    <glyph glyph-name="Y" unicode="Y" horiz-adv-x="622" 
d="M351 0h-78v286l-245 411h86l199 -334l197 334h84l-243 -411v-286z" />
    <glyph glyph-name="Z" unicode="Z" horiz-adv-x="630" 
d="M584 0h-540v48l428 577h-379v72h484v-52l-425 -573h432v-72z" />
    <glyph glyph-name="bracketleft" unicode="[" horiz-adv-x="307" 
d="M162 625v-746h147v-72h-225v890h225v-72h-147z" />
    <glyph glyph-name="backslash" unicode="\" horiz-adv-x="422" 
d="M409 -136h-69l-314 859h69z" />
    <glyph glyph-name="bracketright" unicode="]" horiz-adv-x="307" 
d="M-2 -193v72h147v746h-147v72h225v-890h-225z" />
    <glyph glyph-name="asciicircum" unicode="^" horiz-adv-x="520" 
d="M101 350h-78l209 347h56l209 -347h-79l-158 268z" />
    <glyph glyph-name="underscore" unicode="_" horiz-adv-x="296" 
d="M-2 -193v69h300v-69h-300z" />
    <glyph glyph-name="grave" unicode="`" horiz-adv-x="538" 
d="M308 552h-59l-93 145h99z" />
    <glyph glyph-name="a" unicode="a" horiz-adv-x="629" 
d="M290 519c91 0 150 -39 179 -90v75h74v-391c0 -44 10 -63 38 -63c8 0 17 1 26 2v-56c-12 -5 -28 -8 -47 -8c-22 0 -40 5 -53 14c-19 15 -31 39 -34 72c-38 -59 -99 -89 -183 -89c-71 0 -132 25 -181 76s-74 115 -74 191s25 139 74 190s110 77 181 77zM290 54
c54 0 99 19 134 56c36 38 54 85 54 142s-18 104 -54 141c-35 38 -80 57 -134 57c-52 0 -95 -19 -130 -57c-34 -37 -51 -84 -51 -141s17 -104 51 -142c35 -37 78 -56 130 -56z" />
    <glyph glyph-name="b" unicode="b" horiz-adv-x="600" 
d="M131 0h-74v697h74v-268c29 51 88 90 179 90c71 0 132 -26 181 -77s74 -114 74 -190s-25 -140 -74 -191s-110 -76 -181 -76c-91 0 -150 39 -179 90v-75zM310 54c52 0 95 19 129 56c35 38 52 85 52 142s-17 104 -52 141c-34 38 -77 57 -129 57c-54 0 -99 -19 -135 -57
c-35 -37 -53 -84 -53 -141s18 -104 53 -142c36 -37 81 -56 135 -56z" />
    <glyph glyph-name="c" unicode="c" horiz-adv-x="517" 
d="M303 519c78 0 142 -25 191 -76l-45 -52c-38 39 -87 59 -146 59c-56 0 -102 -19 -139 -57c-37 -37 -55 -84 -55 -141s18 -104 55 -142c37 -37 83 -56 139 -56c59 0 108 20 146 59l45 -52c-49 -51 -113 -76 -191 -76c-75 0 -138 25 -190 76s-78 115 -78 191s26 139 78 190
s115 77 190 77z" />
    <glyph glyph-name="d" unicode="d" horiz-adv-x="629" 
d="M290 519c91 0 150 -39 179 -90v268h74v-584c0 -44 10 -63 38 -63c8 0 17 1 26 2v-56c-12 -5 -28 -8 -47 -8c-22 0 -40 5 -53 14c-19 15 -31 39 -34 72c-38 -59 -99 -89 -183 -89c-71 0 -132 25 -181 76s-74 115 -74 191s25 139 74 190s110 77 181 77zM290 54
c54 0 99 19 134 56c36 38 54 85 54 142s-18 104 -54 141c-35 38 -80 57 -134 57c-52 0 -95 -19 -130 -57c-34 -37 -51 -84 -51 -141s17 -104 51 -142c35 -37 78 -56 130 -56z" />
    <glyph glyph-name="e" unicode="e" horiz-adv-x="551" 
d="M35 246v4c0 81 24 146 71 195s108 74 181 74c69 0 124 -24 167 -73c43 -48 65 -107 65 -178c0 -11 0 -22 -1 -32h-409c4 -111 75 -182 180 -182c69 0 110 22 155 70l49 -48c-53 -59 -121 -89 -204 -89c-75 0 -137 24 -184 71s-70 110 -70 188zM114 301h326
c0 41 -15 76 -45 105s-66 44 -108 44c-46 0 -86 -15 -119 -44s-51 -64 -54 -105z" />
    <glyph glyph-name="f" unicode="f" horiz-adv-x="313" 
d="M186 0h-74v435h-81v69h81v42c0 65 16 110 49 137c22 19 56 29 103 29c15 0 28 -1 39 -4v-70c-13 3 -28 5 -47 5c-49 0 -70 -24 -70 -87v-52h95v-69h-95v-435z" />
    <glyph glyph-name="g" unicode="g" horiz-adv-x="600" 
d="M54 -143l38 59c62 -45 129 -67 200 -67c53 0 94 12 125 37c35 29 52 81 52 156v42c-29 -51 -88 -90 -179 -90c-71 0 -132 25 -181 74c-49 50 -74 113 -74 188s25 138 74 188s110 75 181 75c91 0 150 -39 179 -90v75h74v-420c0 -65 -5 -117 -15 -154
c-9 -38 -31 -70 -65 -97c-45 -35 -101 -53 -170 -53c-89 0 -168 26 -239 77zM290 63c54 0 99 18 134 55c36 37 54 83 54 138s-18 101 -54 138c-35 37 -80 56 -134 56c-52 0 -95 -19 -130 -56c-34 -37 -51 -83 -51 -138s17 -101 51 -138c35 -37 78 -55 130 -55z" />
    <glyph glyph-name="h" unicode="h" horiz-adv-x="547" 
d="M131 0h-74v697h74v-278c27 56 82 93 155 93c111 0 181 -75 181 -190v-208c0 -40 7 -53 35 -53c5 0 11 1 19 2v-61c-9 -3 -19 -5 -32 -5c-39 0 -96 11 -96 112v197c0 84 -48 137 -125 137c-80 0 -137 -58 -137 -142v-301z" />
    <glyph glyph-name="i" unicode="i" horiz-adv-x="212" 
d="M58 95v409h74v-396c0 -37 10 -53 38 -53c8 0 17 1 26 2v-61c-12 -5 -28 -8 -47 -8c-61 0 -91 36 -91 107zM130 602c-20 -19 -50 -19 -70 0c-20 20 -20 52 0 71c20 20 50 20 70 0c20 -19 20 -51 0 -71z" />
    <glyph glyph-name="j" unicode="j" horiz-adv-x="188" 
d="M129 600c-20 -19 -50 -19 -70 0c-20 20 -20 52 0 71c20 20 50 20 70 0c20 -19 20 -51 0 -71zM57 -52v556h74v-556c0 -104 -51 -156 -152 -156c-10 0 -19 1 -27 2v70c11 -2 23 -3 35 -3c49 0 70 24 70 87z" />
    <glyph glyph-name="k" unicode="k" horiz-adv-x="466" 
d="M131 0h-74v697h74v-442l216 249h85l-191 -221l218 -283h-88l-177 230l-63 -73v-157z" />
    <glyph glyph-name="l" unicode="l" horiz-adv-x="260" 
d="M58 127v570h74v-565c0 -56 16 -78 63 -78c17 0 29 1 36 2v-63c-9 -5 -25 -8 -46 -8c-31 0 -53 5 -82 22c-28 17 -45 59 -45 120z" />
    <glyph glyph-name="m" unicode="m" horiz-adv-x="822" 
d="M131 0h-74v504h74v-85c24 56 74 93 142 93c72 0 121 -33 148 -100c30 67 82 100 157 100c101 0 164 -75 164 -190v-208c0 -40 7 -53 35 -53c5 0 11 1 19 2v-61c-8 -3 -19 -5 -32 -5c-39 0 -96 11 -96 112v197c0 84 -42 137 -110 137c-69 0 -120 -58 -120 -142v-301h-74
v306c0 85 -41 137 -112 137c-69 0 -121 -58 -121 -142v-301z" />
    <glyph glyph-name="n" unicode="n" horiz-adv-x="554" 
d="M131 0h-74v504h74v-85c27 56 84 93 159 93c113 0 184 -75 184 -190v-208c0 -41 6 -53 35 -53c5 0 11 1 19 2v-61c-8 -3 -19 -5 -32 -5c-39 0 -96 11 -96 112v197c0 84 -49 137 -129 137c-83 0 -140 -58 -140 -142v-301z" />
    <glyph glyph-name="o" unicode="o" horiz-adv-x="606" 
d="M113 61c-52 51 -78 115 -78 191s26 139 78 190s115 77 190 77s138 -26 190 -77s78 -114 78 -190s-26 -140 -78 -191s-115 -76 -190 -76s-138 25 -190 76zM164 393c-37 -37 -55 -84 -55 -141s18 -104 55 -142c37 -37 83 -56 139 -56s102 19 139 56c37 38 55 85 55 142
s-18 104 -55 141c-37 38 -83 57 -139 57s-102 -19 -139 -57z" />
    <glyph glyph-name="p" unicode="p" horiz-adv-x="600" 
d="M131 -193h-74v697h74v-75c29 51 88 90 179 90c71 0 132 -26 181 -77s74 -114 74 -190s-25 -140 -74 -191s-110 -76 -181 -76c-91 0 -150 39 -179 90v-268zM310 54c52 0 95 19 129 56c35 38 52 85 52 142s-17 104 -52 141c-34 38 -77 57 -129 57c-54 0 -99 -19 -135 -57
c-35 -37 -53 -84 -53 -141s18 -104 53 -142c36 -37 81 -56 135 -56z" />
    <glyph glyph-name="q" unicode="q" horiz-adv-x="600" 
d="M290 519c91 0 150 -39 179 -90v75h74v-697h-74v268c-29 -51 -88 -90 -179 -90c-71 0 -132 25 -181 76s-74 115 -74 191s25 139 74 190s110 77 181 77zM290 54c54 0 99 19 134 56c36 38 54 85 54 142s-18 104 -54 141c-35 38 -80 57 -134 57c-52 0 -95 -19 -130 -57
c-34 -37 -51 -84 -51 -141s17 -104 51 -142c35 -37 78 -56 130 -56z" />
    <glyph glyph-name="r" unicode="r" horiz-adv-x="361" 
d="M131 0h-74v504h74v-85c27 56 82 93 155 93c11 0 22 -1 31 -2v-80c-13 3 -30 5 -50 5c-79 0 -136 -58 -136 -142v-293z" />
    <glyph glyph-name="s" unicode="s" horiz-adv-x="414" 
d="M18 109l63 24c13 -43 58 -76 127 -76c83 0 111 38 111 77c0 25 -9 44 -28 57c-18 13 -51 29 -98 48c-92 36 -137 74 -137 147c0 77 63 133 152 133c68 0 117 -29 146 -87l-60 -31c-18 33 -46 50 -85 50c-47 0 -79 -24 -79 -65s34 -62 110 -91c104 -40 153 -84 153 -161
c0 -80 -65 -146 -185 -146c-96 0 -170 44 -190 121z" />
    <glyph glyph-name="t" unicode="t" horiz-adv-x="308" 
d="M89 141v294h-59v69h59v193h74v-193h117v-69h-117v-294c0 -64 21 -87 70 -87c19 0 34 1 47 3v-64c-11 -5 -30 -8 -56 -8c-90 0 -135 52 -135 156z" />
    <glyph glyph-name="u" unicode="u" horiz-adv-x="547" 
d="M51 182v322h74v-306c0 -84 48 -137 125 -137c80 0 137 58 137 142v301h74v-387c0 -44 10 -63 38 -63c8 0 17 1 26 2v-56c-11 -5 -26 -8 -47 -8c-27 0 -48 8 -62 23c-12 13 -20 29 -23 50c-32 -49 -86 -73 -161 -73c-111 0 -181 75 -181 190z" />
    <glyph glyph-name="v" unicode="v" horiz-adv-x="512" 
d="M282 0h-51l-216 504h78l163 -384l163 384h79z" />
    <glyph glyph-name="w" unicode="w" horiz-adv-x="746" 
d="M246 0h-49l-182 504h76l130 -364l126 364h52l125 -364l130 364h77l-182 -504h-49l-127 367z" />
    <glyph glyph-name="x" unicode="x" horiz-adv-x="513" 
d="M106 0h-81l192 268l-176 236h82l133 -179l133 179h82l-175 -235l192 -269h-81l-150 211z" />
    <glyph glyph-name="y" unicode="y" horiz-adv-x="504" 
d="M64 -200v68c14 -5 31 -8 50 -8c17 0 32 4 43 11c15 11 28 31 40 61l22 57l-204 515h74l166 -425l160 425h74l-228 -590c-14 -37 -30 -65 -49 -85c-25 -25 -57 -38 -98 -38c-19 0 -36 3 -50 9z" />
    <glyph glyph-name="z" unicode="z" horiz-adv-x="499" 
d="M458 0h-430v44l309 391h-276v69h381v-49l-307 -386h323v-69z" />
    <glyph glyph-name="braceleft" unicode="{" horiz-adv-x="318" 
d="M113 -65v190c0 43 -13 73 -40 89c-13 8 -30 13 -39 14h-6v48c15 1 30 5 45 14c27 16 40 46 40 89v190c0 75 51 128 120 128h45v-59h-37c-37 0 -54 -32 -54 -69v-179c0 -51 -11 -87 -34 -110c-11 -12 -25 -21 -40 -28c15 -7 28 -16 40 -28c23 -23 34 -59 34 -110v-179
c0 -37 17 -69 54 -69h37v-59h-45c-69 0 -120 53 -120 128z" />
    <glyph glyph-name="bar" unicode="|" horiz-adv-x="248" 
d="M161 -25h-74v747h74v-747z" />
    <glyph glyph-name="braceright" unicode="}" horiz-adv-x="318" 
d="M40 -193v59h37c37 0 54 32 54 69v179c0 51 11 87 34 110c11 12 25 21 40 28c-15 7 -29 16 -40 28c-23 23 -34 59 -34 110v179c0 37 -17 69 -54 69h-37v59h45c69 0 120 -53 120 -128v-190c0 -43 13 -73 40 -89c13 -8 30 -13 39 -14h6v-48c-15 -1 -30 -5 -45 -14
c-27 -16 -40 -46 -40 -89v-190c0 -75 -51 -128 -120 -128h-45z" />
    <glyph glyph-name="asciitilde" unicode="~" horiz-adv-x="418" 
d="M77 299l-49 4c7 53 45 92 100 92c24 0 52 -7 85 -20s57 -19 72 -19c28 0 47 14 56 41l49 -4c-9 -65 -43 -98 -102 -98c-25 0 -54 6 -87 19c-32 13 -56 20 -71 20c-29 0 -46 -12 -53 -35z" />
    <glyph glyph-name="exclamdown" unicode="&#xa1;" horiz-adv-x="240" 
d="M155 425c-20 -19 -50 -19 -70 0c-20 20 -20 52 0 71c20 20 50 20 70 0c20 -19 20 -51 0 -71zM167 -201h-94l16 542h62z" />
    <glyph glyph-name="cent" unicode="&#xa2;" horiz-adv-x="533" 
d="M256 0h-68l22 102c-103 37 -172 132 -172 249c0 92 40 167 96 207s117 60 173 60h10l16 79h68l-19 -88c47 -11 86 -32 117 -63l-45 -52c-23 23 -52 39 -86 47l-80 -387c2 0 11 -2 23 -2c57 0 104 19 142 56l46 -53c-50 -47 -115 -71 -194 -71c-11 0 -22 1 -31 2zM224 170
l79 379h-1c-55 -1 -100 -20 -136 -58c-36 -37 -54 -84 -54 -140c0 -83 44 -150 112 -181z" />
    <glyph glyph-name="sterling" unicode="&#xa3;" horiz-adv-x="586" 
d="M542 0h-502v67h9c138 0 170 84 170 150c0 20 -8 47 -25 80h-103v72h63c-32 55 -48 101 -48 138c0 57 20 105 60 145s88 60 145 60s105 -20 145 -60s60 -88 60 -145h-77c0 36 -12 67 -37 93c-25 27 -55 40 -90 40s-66 -13 -91 -39s-37 -57 -37 -94c0 -32 19 -78 56 -138
h153v-72h-115c13 -30 19 -57 19 -80c0 -71 -26 -122 -59 -145h304v-72z" />
    <glyph glyph-name="currency" unicode="&#xa4;" horiz-adv-x="645" 
d="M104 54l-51 50l87 81c-35 42 -52 91 -52 148c0 56 17 105 52 148l-87 82l51 50l79 -91c42 31 89 47 140 47s98 -16 141 -47l79 91l51 -50l-88 -81c35 -43 53 -93 53 -149s-18 -105 -53 -148l88 -82l-51 -49l-80 89c-40 -30 -87 -45 -140 -45s-100 16 -141 47zM158 333
c0 -47 16 -87 48 -120c33 -33 72 -50 117 -50s84 17 117 50s49 73 49 120s-16 87 -49 120c-33 34 -72 51 -117 51s-84 -17 -117 -50c-32 -33 -48 -74 -48 -121z" />
    <glyph glyph-name="yen" unicode="&#xa5;" horiz-adv-x="614" 
d="M347 0h-78v211h-212v72h214l-53 88h-161v72h119l-152 254h86l199 -334l197 334h84l-150 -254h119v-72h-162l-52 -88h214v-72h-212v-211z" />
    <glyph glyph-name="brokenbar" unicode="&#xa6;" horiz-adv-x="248" 
d="M161 415h-74v282h74v-282zM161 0h-74v294h74v-294z" />
    <glyph glyph-name="section" unicode="&#xa7;" horiz-adv-x="517" 
d="M82 -23h78c0 -43 13 -113 97 -113c52 0 96 32 96 89c0 29 -9 51 -34 71c-24 20 -37 28 -80 49c-71 36 -119 65 -143 86c-43 39 -65 84 -65 137c0 65 30 113 89 143c-29 29 -43 67 -43 112c0 47 16 85 49 115c33 31 75 46 125 46c56 0 99 -18 129 -53
c31 -35 46 -79 46 -132h-78c0 43 -13 113 -97 113c-52 0 -96 -32 -96 -89c0 -19 4 -35 13 -49c17 -27 35 -36 83 -61c79 -41 133 -73 161 -96c43 -39 65 -84 65 -137c0 -65 -30 -113 -89 -143c29 -29 43 -67 43 -112c0 -47 -17 -86 -50 -116s-75 -45 -124 -45
c-109 0 -175 76 -175 185zM263 143c15 -7 32 -16 49 -26c58 13 87 44 87 91c0 31 -11 56 -34 76c-23 21 -63 46 -120 77c-15 7 -32 16 -49 26c-58 -13 -87 -44 -87 -91c0 -31 11 -56 34 -77c23 -20 63 -45 120 -76z" />
    <glyph glyph-name="dieresis" unicode="&#xa8;" horiz-adv-x="606" 
d="M441 600c-20 -19 -50 -19 -70 0c-20 20 -20 52 0 71c20 20 50 20 70 0c20 -19 20 -51 0 -71zM235 600c-20 -19 -50 -19 -70 0c-20 20 -20 52 0 71c20 20 50 20 70 0c20 -19 20 -51 0 -71z" />
    <glyph glyph-name="copyright" unicode="&#xa9;" horiz-adv-x="812" 
d="M149 91c-71 71 -107 157 -107 257s36 185 107 256s157 107 257 107s186 -36 257 -107s107 -156 107 -256s-36 -186 -107 -257s-157 -107 -257 -107s-186 36 -257 107zM180 575c-63 -63 -94 -138 -94 -227s31 -165 94 -228s138 -95 226 -95s163 32 226 95s94 139 94 228
s-31 164 -94 227s-138 95 -226 95s-163 -32 -226 -95zM412 554c59 0 109 -21 152 -62l-46 -50c-31 29 -67 44 -106 44c-37 0 -68 -13 -93 -38s-37 -57 -37 -95s12 -70 37 -95s56 -38 93 -38c41 0 76 15 106 45l46 -53c-41 -41 -91 -61 -152 -61c-57 0 -105 19 -144 58
s-59 87 -59 144s20 105 59 143c39 39 87 58 144 58z" />
    <glyph glyph-name="ordfeminine" unicode="&#xaa;" horiz-adv-x="447" 
d="M47 425c0 68 54 113 151 116c68 3 90 11 90 50c0 44 -38 57 -73 57c-40 0 -74 -18 -103 -53l-43 36c35 50 83 75 146 75c79 0 129 -46 129 -115v-197c0 -16 5 -24 16 -24h21v-41c-10 -7 -22 -10 -37 -10s-26 4 -33 12c-7 7 -11 16 -14 27c-25 -29 -64 -43 -119 -43
c-77 0 -131 43 -131 110zM104 427c0 -35 30 -56 79 -56c67 0 105 30 105 77v59c-14 -12 -44 -18 -90 -19c-63 -2 -94 -22 -94 -61z" />
    <glyph glyph-name="guillemotleft" unicode="&#xab;" horiz-adv-x="414" 
d="M379 78h-78l-110 175l110 175h78l-110 -175zM223 78h-78l-110 175l110 175h78l-110 -175z" />
    <glyph glyph-name="logicalnot" unicode="&#xac;" horiz-adv-x="568" 
d="M450 382h-408v69h484v-270h-76v201z" />
    <glyph glyph-name="registered" unicode="&#xae;" horiz-adv-x="394" 
d="M311 439c-31 -30 -70 -45 -115 -45s-84 15 -115 45s-46 68 -46 114s15 84 46 114s70 45 115 45s84 -15 115 -45c32 -30 48 -68 48 -114s-16 -84 -48 -114zM326 553c0 77 -55 131 -130 131s-129 -54 -129 -131c0 -76 54 -129 129 -129s130 53 130 129zM171 465h-34v183h65
c35 0 59 -24 59 -57c0 -24 -10 -42 -30 -53l44 -73h-40l-40 67h-24v-67zM171 616v-56h30c15 0 26 13 26 29c0 15 -11 27 -26 27h-30z" />
    <glyph glyph-name="overscore" unicode="&#xaf;" horiz-adv-x="620" 
d="M457 628h-294v69h294v-69z" />
    <glyph glyph-name="degree" unicode="&#xb0;" horiz-adv-x="360" 
d="M273 474c-25 -25 -56 -38 -93 -38s-68 13 -94 38c-25 26 -38 57 -38 94s13 68 38 93c26 26 57 39 94 39s68 -13 93 -39c26 -25 39 -56 39 -93s-13 -68 -39 -94zM137 521c24 -25 62 -25 86 0c24 27 24 68 0 93c-24 27 -62 27 -86 0c-24 -25 -24 -66 0 -93z" />
    <glyph glyph-name="plusminus" unicode="&#xb1;" horiz-adv-x="384" 
d="M230 190h-76v123h-112v69h112v124h76v-124h112v-69h-112v-123zM342 0h-300v69h300v-69z" />
    <glyph glyph-name="twosuperior" unicode="&#xb2;" horiz-adv-x="325" 
d="M287 328h-243v40l153 177c16 19 24 37 24 52c0 29 -25 54 -54 54s-54 -28 -54 -63h-56c0 65 49 117 110 117s111 -48 111 -108c0 -31 -11 -59 -34 -86l-116 -129h159v-54z" />
    <glyph glyph-name="threesuperior" unicode="&#xb3;" horiz-adv-x="346" 
d="M164 320c-64 0 -118 35 -138 91l50 19c14 -37 43 -55 88 -55c49 0 84 30 84 73c0 44 -36 76 -88 76c-24 0 -41 -3 -52 -8l-20 26l106 102h-133v53h224v-33l-101 -93c14 0 27 -2 40 -6c47 -17 79 -64 79 -117c0 -75 -59 -128 -139 -128z" />
    <glyph glyph-name="acute" unicode="&#xb4;" horiz-adv-x="538" 
d="M290 552h-59l53 145h99z" />
    <glyph glyph-name="paragraph" unicode="&#xb6;" horiz-adv-x="539" 
d="M310 0h-78v267c-57 3 -106 26 -145 67s-59 91 -59 148c0 59 21 110 63 152s93 63 152 63h285v-72h-66v-625h-78v625h-74v-625z" />
    <glyph glyph-name="middot" unicode="&#xb7;" horiz-adv-x="188" 
d="M129 216c-20 -19 -50 -19 -70 0c-20 20 -20 52 0 71c20 20 50 20 70 0c20 -19 20 -51 0 -71z" />
    <glyph glyph-name="cedilla" unicode="&#xb8;" horiz-adv-x="529" 
d="M220 -76l32 76h56l-21 -46c37 0 66 -28 66 -71c0 -54 -34 -81 -103 -81c-30 0 -55 8 -74 23l19 39c19 -11 37 -17 54 -17c25 0 44 15 44 36c0 32 -22 41 -73 41z" />
    <glyph glyph-name="onesuperior" unicode="&#xb9;" horiz-adv-x="222" 
d="M145 328h-57v316h-48v53h105v-369z" />
    <glyph glyph-name="ordmasculine" unicode="&#xba;" horiz-adv-x="456" 
d="M366 374c-38 -37 -84 -56 -138 -56s-100 19 -138 56c-38 38 -57 84 -57 138s19 100 57 137c38 38 84 57 138 57s100 -19 138 -57c38 -37 57 -83 57 -137s-19 -100 -57 -138zM136 418c25 -26 56 -39 92 -39s66 13 91 39c25 27 38 58 38 94s-13 67 -38 93
c-25 27 -55 40 -91 40s-67 -13 -92 -40c-25 -26 -37 -57 -37 -93s12 -67 37 -94z" />
    <glyph glyph-name="guillemotright" unicode="&#xbb;" horiz-adv-x="414" 
d="M269 78h-78l110 175l-110 175h78l110 -175zM113 78h-78l110 175l-110 175h78l110 -175z" />
    <glyph glyph-name="onequarter" unicode="&#xbc;" horiz-adv-x="672" 
d="M152 0h-74l390 697h74zM165 328h-57v316h-48v53h105v-369zM547 73h-204v39l128 257h59l-121 -242h138v74h57v-201h-57v73z" />
    <glyph glyph-name="onehalf" unicode="&#xbd;" horiz-adv-x="704" 
d="M152 0h-74l390 697h74zM165 328h-57v316h-48v53h105v-369zM646 0h-243v40l153 177c16 19 24 37 24 52c0 29 -25 54 -54 54s-54 -28 -54 -63h-56c0 65 49 117 110 117s111 -48 111 -108c0 -31 -11 -59 -34 -86l-116 -129h159v-54z" />
    <glyph glyph-name="threequarters" unicode="&#xbe;" horiz-adv-x="770" 
d="M250 0h-74l390 697h74zM174 320c-64 0 -118 35 -138 91l50 19c14 -37 43 -55 88 -55c49 0 84 30 84 73c0 44 -36 76 -88 76c-24 0 -41 -3 -52 -8l-20 26l106 102h-133v53h224v-33l-101 -93c13 0 27 -2 40 -6c47 -17 79 -64 79 -117c0 -75 -59 -128 -139 -128zM645 73
h-204v39l128 257h59l-121 -242h138v74h57v-201h-57v73z" />
    <glyph glyph-name="questiondown" unicode="&#xbf;" horiz-adv-x="396" 
d="M239 425c-20 -19 -50 -19 -70 0c-20 20 -20 52 0 71c20 20 50 20 70 0c20 -19 20 -51 0 -71zM35 -72c0 49 6 82 37 115c15 17 28 30 39 39l62 48c43 31 64 60 64 87c0 34 -19 51 -56 51c-27 0 -50 -6 -71 -18v77c20 9 44 13 71 13c81 0 134 -48 134 -123
c0 -49 -30 -95 -89 -138l-50 -36c-9 -7 -20 -17 -33 -30c-24 -25 -30 -47 -30 -82c0 -8 2 -75 92 -75c50 0 97 22 142 65v-88c-41 -33 -88 -49 -142 -49c-63 0 -112 22 -136 54c-24 31 -34 62 -34 90z" />
    <glyph glyph-name="Agrave" unicode="&#xc0;" horiz-adv-x="720" 
d="M119 0h-84l295 697h60l295 -697h-84l-72 172h-338zM360 576l-139 -332h278zM396 745h-59l-93 145h99z" />
    <glyph glyph-name="Aacute" unicode="&#xc1;" horiz-adv-x="720" 
d="M119 0h-84l295 697h60l295 -697h-84l-72 172h-338zM360 576l-139 -332h278zM380 745h-59l53 145h99z" />
    <glyph glyph-name="Acircumflex" unicode="&#xc2;" horiz-adv-x="720" 
d="M294 769h-91l126 121h62l126 -121h-91l-66 66zM119 0h-84l295 697h60l295 -697h-84l-72 172h-338zM360 576l-139 -332h278z" />
    <glyph glyph-name="Atilde" unicode="&#xc3;" horiz-adv-x="720" 
d="M119 0h-84l295 697h60l295 -697h-84l-72 172h-338zM360 576l-139 -332h278zM262 758l-49 4c7 53 41 92 90 92c18 0 39 -7 63 -20c25 -13 43 -19 54 -19c24 0 39 14 46 41l49 -4c-7 -65 -38 -98 -92 -98c-19 0 -40 6 -65 19c-24 13 -42 20 -53 20c-23 0 -38 -12 -43 -35z
" />
    <glyph glyph-name="Adieresis" unicode="&#xc4;" horiz-adv-x="720" 
d="M498 758c-20 -19 -50 -19 -70 0c-20 20 -20 52 0 71c20 20 50 20 70 0c20 -19 20 -51 0 -71zM292 758c-20 -19 -50 -19 -70 0c-20 20 -20 52 0 71c20 20 50 20 70 0c20 -19 20 -51 0 -71zM119 0h-84l295 697h60l295 -697h-84l-72 172h-338zM360 576l-139 -332h278z" />
    <glyph glyph-name="Aring" unicode="&#xc5;" horiz-adv-x="701" 
d="M117 0h-82l290 665c-41 11 -72 50 -72 94c0 53 45 97 98 97s97 -44 97 -97c0 -45 -30 -84 -73 -95l291 -664h-85l-75 172h-314zM318 726c19 -19 48 -19 65 0c19 19 19 48 0 65c-17 19 -46 19 -65 0c-19 -17 -19 -46 0 -65zM349 540l-126 -296h252z" />
    <glyph glyph-name="AE" unicode="&#xc6;" horiz-adv-x="890" 
d="M82 0h-98l534 697h310v-72h-252v-221h233v-72h-233v-260h259v-72h-337v172h-284zM498 549l-229 -305h229v305z" />
    <glyph glyph-name="Ccedilla" unicode="&#xc7;" horiz-adv-x="711" 
d="M47 348c0 103 35 189 105 258c71 69 157 104 258 104c107 0 196 -39 266 -118l-53 -48c-54 63 -125 94 -213 94c-82 0 -150 -28 -204 -83s-81 -124 -81 -207s27 -153 81 -208s122 -82 204 -82c90 0 162 33 216 98l53 -48c-70 -81 -160 -122 -269 -122c-11 0 -20 0 -26 1
l-15 -33c37 0 66 -28 66 -71c0 -54 -34 -81 -103 -81c-30 0 -55 8 -74 23l19 39c19 -11 37 -17 54 -17c25 0 44 15 44 36c0 32 -22 41 -73 41l29 70c-83 17 -151 58 -204 123s-80 142 -80 231z" />
    <glyph glyph-name="Egrave" unicode="&#xc8;" horiz-adv-x="549" 
d="M493 0h-401v697h394v-72h-316v-221h297v-72h-297v-260h323v-72zM336 745h-59l-93 145h99z" />
    <glyph glyph-name="Eacute" unicode="&#xc9;" horiz-adv-x="549" 
d="M493 0h-401v697h394v-72h-316v-221h297v-72h-297v-260h323v-72zM308 745h-59l53 145h99z" />
    <glyph glyph-name="Ecircumflex" unicode="&#xca;" horiz-adv-x="549" 
d="M224 769h-91l126 121h62l126 -121h-91l-66 66zM493 0h-401v697h394v-72h-316v-221h297v-72h-297v-260h323v-72z" />
    <glyph glyph-name="Edieresis" unicode="&#xcb;" horiz-adv-x="549" 
d="M428 777c-20 -19 -50 -19 -70 0c-20 20 -20 52 0 71c20 20 50 20 70 0c20 -19 20 -51 0 -71zM222 777c-20 -19 -50 -19 -70 0c-20 20 -20 52 0 71c20 20 50 20 70 0c20 -19 20 -51 0 -71zM493 0h-401v697h394v-72h-316v-221h297v-72h-297v-260h323v-72z" />
    <glyph glyph-name="Igrave" unicode="&#xcc;" horiz-adv-x="270" 
d="M174 0h-78v697h78v-697zM165 745h-59l-93 145h99z" />
    <glyph glyph-name="Iacute" unicode="&#xcd;" horiz-adv-x="270" 
d="M174 0h-78v697h78v-697zM163 745h-59l53 145h99z" />
    <glyph glyph-name="Icircumflex" unicode="&#xce;" horiz-adv-x="270" 
d="M69 769h-91l126 121h62l126 -121h-91l-66 66zM174 0h-78v697h78v-697z" />
    <glyph glyph-name="Idieresis" unicode="&#xcf;" horiz-adv-x="270" 
d="M263 777c-20 -19 -50 -19 -70 0c-20 20 -20 52 0 71c20 20 50 20 70 0c20 -19 20 -51 0 -71zM77 777c-20 -19 -50 -19 -70 0c-20 20 -20 52 0 71c20 20 50 20 70 0c20 -19 20 -51 0 -71zM174 0h-78v697h78v-697z" />
    <glyph glyph-name="Eth" unicode="&#xd0;" horiz-adv-x="722" 
d="M317 0h-225v322h-65v72h65v303h224c111 0 199 -32 263 -96c65 -64 97 -148 97 -253s-32 -189 -96 -253c-64 -63 -152 -95 -263 -95zM170 322v-250h141c188 0 287 108 287 276c0 169 -99 277 -288 277h-140v-231h145v-72h-145z" />
    <glyph glyph-name="Ntilde" unicode="&#xd1;" horiz-adv-x="751" 
d="M170 0h-78v697h68l421 -558v558h78v-697h-63l-426 564v-564zM273 758l-49 4c7 53 41 92 90 92c18 0 39 -7 63 -20c25 -13 43 -19 54 -19c24 0 39 14 46 41l49 -4c-7 -65 -38 -98 -92 -98c-19 0 -40 6 -65 19c-24 13 -42 20 -53 20c-23 0 -38 -12 -43 -35z" />
    <glyph glyph-name="Ograve" unicode="&#xd2;" horiz-adv-x="820" 
d="M152 89c-70 69 -105 156 -105 259s35 189 105 258c71 69 157 104 258 104s187 -35 257 -104c71 -69 106 -155 106 -258s-35 -190 -106 -259c-70 -69 -156 -103 -257 -103s-187 34 -258 103zM205 555c-54 -55 -81 -124 -81 -207s27 -153 81 -208c55 -55 123 -82 205 -82
s150 27 204 82s81 125 81 208s-27 152 -81 207s-122 83 -204 83s-150 -28 -205 -83zM444 745h-59l-93 145h99z" />
    <glyph glyph-name="Oacute" unicode="&#xd3;" horiz-adv-x="820" 
d="M152 89c-70 69 -105 156 -105 259s35 189 105 258c71 69 157 104 258 104s187 -35 257 -104c71 -69 106 -155 106 -258s-35 -190 -106 -259c-70 -69 -156 -103 -257 -103s-187 34 -258 103zM205 555c-54 -55 -81 -124 -81 -207s27 -153 81 -208c55 -55 123 -82 205 -82
s150 27 204 82s81 125 81 208s-27 152 -81 207s-122 83 -204 83s-150 -28 -205 -83zM425 745h-59l53 145h99z" />
    <glyph glyph-name="Ocircumflex" unicode="&#xd4;" horiz-adv-x="820" 
d="M344 769h-91l126 121h62l126 -121h-91l-66 66zM152 89c-70 69 -105 156 -105 259s35 189 105 258c71 69 157 104 258 104s187 -35 257 -104c71 -69 106 -155 106 -258s-35 -190 -106 -259c-70 -69 -156 -103 -257 -103s-187 34 -258 103zM205 555
c-54 -55 -81 -124 -81 -207s27 -153 81 -208c55 -55 123 -82 205 -82s150 27 204 82s81 125 81 208s-27 152 -81 207s-122 83 -204 83s-150 -28 -205 -83z" />
    <glyph glyph-name="Otilde" unicode="&#xd5;" horiz-adv-x="820" 
d="M308 758l-49 4c7 53 41 92 90 92c18 0 39 -7 63 -20c25 -13 43 -19 54 -19c24 0 39 14 46 41l49 -4c-7 -65 -38 -98 -92 -98c-19 0 -40 6 -65 19c-24 13 -42 20 -53 20c-23 0 -38 -12 -43 -35zM152 89c-70 69 -105 156 -105 259s35 189 105 258c71 69 157 104 258 104
s187 -35 257 -104c71 -69 106 -155 106 -258s-35 -190 -106 -259c-70 -69 -156 -103 -257 -103s-187 34 -258 103zM205 555c-54 -55 -81 -124 -81 -207s27 -153 81 -208c55 -55 123 -82 205 -82s150 27 204 82s81 125 81 208s-27 152 -81 207s-122 83 -204 83
s-150 -28 -205 -83z" />
    <glyph glyph-name="Odieresis" unicode="&#xd6;" horiz-adv-x="820" 
d="M548 758c-20 -19 -50 -19 -70 0c-20 20 -20 52 0 71c20 20 50 20 70 0c20 -19 20 -51 0 -71zM342 758c-20 -19 -50 -19 -70 0c-20 20 -20 52 0 71c20 20 50 20 70 0c20 -19 20 -51 0 -71zM152 89c-70 69 -105 156 -105 259s35 189 105 258c71 69 157 104 258 104
s187 -35 257 -104c71 -69 106 -155 106 -258s-35 -190 -106 -259c-70 -69 -156 -103 -257 -103s-187 34 -258 103zM205 555c-54 -55 -81 -124 -81 -207s27 -153 81 -208c55 -55 123 -82 205 -82s150 27 204 82s81 125 81 208s-27 152 -81 207s-122 83 -204 83
s-150 -28 -205 -83z" />
    <glyph glyph-name="multiply" unicode="&#xd7;" horiz-adv-x="384" 
d="M192 287l-109 -109l-45 47l108 108l-108 108l45 46l109 -109l108 109l46 -46l-108 -108l108 -108l-46 -47z" />
    <glyph glyph-name="Oslash" unicode="&#xd8;" horiz-adv-x="820" 
d="M171 -42l-57 42l55 74c-81 71 -122 162 -122 274c0 103 35 189 105 258c71 69 157 104 258 104c70 0 135 -18 194 -54l58 78l57 -43l-58 -78c75 -71 112 -159 112 -265c0 -103 -35 -190 -106 -259c-70 -69 -156 -103 -257 -103c-65 0 -126 16 -183 47zM213 133l348 464
c-45 27 -96 41 -151 41c-82 0 -150 -28 -205 -83c-54 -55 -81 -124 -81 -207c0 -88 30 -160 89 -215zM616 553l-345 -461c42 -23 88 -34 139 -34c82 0 150 27 204 82s81 125 81 208c0 82 -26 150 -79 205z" />
    <glyph glyph-name="Ugrave" unicode="&#xd9;" horiz-adv-x="696" 
d="M87 244v453h78v-445c0 -125 70 -192 183 -192s183 67 183 192v445h78v-453c0 -82 -24 -145 -72 -190c-48 -44 -111 -66 -189 -66s-141 22 -189 66c-48 45 -72 108 -72 190zM384 745h-59l-93 145h99z" />
    <glyph glyph-name="Uacute" unicode="&#xda;" horiz-adv-x="696" 
d="M87 244v453h78v-445c0 -125 70 -192 183 -192s183 67 183 192v445h78v-453c0 -82 -24 -145 -72 -190c-48 -44 -111 -66 -189 -66s-141 22 -189 66c-48 45 -72 108 -72 190zM374 745h-59l53 145h99z" />
    <glyph glyph-name="Ucircumflex" unicode="&#xdb;" horiz-adv-x="696" 
d="M282 769h-91l126 121h62l126 -121h-91l-66 66zM87 244v453h78v-445c0 -125 70 -192 183 -192s183 67 183 192v445h78v-453c0 -82 -24 -145 -72 -190c-48 -44 -111 -66 -189 -66s-141 22 -189 66c-48 45 -72 108 -72 190z" />
    <glyph glyph-name="Udieresis" unicode="&#xdc;" horiz-adv-x="696" 
d="M486 758c-20 -19 -50 -19 -70 0c-20 20 -20 52 0 71c20 20 50 20 70 0c20 -19 20 -51 0 -71zM280 758c-20 -19 -50 -19 -70 0c-20 20 -20 52 0 71c20 20 50 20 70 0c20 -19 20 -51 0 -71zM87 244v453h78v-445c0 -125 70 -192 183 -192s183 67 183 192v445h78v-453
c0 -82 -24 -145 -72 -190c-48 -44 -111 -66 -189 -66s-141 22 -189 66c-48 45 -72 108 -72 190z" />
    <glyph glyph-name="Yacute" unicode="&#xdd;" horiz-adv-x="622" 
d="M351 0h-78v286l-245 411h86l199 -334l197 334h84l-243 -411v-286zM338 745h-59l53 145h99z" />
    <glyph glyph-name="Thorn" unicode="&#xde;" horiz-adv-x="490" 
d="M170 0h-78v697h78v-149h65c136 0 214 -84 214 -205c0 -117 -75 -198 -207 -198h-72v-145zM170 475v-257h65c88 0 136 48 136 128c0 81 -48 129 -137 129h-64z" />
    <glyph glyph-name="germandbls" unicode="&#xdf;" horiz-adv-x="550" 
d="M134 0h-78v540c0 48 16 89 49 122s74 50 123 50c47 0 88 -17 121 -50s50 -74 50 -121c0 -43 -15 -80 -45 -110c43 -8 81 -31 115 -68s51 -86 51 -145c0 -66 -23 -121 -69 -166c-45 -45 -103 -67 -173 -67c-15 0 -32 2 -51 5v76c16 -6 33 -9 51 -9c45 0 84 16 116 47
s48 69 48 114c0 44 -16 81 -48 112s-71 47 -116 47c-18 0 -35 -3 -51 -9v70c63 12 94 46 94 102c0 55 -42 100 -93 100c-53 0 -94 -44 -94 -100v-540z" />
    <glyph glyph-name="agrave" unicode="&#xe0;" horiz-adv-x="629" 
d="M290 519c91 0 150 -39 179 -90v75h74v-391c0 -44 10 -63 38 -63c8 0 17 1 26 2v-56c-12 -5 -28 -8 -47 -8c-22 0 -40 5 -53 14c-19 15 -31 39 -34 72c-38 -59 -99 -89 -183 -89c-71 0 -132 25 -181 76s-74 115 -74 191s25 139 74 190s110 77 181 77zM290 54
c54 0 99 19 134 56c36 38 54 85 54 142s-18 104 -54 141c-35 38 -80 57 -134 57c-52 0 -95 -19 -130 -57c-34 -37 -51 -84 -51 -141s17 -104 51 -142c35 -37 78 -56 130 -56zM325 552h-59l-93 145h99z" />
    <glyph glyph-name="aacute" unicode="&#xe1;" horiz-adv-x="629" 
d="M290 519c91 0 150 -39 179 -90v75h74v-391c0 -44 10 -63 38 -63c8 0 17 1 26 2v-56c-12 -5 -28 -8 -47 -8c-22 0 -40 5 -53 14c-19 15 -31 39 -34 72c-38 -59 -99 -89 -183 -89c-71 0 -132 25 -181 76s-74 115 -74 191s25 139 74 190s110 77 181 77zM290 54
c54 0 99 19 134 56c36 38 54 85 54 142s-18 104 -54 141c-35 38 -80 57 -134 57c-52 0 -95 -19 -130 -57c-34 -37 -51 -84 -51 -141s17 -104 51 -142c35 -37 78 -56 130 -56zM320 552h-59l53 145h99z" />
    <glyph glyph-name="acircumflex" unicode="&#xe2;" horiz-adv-x="629" 
d="M241 576h-91l126 121h62l126 -121h-91l-66 66zM290 519c91 0 150 -39 179 -90v75h74v-391c0 -44 10 -63 38 -63c8 0 17 1 26 2v-56c-12 -5 -28 -8 -47 -8c-22 0 -40 5 -53 14c-19 15 -31 39 -34 72c-38 -59 -99 -89 -183 -89c-71 0 -132 25 -181 76s-74 115 -74 191
s25 139 74 190s110 77 181 77zM290 54c54 0 99 19 134 56c36 38 54 85 54 142s-18 104 -54 141c-35 38 -80 57 -134 57c-52 0 -95 -19 -130 -57c-34 -37 -51 -84 -51 -141s17 -104 51 -142c35 -37 78 -56 130 -56z" />
    <glyph glyph-name="atilde" unicode="&#xe3;" horiz-adv-x="629" 
d="M290 519c91 0 150 -39 179 -90v75h74v-391c0 -44 10 -63 38 -63c8 0 17 1 26 2v-56c-12 -5 -28 -8 -47 -8c-22 0 -40 5 -53 14c-19 15 -31 39 -34 72c-38 -59 -99 -89 -183 -89c-71 0 -132 25 -181 76s-74 115 -74 191s25 139 74 190s110 77 181 77zM290 54
c54 0 99 19 134 56c36 38 54 85 54 142s-18 104 -54 141c-35 38 -80 57 -134 57c-52 0 -95 -19 -130 -57c-34 -37 -51 -84 -51 -141s17 -104 51 -142c35 -37 78 -56 130 -56zM202 594l-49 4c7 53 41 92 90 92c18 0 39 -7 63 -20c25 -13 43 -19 54 -19c24 0 39 14 46 41
l49 -4c-7 -65 -38 -98 -92 -98c-19 0 -40 6 -65 19c-24 13 -42 20 -53 20c-23 0 -38 -12 -43 -35z" />
    <glyph glyph-name="adieresis" unicode="&#xe4;" horiz-adv-x="629" 
d="M440 600c-20 -19 -50 -19 -70 0c-20 20 -20 52 0 71c20 20 50 20 70 0c20 -19 20 -51 0 -71zM234 600c-20 -19 -50 -19 -70 0c-20 20 -20 52 0 71c20 20 50 20 70 0c20 -19 20 -51 0 -71zM290 519c91 0 150 -39 179 -90v75h74v-391c0 -44 10 -63 38 -63c8 0 17 1 26 2
v-56c-12 -5 -28 -8 -47 -8c-22 0 -40 5 -53 14c-19 15 -31 39 -34 72c-38 -59 -99 -89 -183 -89c-71 0 -132 25 -181 76s-74 115 -74 191s25 139 74 190s110 77 181 77zM290 54c54 0 99 19 134 56c36 38 54 85 54 142s-18 104 -54 141c-35 38 -80 57 -134 57
c-52 0 -95 -19 -130 -57c-34 -37 -51 -84 -51 -141s17 -104 51 -142c35 -37 78 -56 130 -56z" />
    <glyph glyph-name="aring" unicode="&#xe5;" horiz-adv-x="629" 
d="M305 556c-85 -5 -132 112 -69 166c56 64 171 15 166 -68c0 -55 -44 -98 -97 -98zM272 621c19 -19 48 -19 65 0c19 19 19 48 0 65c-17 19 -46 19 -65 0c-19 -17 -19 -46 0 -65zM290 519c91 0 150 -39 179 -90v75h74v-391c0 -44 10 -63 38 -63c8 0 17 1 26 2v-56
c-12 -5 -28 -8 -47 -8c-22 0 -40 5 -53 14c-19 15 -31 39 -34 72c-38 -59 -99 -89 -183 -89c-71 0 -132 25 -181 76s-74 115 -74 191s25 139 74 190s110 77 181 77zM290 54c54 0 99 19 134 56c36 38 54 85 54 142s-18 104 -54 141c-35 38 -80 57 -134 57
c-52 0 -95 -19 -130 -57c-34 -37 -51 -84 -51 -141s17 -104 51 -142c35 -37 78 -56 130 -56z" />
    <glyph glyph-name="ae" unicode="&#xe6;" horiz-adv-x="999" 
d="M290 519c91 0 150 -39 179 -90v75h74v-90c33 60 109 105 185 105c66 0 122 -26 168 -77s69 -114 69 -190c0 -5 0 -11 -1 -16h-409c4 -111 71 -182 175 -182c71 0 108 21 160 70l49 -48c-55 -61 -125 -91 -209 -91c-85 0 -152 36 -187 93v-78h-74v75
c-29 -51 -88 -90 -179 -90c-71 0 -132 25 -181 76s-74 115 -74 191s25 139 74 190s110 77 181 77zM290 54c54 0 99 19 134 56c36 38 54 85 54 142s-18 104 -54 141c-35 38 -80 57 -134 57c-52 0 -95 -19 -130 -57c-34 -37 -51 -84 -51 -141s17 -104 51 -142
c35 -37 78 -56 130 -56zM560 301h326c-16 88 -79 149 -158 149c-84 0 -151 -61 -168 -149z" />
    <glyph glyph-name="ccedilla" unicode="&#xe7;" horiz-adv-x="517" 
d="M35 252c0 76 26 139 78 190s115 77 190 77c78 0 142 -25 191 -76l-45 -52c-38 39 -87 59 -146 59c-56 0 -102 -19 -139 -57c-37 -37 -55 -84 -55 -141s18 -104 55 -142c37 -37 83 -56 139 -56c59 0 108 20 146 59l45 -52c-49 -51 -113 -76 -191 -76h-9l-14 -31
c37 0 66 -28 66 -71c0 -54 -34 -81 -103 -81c-30 0 -55 8 -74 23l19 39c19 -11 37 -17 54 -17c25 0 44 15 44 36c0 32 -22 41 -73 41l28 68c-60 13 -109 44 -148 91c-39 48 -58 104 -58 169z" />
    <glyph glyph-name="egrave" unicode="&#xe8;" horiz-adv-x="551" 
d="M35 246v4c0 81 24 146 71 195s108 74 181 74c69 0 124 -24 167 -73c43 -48 65 -107 65 -178c0 -11 0 -22 -1 -32h-409c4 -111 75 -182 180 -182c69 0 110 22 155 70l49 -48c-53 -59 -121 -89 -204 -89c-75 0 -137 24 -184 71s-70 110 -70 188zM114 301h326
c0 41 -15 76 -45 105s-66 44 -108 44c-46 0 -86 -15 -119 -44s-51 -64 -54 -105zM331 552h-59l-93 145h99z" />
    <glyph glyph-name="eacute" unicode="&#xe9;" horiz-adv-x="551" 
d="M35 246v4c0 81 24 146 71 195s108 74 181 74c69 0 124 -24 167 -73c43 -48 65 -107 65 -178c0 -11 0 -22 -1 -32h-409c4 -111 75 -182 180 -182c69 0 110 22 155 70l49 -48c-53 -59 -121 -89 -204 -89c-75 0 -137 24 -184 71s-70 110 -70 188zM114 301h326
c0 41 -15 76 -45 105s-66 44 -108 44c-46 0 -86 -15 -119 -44s-51 -64 -54 -105zM317 552h-59l53 145h99z" />
    <glyph glyph-name="ecircumflex" unicode="&#xea;" horiz-adv-x="551" 
d="M223 576h-91l126 121h62l126 -121h-91l-66 66zM35 246v4c0 81 24 146 71 195s108 74 181 74c69 0 124 -24 167 -73c43 -48 65 -107 65 -178c0 -11 0 -22 -1 -32h-409c4 -111 75 -182 180 -182c69 0 110 22 155 70l49 -48c-53 -59 -121 -89 -204 -89
c-75 0 -137 24 -184 71s-70 110 -70 188zM114 301h326c0 41 -15 76 -45 105s-66 44 -108 44c-46 0 -86 -15 -119 -44s-51 -64 -54 -105z" />
    <glyph glyph-name="edieresis" unicode="&#xeb;" horiz-adv-x="551" 
d="M426 600c-20 -19 -50 -19 -70 0c-20 20 -20 52 0 71c20 20 50 20 70 0c20 -19 20 -51 0 -71zM220 600c-20 -19 -50 -19 -70 0c-20 20 -20 52 0 71c20 20 50 20 70 0c20 -19 20 -51 0 -71zM35 246v4c0 81 24 146 71 195s108 74 181 74c69 0 124 -24 167 -73
c43 -48 65 -107 65 -178c0 -11 0 -22 -1 -32h-409c4 -111 75 -182 180 -182c69 0 110 22 155 70l49 -48c-53 -59 -121 -89 -204 -89c-75 0 -137 24 -184 71s-70 110 -70 188zM114 301h326c0 41 -15 76 -45 105s-66 44 -108 44c-46 0 -86 -15 -119 -44s-51 -64 -54 -105z" />
    <glyph glyph-name="igrave" unicode="&#xec;" horiz-adv-x="212" 
d="M58 95v409h74v-396c0 -37 10 -53 38 -53c8 0 17 1 26 2v-61c-12 -5 -28 -8 -47 -8c-61 0 -91 36 -91 107zM131 552h-59l-93 145h99z" />
    <glyph glyph-name="iacute" unicode="&#xed;" horiz-adv-x="212" 
d="M58 95v409h74v-396c0 -37 10 -53 38 -53c8 0 17 1 26 2v-61c-12 -5 -28 -8 -47 -8c-61 0 -91 36 -91 107zM119 552h-59l53 145h99z" />
    <glyph glyph-name="icircumflex" unicode="&#xee;" horiz-adv-x="212" 
d="M49 576h-86l101 121h62l101 -121h-86l-46 72zM58 95v409h74v-396c0 -37 10 -53 38 -53c8 0 17 1 26 2v-61c-12 -5 -28 -8 -47 -8c-61 0 -91 36 -91 107z" />
    <glyph glyph-name="idieresis" unicode="&#xef;" horiz-adv-x="212" 
d="M58 95v409h74v-396c0 -37 10 -53 38 -53c8 0 17 1 26 2v-61c-12 -5 -28 -8 -47 -8c-61 0 -91 36 -91 107zM202 600c-20 -19 -50 -19 -70 0c-20 20 -20 52 0 71c20 20 50 20 70 0c20 -19 20 -51 0 -71zM58 600c-20 -19 -50 -19 -70 0c-20 20 -20 52 0 71c20 20 50 20 70 0
c20 -19 20 -51 0 -71z" />
    <glyph glyph-name="eth" unicode="&#xf0;" horiz-adv-x="536" 
d="M35 217c0 65 22 120 66 165c45 45 97 67 157 67c64 0 125 -27 156 -70c-21 67 -78 136 -131 177l-78 -74l-48 51l67 64c-40 23 -80 39 -119 46l14 70c52 -9 105 -31 160 -64l85 80l48 -51l-75 -71c84 -70 136 -157 155 -262c6 -35 9 -69 9 -101c0 -78 -21 -141 -62 -188
s-98 -71 -171 -71c-65 0 -121 22 -166 66s-67 99 -67 166zM157 331c-29 -31 -44 -69 -44 -114s15 -83 44 -114s66 -46 111 -46s82 15 111 46s44 69 44 114s-15 83 -44 114s-66 46 -111 46s-82 -15 -111 -46z" />
    <glyph glyph-name="ntilde" unicode="&#xf1;" horiz-adv-x="554" 
d="M131 0h-74v504h74v-85c27 56 84 93 159 93c113 0 184 -75 184 -190v-208c0 -41 6 -53 35 -53c5 0 11 1 19 2v-61c-8 -3 -19 -5 -32 -5c-39 0 -96 11 -96 112v197c0 84 -49 137 -129 137c-83 0 -140 -58 -140 -142v-301zM177 594l-49 4c7 53 41 92 90 92
c18 0 39 -7 63 -20c25 -13 43 -19 54 -19c24 0 39 14 46 41l49 -4c-7 -65 -38 -98 -92 -98c-19 0 -40 6 -65 19c-24 13 -42 20 -53 20c-23 0 -38 -12 -43 -35z" />
    <glyph glyph-name="ograve" unicode="&#xf2;" horiz-adv-x="606" 
d="M113 61c-52 51 -78 115 -78 191s26 139 78 190s115 77 190 77s138 -26 190 -77s78 -114 78 -190s-26 -140 -78 -191s-115 -76 -190 -76s-138 25 -190 76zM164 393c-37 -37 -55 -84 -55 -141s18 -104 55 -142c37 -37 83 -56 139 -56s102 19 139 56c37 38 55 85 55 142
s-18 104 -55 141c-37 38 -83 57 -139 57s-102 -19 -139 -57zM331 552h-59l-93 145h99z" />
    <glyph glyph-name="oacute" unicode="&#xf3;" horiz-adv-x="606" 
d="M113 61c-52 51 -78 115 -78 191s26 139 78 190s115 77 190 77s138 -26 190 -77s78 -114 78 -190s-26 -140 -78 -191s-115 -76 -190 -76s-138 25 -190 76zM164 393c-37 -37 -55 -84 -55 -141s18 -104 55 -142c37 -37 83 -56 139 -56s102 19 139 56c37 38 55 85 55 142
s-18 104 -55 141c-37 38 -83 57 -139 57s-102 -19 -139 -57zM334 552h-59l53 145h99z" />
    <glyph glyph-name="ocircumflex" unicode="&#xf4;" horiz-adv-x="606" 
d="M237 576h-91l126 121h62l126 -121h-91l-66 66zM113 61c-52 51 -78 115 -78 191s26 139 78 190s115 77 190 77s138 -26 190 -77s78 -114 78 -190s-26 -140 -78 -191s-115 -76 -190 -76s-138 25 -190 76zM164 393c-37 -37 -55 -84 -55 -141s18 -104 55 -142
c37 -37 83 -56 139 -56s102 19 139 56c37 38 55 85 55 142s-18 104 -55 141c-37 38 -83 57 -139 57s-102 -19 -139 -57z" />
    <glyph glyph-name="otilde" unicode="&#xf5;" horiz-adv-x="606" 
d="M200 594l-49 4c7 53 41 92 90 92c18 0 39 -7 63 -20c25 -13 43 -19 54 -19c24 0 39 14 46 41l49 -4c-7 -65 -38 -98 -92 -98c-19 0 -40 6 -65 19c-24 13 -42 20 -53 20c-23 0 -38 -12 -43 -35zM113 61c-52 51 -78 115 -78 191s26 139 78 190s115 77 190 77
s138 -26 190 -77s78 -114 78 -190s-26 -140 -78 -191s-115 -76 -190 -76s-138 25 -190 76zM164 393c-37 -37 -55 -84 -55 -141s18 -104 55 -142c37 -37 83 -56 139 -56s102 19 139 56c37 38 55 85 55 142s-18 104 -55 141c-37 38 -83 57 -139 57s-102 -19 -139 -57z" />
    <glyph glyph-name="odieresis" unicode="&#xf6;" horiz-adv-x="606" 
d="M441 600c-20 -19 -50 -19 -70 0c-20 20 -20 52 0 71c20 20 50 20 70 0c20 -19 20 -51 0 -71zM235 600c-20 -19 -50 -19 -70 0c-20 20 -20 52 0 71c20 20 50 20 70 0c20 -19 20 -51 0 -71zM113 61c-52 51 -78 115 -78 191s26 139 78 190s115 77 190 77s138 -26 190 -77
s78 -114 78 -190s-26 -140 -78 -191s-115 -76 -190 -76s-138 25 -190 76zM164 393c-37 -37 -55 -84 -55 -141s18 -104 55 -142c37 -37 83 -56 139 -56s102 19 139 56c37 38 55 85 55 142s-18 104 -55 141c-37 38 -83 57 -139 57s-102 -19 -139 -57z" />
    <glyph glyph-name="divide" unicode="&#xf7;" horiz-adv-x="426" 
d="M248 450c-20 -19 -50 -19 -70 0c-20 20 -20 52 0 71c20 20 50 20 70 0c20 -19 20 -51 0 -71zM384 313h-342v69h342v-69zM248 173c-20 -19 -50 -19 -70 0c-20 20 -20 52 0 71c20 20 50 20 70 0c20 -19 20 -51 0 -71z" />
    <glyph glyph-name="oslash" unicode="&#xf8;" horiz-adv-x="606" 
d="M132 -39l-53 40l40 54c-56 52 -84 118 -84 197c0 76 26 139 78 190s115 77 190 77c47 0 91 -11 132 -33l37 51l54 -39l-38 -50c55 -52 83 -117 83 -196c0 -76 -26 -140 -78 -191s-115 -76 -190 -76c-46 0 -89 11 -130 32zM162 113l231 316c-28 14 -58 21 -90 21
c-56 0 -102 -19 -139 -57c-37 -37 -55 -84 -55 -141c0 -55 18 -102 53 -139zM446 389l-231 -315c27 -13 56 -20 88 -20c56 0 102 19 139 56c37 38 55 85 55 142c0 54 -17 100 -51 137z" />
    <glyph glyph-name="ugrave" unicode="&#xf9;" horiz-adv-x="547" 
d="M51 182v322h74v-306c0 -84 48 -137 125 -137c80 0 137 58 137 142v301h74v-387c0 -44 10 -63 38 -63c8 0 17 1 26 2v-56c-11 -5 -26 -8 -47 -8c-27 0 -48 8 -62 23c-12 13 -20 29 -23 50c-32 -49 -86 -73 -161 -73c-111 0 -181 75 -181 190zM296 552h-59l-93 145h99z" />
    <glyph glyph-name="uacute" unicode="&#xfa;" horiz-adv-x="547" 
d="M51 182v322h74v-306c0 -84 48 -137 125 -137c80 0 137 58 137 142v301h74v-387c0 -44 10 -63 38 -63c8 0 17 1 26 2v-56c-11 -5 -26 -8 -47 -8c-27 0 -48 8 -62 23c-12 13 -20 29 -23 50c-32 -49 -86 -73 -161 -73c-111 0 -181 75 -181 190zM287 552h-59l53 145h99z" />
    <glyph glyph-name="ucircumflex" unicode="&#xfb;" horiz-adv-x="547" 
d="M197 576h-91l126 121h62l126 -121h-91l-66 66zM51 182v322h74v-306c0 -84 48 -137 125 -137c80 0 137 58 137 142v301h74v-387c0 -44 10 -63 38 -63c8 0 17 1 26 2v-56c-11 -5 -26 -8 -47 -8c-27 0 -48 8 -62 23c-12 13 -20 29 -23 50c-32 -49 -86 -73 -161 -73
c-111 0 -181 75 -181 190z" />
    <glyph glyph-name="udieresis" unicode="&#xfc;" horiz-adv-x="547" 
d="M401 600c-20 -19 -50 -19 -70 0c-20 20 -20 52 0 71c20 20 50 20 70 0c20 -19 20 -51 0 -71zM195 600c-20 -19 -50 -19 -70 0c-20 20 -20 52 0 71c20 20 50 20 70 0c20 -19 20 -51 0 -71zM51 182v322h74v-306c0 -84 48 -137 125 -137c80 0 137 58 137 142v301h74v-387
c0 -44 10 -63 38 -63c8 0 17 1 26 2v-56c-11 -5 -26 -8 -47 -8c-27 0 -48 8 -62 23c-12 13 -20 29 -23 50c-32 -49 -86 -73 -161 -73c-111 0 -181 75 -181 190z" />
    <glyph glyph-name="yacute" unicode="&#xfd;" horiz-adv-x="502" 
d="M64 -200v68c14 -5 31 -8 50 -8c17 0 32 4 43 11c15 11 28 31 40 61l22 57l-204 515h74l166 -425l160 425h74l-228 -590c-14 -37 -30 -65 -49 -85c-25 -25 -57 -38 -98 -38c-19 0 -36 3 -50 9zM282 552h-59l53 145h99z" />
    <glyph glyph-name="thorn" unicode="&#xfe;" horiz-adv-x="600" 
d="M131 -193h-74v890h74v-268c29 51 88 90 179 90c71 0 132 -26 181 -77s74 -114 74 -190s-25 -140 -74 -191s-110 -76 -181 -76c-91 0 -150 39 -179 90v-268zM310 54c52 0 95 19 129 56c35 38 52 85 52 142s-17 104 -52 141c-34 38 -77 57 -129 57c-54 0 -99 -19 -135 -57
c-35 -37 -53 -84 -53 -141s18 -104 53 -142c36 -37 81 -56 135 -56z" />
    <glyph glyph-name="ydieresis" unicode="&#xff;" horiz-adv-x="502" 
d="M396 600c-20 -19 -50 -19 -70 0c-20 20 -20 52 0 71c20 20 50 20 70 0c20 -19 20 -51 0 -71zM190 600c-20 -19 -50 -19 -70 0c-20 20 -20 52 0 71c20 20 50 20 70 0c20 -19 20 -51 0 -71zM64 -200v68c14 -5 31 -8 50 -8c17 0 32 4 43 11c15 11 28 31 40 61l22 57
l-204 515h74l166 -425l160 425h74l-228 -590c-14 -37 -30 -65 -49 -85c-25 -25 -57 -38 -98 -38c-19 0 -36 3 -50 9z" />
    <glyph glyph-name="Amacron" unicode="&#x100;" horiz-adv-x="720" 
d="M119 0h-84l295 697h60l295 -697h-84l-72 172h-338zM360 576l-139 -332h278zM507 769h-294v69h294v-69z" />
    <glyph glyph-name="amacron" unicode="&#x101;" horiz-adv-x="629" 
d="M290 519c91 0 150 -39 179 -90v75h74v-391c0 -44 10 -63 38 -63c8 0 17 1 26 2v-56c-12 -5 -28 -8 -47 -8c-22 0 -40 5 -53 14c-19 15 -31 39 -34 72c-38 -59 -99 -89 -183 -89c-71 0 -132 25 -181 76s-74 115 -74 191s25 139 74 190s110 77 181 77zM290 54
c54 0 99 19 134 56c36 38 54 85 54 142s-18 104 -54 141c-35 38 -80 57 -134 57c-52 0 -95 -19 -130 -57c-34 -37 -51 -84 -51 -141s17 -104 51 -142c35 -37 78 -56 130 -56zM454 601h-294v69h294v-69z" />
    <glyph glyph-name="Abreve" unicode="&#x102;" horiz-adv-x="720" 
d="M119 0h-84l295 697h60l295 -697h-84l-72 172h-338zM360 576l-139 -332h278zM204 890h69c15 -49 44 -73 87 -73s72 24 87 73h69c-11 -84 -76 -139 -156 -139s-145 55 -156 139z" />
    <glyph glyph-name="abreve" unicode="&#x103;" horiz-adv-x="629" 
d="M290 519c91 0 150 -39 179 -90v75h74v-391c0 -44 10 -63 38 -63c8 0 17 1 26 2v-56c-12 -5 -28 -8 -47 -8c-22 0 -40 5 -53 14c-19 15 -31 39 -34 72c-38 -59 -99 -89 -183 -89c-71 0 -132 25 -181 76s-74 115 -74 191s25 139 74 190s110 77 181 77zM290 54
c54 0 99 19 134 56c36 38 54 85 54 142s-18 104 -54 141c-35 38 -80 57 -134 57c-52 0 -95 -19 -130 -57c-34 -37 -51 -84 -51 -141s17 -104 51 -142c35 -37 78 -56 130 -56zM135 697h69c15 -49 44 -73 87 -73s72 24 87 73h69c-11 -84 -76 -139 -156 -139s-145 55 -156 139z
" />
    <glyph glyph-name="Aogonek" unicode="&#x104;" horiz-adv-x="720" 
d="M119 0h-84l295 697h60l295 -697c-20 -7 -39 -20 -56 -39s-26 -37 -26 -56c0 -29 22 -45 50 -45c21 0 40 5 58 15l-13 -59c-19 -9 -38 -14 -57 -14c-55 0 -101 36 -101 89c0 39 21 72 64 101l-1 2l-75 178h-337zM360 576l-139 -332h277z" />
    <glyph glyph-name="aogonek" unicode="&#x105;" horiz-adv-x="629" 
d="M290 519c91 0 150 -39 179 -90v75h74v-391c0 -44 10 -63 38 -63c8 0 17 1 26 2v-56c-52 -20 -96 -54 -96 -91c0 -29 22 -45 50 -45c21 0 40 5 58 15l-13 -59c-19 -9 -38 -14 -57 -14c-55 0 -101 36 -101 89c0 47 32 85 76 102c-5 1 -10 4 -17 9c-19 15 -31 39 -34 72
c-38 -59 -99 -89 -183 -89c-71 0 -132 25 -181 76s-74 115 -74 191s25 139 74 190s110 77 181 77zM290 54c54 0 99 19 134 56c36 38 54 85 54 142s-18 104 -54 141c-35 38 -80 57 -134 57c-52 0 -95 -19 -130 -57c-34 -37 -51 -84 -51 -141s17 -104 51 -142
c35 -37 78 -56 130 -56z" />
    <glyph glyph-name="Cacute" unicode="&#x106;" horiz-adv-x="711" 
d="M410 710c107 0 196 -39 266 -118l-53 -48c-54 63 -125 94 -213 94c-82 0 -150 -28 -204 -83s-81 -124 -81 -207s27 -153 81 -208s122 -82 204 -82c90 0 162 33 216 98l53 -48c-70 -81 -160 -122 -269 -122c-101 0 -187 34 -258 103c-70 69 -105 156 -105 259
s35 189 105 258c71 69 157 104 258 104zM435 745h-59l53 145h99z" />
    <glyph glyph-name="cacute" unicode="&#x107;" horiz-adv-x="517" 
d="M303 519c78 0 142 -25 191 -76l-45 -52c-38 39 -87 59 -146 59c-56 0 -102 -19 -139 -57c-37 -37 -55 -84 -55 -141s18 -104 55 -142c37 -37 83 -56 139 -56c59 0 108 20 146 59l45 -52c-49 -51 -113 -76 -191 -76c-75 0 -138 25 -190 76s-78 115 -78 191s26 139 78 190
s115 77 190 77zM329 552h-59l53 145h99z" />
    <glyph glyph-name="Ccircumflex" unicode="&#x108;" horiz-adv-x="711" 
d="M352 769h-91l126 121h62l126 -121h-91l-66 66zM410 710c107 0 196 -39 266 -118l-53 -48c-54 63 -125 94 -213 94c-82 0 -150 -28 -204 -83s-81 -124 -81 -207s27 -153 81 -208s122 -82 204 -82c90 0 162 33 216 98l53 -48c-70 -81 -160 -122 -269 -122
c-101 0 -187 34 -258 103c-70 69 -105 156 -105 259s35 189 105 258c71 69 157 104 258 104z" />
    <glyph glyph-name="ccircumflex" unicode="&#x109;" horiz-adv-x="517" 
d="M238 576h-91l126 121h62l126 -121h-91l-66 66zM303 519c78 0 142 -25 191 -76l-45 -52c-38 39 -87 59 -146 59c-56 0 -102 -19 -139 -57c-37 -37 -55 -84 -55 -141s18 -104 55 -142c37 -37 83 -56 139 -56c59 0 108 20 146 59l45 -52c-49 -51 -113 -76 -191 -76
c-75 0 -138 25 -190 76s-78 115 -78 191s26 139 78 190s115 77 190 77z" />
    <glyph glyph-name="Cdotaccent" unicode="&#x10a;" horiz-adv-x="711" 
d="M410 710c107 0 196 -39 266 -118l-53 -48c-54 63 -125 94 -213 94c-82 0 -150 -28 -204 -83s-81 -124 -81 -207s27 -153 81 -208s122 -82 204 -82c90 0 162 33 216 98l53 -48c-70 -81 -160 -122 -269 -122c-101 0 -187 34 -258 103c-70 69 -105 156 -105 259
s35 189 105 258c71 69 157 104 258 104zM440 777c-20 -19 -50 -19 -70 0c-20 20 -20 52 0 71c20 20 50 20 70 0c20 -19 20 -51 0 -71z" />
    <glyph glyph-name="cdotaccent" unicode="&#x10b;" horiz-adv-x="517" 
d="M303 519c78 0 142 -25 191 -76l-45 -52c-38 39 -87 59 -146 59c-56 0 -102 -19 -139 -57c-37 -37 -55 -84 -55 -141s18 -104 55 -142c37 -37 83 -56 139 -56c59 0 108 20 146 59l45 -52c-49 -51 -113 -76 -191 -76c-75 0 -138 25 -190 76s-78 115 -78 191s26 139 78 190
s115 77 190 77zM335 590c-20 -19 -50 -19 -70 0c-20 20 -20 52 0 71c20 20 50 20 70 0c20 -19 20 -51 0 -71z" />
    <glyph glyph-name="Ccaron" unicode="&#x10c;" horiz-adv-x="711" 
d="M442 769h-62l-126 121h91l66 -66l66 66h91zM410 710c107 0 196 -39 266 -118l-53 -48c-54 63 -125 94 -213 94c-82 0 -150 -28 -204 -83s-81 -124 -81 -207s27 -153 81 -208s122 -82 204 -82c90 0 162 33 216 98l53 -48c-70 -81 -160 -122 -269 -122
c-101 0 -187 34 -258 103c-70 69 -105 156 -105 259s35 189 105 258c71 69 157 104 258 104z" />
    <glyph glyph-name="ccaron" unicode="&#x10d;" horiz-adv-x="517" 
d="M331 576h-62l-126 121h91l66 -66l66 66h91zM303 519c78 0 142 -25 191 -76l-45 -52c-38 39 -87 59 -146 59c-56 0 -102 -19 -139 -57c-37 -37 -55 -84 -55 -141s18 -104 55 -142c37 -37 83 -56 139 -56c59 0 108 20 146 59l45 -52c-49 -51 -113 -76 -191 -76
c-75 0 -138 25 -190 76s-78 115 -78 191s26 139 78 190s115 77 190 77z" />
    <glyph glyph-name="Dcaron" unicode="&#x10e;" horiz-adv-x="726" 
d="M386 769h-62l-126 121h91l66 -66l66 66h91zM317 0h-225v697h224c111 0 199 -32 263 -96c65 -64 97 -148 97 -253s-32 -189 -96 -253c-64 -63 -152 -95 -263 -95zM170 625v-553h141c188 0 287 108 287 276c0 169 -99 277 -288 277h-140z" />
    <glyph glyph-name="dcaron" unicode="&#x10f;" horiz-adv-x="777" 
d="M290 519c91 0 150 -39 179 -90v268h74v-584c0 -44 10 -63 38 -63c8 0 17 1 26 2v-56c-12 -5 -28 -8 -47 -8c-22 0 -40 5 -53 14c-19 15 -31 39 -34 72c-38 -59 -99 -89 -183 -89c-71 0 -132 25 -181 76s-74 115 -74 191s25 139 74 190s110 77 181 77zM290 54
c54 0 99 19 134 56c36 38 54 85 54 142s-18 104 -54 141c-35 38 -80 57 -134 57c-52 0 -95 -19 -130 -57c-34 -37 -51 -84 -51 -141s17 -104 51 -142c35 -37 78 -56 130 -56zM637 552h-59l53 145h99z" />
    <glyph glyph-name="Dcroat" unicode="&#x110;" horiz-adv-x="722" 
d="M317 0h-225v322h-65v72h65v303h224c111 0 199 -32 263 -96c65 -64 97 -148 97 -253s-32 -189 -96 -253c-64 -63 -152 -95 -263 -95zM170 322v-250h141c188 0 287 108 287 276c0 169 -99 277 -288 277h-140v-231h145v-72h-145z" />
    <glyph glyph-name="dslash" unicode="&#x111;" horiz-adv-x="629" 
d="M290 519c91 0 150 -39 179 -90v146h-198v60h198v62h74v-62h57v-60h-57v-462c0 -44 10 -63 38 -63c8 0 17 1 26 2v-56c-12 -5 -28 -8 -47 -8c-22 0 -40 5 -53 14c-19 15 -31 39 -34 72c-38 -59 -99 -89 -183 -89c-71 0 -132 25 -181 76s-74 115 -74 191s25 139 74 190
s110 77 181 77zM290 54c54 0 99 19 134 56c36 38 54 85 54 142s-18 104 -54 141c-35 38 -80 57 -134 57c-52 0 -95 -19 -130 -57c-34 -37 -51 -84 -51 -141s17 -104 51 -142c35 -37 78 -56 130 -56z" />
    <glyph glyph-name="Emacron" unicode="&#x112;" horiz-adv-x="549" 
d="M493 0h-401v697h394v-72h-316v-221h297v-72h-297v-260h323v-72zM434 769h-294v69h294v-69z" />
    <glyph glyph-name="emacron" unicode="&#x113;" horiz-adv-x="551" 
d="M35 246v4c0 81 24 146 71 195s108 74 181 74c69 0 124 -24 167 -73c43 -48 65 -107 65 -178c0 -11 0 -22 -1 -32h-409c4 -111 75 -182 180 -182c69 0 110 22 155 70l49 -48c-53 -59 -121 -89 -204 -89c-75 0 -137 24 -184 71s-70 110 -70 188zM114 301h326
c0 41 -15 76 -45 105s-66 44 -108 44c-46 0 -86 -15 -119 -44s-51 -64 -54 -105zM436 601h-294v69h294v-69z" />
    <glyph glyph-name="Ebreve" unicode="&#x114;" horiz-adv-x="549" 
d="M493 0h-401v697h394v-72h-316v-221h297v-72h-297v-260h323v-72zM136 890h69c15 -49 44 -73 87 -73s72 24 87 73h69c-11 -84 -76 -139 -156 -139s-145 55 -156 139z" />
    <glyph glyph-name="ebreve" unicode="&#x115;" horiz-adv-x="551" 
d="M35 246v4c0 81 24 146 71 195s108 74 181 74c69 0 124 -24 167 -73c43 -48 65 -107 65 -178c0 -11 0 -22 -1 -32h-409c4 -111 75 -182 180 -182c69 0 110 22 155 70l49 -48c-53 -59 -121 -89 -204 -89c-75 0 -137 24 -184 71s-70 110 -70 188zM114 301h326
c0 41 -15 76 -45 105s-66 44 -108 44c-46 0 -86 -15 -119 -44s-51 -64 -54 -105zM132 697h69c15 -49 44 -73 87 -73s72 24 87 73h69c-11 -84 -76 -139 -156 -139s-145 55 -156 139z" />
    <glyph glyph-name="Edotaccent" unicode="&#x116;" horiz-adv-x="549" 
d="M493 0h-401v697h394v-72h-316v-221h297v-72h-297v-260h323v-72zM328 777c-20 -19 -50 -19 -70 0c-20 20 -20 52 0 71c20 20 50 20 70 0c20 -19 20 -51 0 -71z" />
    <glyph glyph-name="edotaccent" unicode="&#x117;" horiz-adv-x="551" 
d="M35 246v4c0 81 24 146 71 195s108 74 181 74c69 0 124 -24 167 -73c43 -48 65 -107 65 -178c0 -11 0 -22 -1 -32h-409c4 -111 75 -182 180 -182c69 0 110 22 155 70l49 -48c-53 -59 -121 -89 -204 -89c-75 0 -137 24 -184 71s-70 110 -70 188zM114 301h326
c0 41 -15 76 -45 105s-66 44 -108 44c-46 0 -86 -15 -119 -44s-51 -64 -54 -105zM323 600c-20 -19 -50 -19 -70 0c-20 20 -20 52 0 71c20 20 50 20 70 0c20 -19 20 -51 0 -71z" />
    <glyph glyph-name="Eogonek" unicode="&#x118;" horiz-adv-x="549" 
d="M429 0h-337v697h394v-72h-316v-221h297v-72h-297v-260h323v-72c-51 -32 -76 -64 -76 -95c0 -29 22 -45 50 -45c21 0 40 5 58 15l-13 -59c-19 -9 -38 -14 -57 -14c-55 0 -101 36 -101 89c0 41 25 78 75 109z" />
    <glyph glyph-name="eogonek" unicode="&#x119;" horiz-adv-x="551" 
d="M35 246v4c0 81 24 146 71 195s108 74 181 74c69 0 124 -24 167 -73c43 -48 65 -107 65 -178c0 -11 0 -22 -1 -32h-409c4 -111 75 -182 180 -182c69 0 110 22 155 70l49 -48c-18 -19 -44 -39 -79 -62c-3 -1 -10 -6 -21 -13c-21 -13 -23 -15 -40 -28
c-20 -19 -32 -36 -32 -64c0 -29 21 -45 48 -45c19 0 38 5 56 15l-13 -59c-19 -9 -37 -14 -55 -14c-52 0 -99 36 -99 89c0 35 17 65 51 92h-1c-168 0 -273 92 -273 259zM114 301h326c0 41 -15 76 -45 105s-66 44 -108 44c-46 0 -86 -15 -119 -44s-51 -64 -54 -105z" />
    <glyph glyph-name="Ecaron" unicode="&#x11a;" horiz-adv-x="549" 
d="M328 769h-62l-126 121h91l66 -66l66 66h91zM493 0h-401v697h394v-72h-316v-221h297v-72h-297v-260h323v-72z" />
    <glyph glyph-name="ecaron" unicode="&#x11b;" horiz-adv-x="551" 
d="M315 576h-62l-126 121h91l66 -66l66 66h91zM35 246v4c0 81 24 146 71 195s108 74 181 74c69 0 124 -24 167 -73c43 -48 65 -107 65 -178c0 -11 0 -22 -1 -32h-409c4 -111 75 -182 180 -182c69 0 110 22 155 70l49 -48c-53 -59 -121 -89 -204 -89c-75 0 -137 24 -184 71
s-70 110 -70 188zM114 301h326c0 41 -15 76 -45 105s-66 44 -108 44c-46 0 -86 -15 -119 -44s-51 -64 -54 -105z" />
    <glyph glyph-name="Gcircumflex" unicode="&#x11c;" horiz-adv-x="740" 
d="M343 769h-91l126 121h62l126 -121h-91l-66 66zM410 710c95 0 175 -30 241 -91l-49 -54c-53 49 -117 73 -192 73c-82 0 -150 -28 -204 -83s-81 -124 -81 -207s27 -153 81 -208s122 -82 204 -82c74 0 138 23 191 70v180h-213v72h291v-279c-71 -77 -161 -115 -269 -115
c-101 0 -187 34 -258 103c-70 69 -105 156 -105 259s35 189 105 258c71 69 157 104 258 104z" />
    <glyph glyph-name="gcircumflex" unicode="&#x11d;" horiz-adv-x="600" 
d="M234 576h-91l126 121h62l126 -121h-91l-66 66zM54 -143l38 59c62 -45 129 -67 200 -67c53 0 94 12 125 37c35 29 52 81 52 156v42c-29 -51 -88 -90 -179 -90c-71 0 -132 25 -181 74c-49 50 -74 113 -74 188s25 138 74 188s110 75 181 75c91 0 150 -39 179 -90v75h74v-420
c0 -65 -5 -117 -15 -154c-9 -38 -31 -70 -65 -97c-45 -35 -101 -53 -170 -53c-89 0 -168 26 -239 77zM290 63c54 0 99 18 134 55c36 37 54 83 54 138s-18 101 -54 138c-35 37 -80 56 -134 56c-52 0 -95 -19 -130 -56c-34 -37 -51 -83 -51 -138s17 -101 51 -138
c35 -37 78 -55 130 -55z" />
    <glyph glyph-name="Gbreve" unicode="&#x11e;" horiz-adv-x="740" 
d="M410 710c95 0 175 -30 241 -91l-49 -54c-53 49 -117 73 -192 73c-82 0 -150 -28 -204 -83s-81 -124 -81 -207s27 -153 81 -208s122 -82 204 -82c74 0 138 23 191 70v180h-213v72h291v-279c-71 -77 -161 -115 -269 -115c-101 0 -187 34 -258 103c-70 69 -105 156 -105 259
s35 189 105 258c71 69 157 104 258 104zM251 890h69c15 -49 44 -73 87 -73s72 24 87 73h69c-11 -84 -76 -139 -156 -139s-145 55 -156 139z" />
    <glyph glyph-name="gbreve" unicode="&#x11f;" horiz-adv-x="600" 
d="M54 -143l38 59c62 -45 129 -67 200 -67c53 0 94 12 125 37c35 29 52 81 52 156v42c-29 -51 -88 -90 -179 -90c-71 0 -132 25 -181 74c-49 50 -74 113 -74 188s25 138 74 188s110 75 181 75c91 0 150 -39 179 -90v75h74v-420c0 -65 -5 -117 -15 -154
c-9 -38 -31 -70 -65 -97c-45 -35 -101 -53 -170 -53c-89 0 -168 26 -239 77zM290 63c54 0 99 18 134 55c36 37 54 83 54 138s-18 101 -54 138c-35 37 -80 56 -134 56c-52 0 -95 -19 -130 -56c-34 -37 -51 -83 -51 -138s17 -101 51 -138c35 -37 78 -55 130 -55zM137 697h69
c15 -49 44 -73 87 -73s72 24 87 73h69c-11 -84 -76 -139 -156 -139s-145 55 -156 139z" />
    <glyph glyph-name="Gdotaccent" unicode="&#x120;" horiz-adv-x="740" 
d="M410 710c95 0 175 -30 241 -91l-49 -54c-53 49 -117 73 -192 73c-82 0 -150 -28 -204 -83s-81 -124 -81 -207s27 -153 81 -208s122 -82 204 -82c74 0 138 23 191 70v180h-213v72h291v-279c-71 -77 -161 -115 -269 -115c-101 0 -187 34 -258 103c-70 69 -105 156 -105 259
s35 189 105 258c71 69 157 104 258 104zM446 777c-20 -19 -50 -19 -70 0c-20 20 -20 52 0 71c20 20 50 20 70 0c20 -19 20 -51 0 -71z" />
    <glyph glyph-name="gdotaccent" unicode="&#x121;" horiz-adv-x="600" 
d="M54 -143l38 59c62 -45 129 -67 200 -67c53 0 94 12 125 37c35 29 52 81 52 156v42c-29 -51 -88 -90 -179 -90c-71 0 -132 25 -181 74c-49 50 -74 113 -74 188s25 138 74 188s110 75 181 75c91 0 150 -39 179 -90v75h74v-420c0 -65 -5 -117 -15 -154
c-9 -38 -31 -70 -65 -97c-45 -35 -101 -53 -170 -53c-89 0 -168 26 -239 77zM290 63c54 0 99 18 134 55c36 37 54 83 54 138s-18 101 -54 138c-35 37 -80 56 -134 56c-52 0 -95 -19 -130 -56c-34 -37 -51 -83 -51 -138s17 -101 51 -138c35 -37 78 -55 130 -55zM335 600
c-20 -19 -50 -19 -70 0c-20 20 -20 52 0 71c20 20 50 20 70 0c20 -19 20 -51 0 -71z" />
    <glyph glyph-name="Gcommaaccent" unicode="&#x122;" horiz-adv-x="740" 
d="M410 710c95 0 175 -30 241 -91l-49 -54c-53 49 -117 73 -192 73c-82 0 -150 -28 -204 -83s-81 -124 -81 -207s27 -153 81 -208s122 -82 204 -82c74 0 138 23 191 70v180h-213v72h291v-279c-71 -77 -161 -115 -269 -115c-101 0 -187 34 -258 103c-70 69 -105 156 -105 259
s35 189 105 258c71 69 157 104 258 104zM368 -193h-59l53 145h99z" />
    <glyph glyph-name="gcommaaccent" unicode="&#x123;" horiz-adv-x="600" 
d="M54 -143l38 59c62 -45 129 -67 200 -67c53 0 94 12 125 37c35 29 52 81 52 156v42c-29 -51 -88 -90 -179 -90c-71 0 -132 25 -181 74c-49 50 -74 113 -74 188s25 138 74 188s110 75 181 75c91 0 150 -39 179 -90v75h74v-420c0 -65 -5 -117 -15 -154
c-9 -38 -31 -70 -65 -97c-45 -35 -101 -53 -170 -53c-89 0 -168 26 -239 77zM290 63c54 0 99 18 134 55c36 37 54 83 54 138s-18 101 -54 138c-35 37 -80 56 -134 56c-52 0 -95 -19 -130 -56c-34 -37 -51 -83 -51 -138s17 -101 51 -138c35 -37 78 -55 130 -55zM314 552h-59
l53 145h99z" />
    <glyph glyph-name="Hcircumflex" unicode="&#x124;" horiz-adv-x="727" 
d="M297 769h-91l126 121h62l126 -121h-91l-66 66zM170 0h-78v697h78v-291h387v291h78v-697h-78v334h-387v-334z" />
    <glyph glyph-name="hcircumflex" unicode="&#x125;" horiz-adv-x="547" 
d="M28 721h-91l126 121h62l126 -121h-91l-66 66zM131 0h-74v697h74v-278c27 56 82 93 155 93c111 0 181 -75 181 -190v-208c0 -40 7 -53 35 -53c5 0 11 1 19 2v-61c-9 -3 -19 -5 -32 -5c-39 0 -96 11 -96 112v197c0 84 -48 137 -125 137c-80 0 -137 -58 -137 -142v-301z" />
    <glyph glyph-name="Hbar" unicode="&#x126;" horiz-adv-x="727" 
d="M170 0h-78v504h-59v69h59v124h78v-124h387v124h78v-124h59v-69h-59v-504h-78v334h-387v-334zM170 504v-98h387v98h-387z" />
    <glyph glyph-name="hbar" unicode="&#x127;" horiz-adv-x="547" 
d="M131 0h-74v573h-57v60h57v64h74v-64h198v-60h-198v-154c27 56 82 93 155 93c111 0 181 -75 181 -190v-208c0 -40 7 -53 35 -53c5 0 11 1 19 2v-61c-9 -3 -19 -5 -32 -5c-39 0 -96 11 -96 112v197c0 84 -48 137 -125 137c-80 0 -137 -58 -137 -142v-301z" />
    <glyph glyph-name="Itilde" unicode="&#x128;" horiz-adv-x="270" 
d="M33 758l-49 4c7 53 41 92 90 92c18 0 39 -7 63 -20c25 -13 43 -19 54 -19c24 0 39 14 46 41l49 -4c-7 -65 -38 -98 -92 -98c-19 0 -40 6 -65 19c-24 13 -42 20 -53 20c-23 0 -38 -12 -43 -35zM174 0h-78v697h78v-697z" />
    <glyph glyph-name="itilde" unicode="&#x129;" horiz-adv-x="212" 
d="M13 596l-48 4c7 53 34 90 78 90c13 0 31 -7 53 -20s36 -19 43 -19c19 0 32 14 37 41l47 -4c-7 -64 -33 -96 -79 -96c-13 0 -31 6 -53 19s-37 20 -44 20c-19 0 -30 -12 -34 -35zM58 95v409h74v-396c0 -37 10 -53 38 -53c8 0 17 1 26 2v-61c-12 -5 -28 -8 -47 -8
c-61 0 -91 36 -91 107z" />
    <glyph glyph-name="Imacron" unicode="&#x12a;" horiz-adv-x="270" 
d="M272 769h-274v69h274v-69zM174 0h-78v697h78v-697z" />
    <glyph glyph-name="imacron" unicode="&#x12b;" horiz-adv-x="212" 
d="M214 601h-238v69h238v-69zM58 95v409h74v-396c0 -37 10 -53 38 -53c8 0 17 1 26 2v-61c-12 -5 -28 -8 -47 -8c-61 0 -91 36 -91 107z" />
    <glyph glyph-name="Ibreve" unicode="&#x12c;" horiz-adv-x="270" 
d="M-21 890h69c15 -49 44 -73 87 -73s72 24 87 73h69c-11 -84 -76 -139 -156 -139s-145 55 -156 139zM174 0h-78v697h78v-697z" />
    <glyph glyph-name="ibreve" unicode="&#x12d;" horiz-adv-x="212" 
d="M-33 697h69c3 -41 22 -67 59 -67s56 26 59 67h69c-3 -81 -53 -133 -128 -133s-125 52 -128 133zM58 95v409h74v-396c0 -37 10 -53 38 -53c8 0 17 1 26 2v-61c-12 -5 -28 -8 -47 -8c-61 0 -91 36 -91 107z" />
    <glyph glyph-name="Iogonek" unicode="&#x12e;" horiz-adv-x="270" 
d="M96 -7v1v703h78v-697c-18 -7 -36 -19 -54 -38c-17 -19 -26 -38 -26 -57c0 -29 22 -45 50 -45c21 0 40 5 58 15l-13 -59c-19 -9 -38 -14 -57 -14c-55 0 -101 36 -101 89c0 39 22 73 65 102z" />
    <glyph glyph-name="iogonek" unicode="&#x12f;" horiz-adv-x="212" 
d="M58 95v409h74v-396c0 -37 10 -53 38 -53c8 0 17 1 26 2v-61c-51 -32 -76 -64 -76 -95c0 -29 22 -45 50 -45c21 0 40 5 58 15l-13 -59c-19 -9 -38 -14 -57 -14c-55 0 -101 36 -101 89c0 39 22 74 66 104c-43 8 -65 43 -65 104zM130 600c-20 -19 -50 -19 -70 0
c-20 20 -20 52 0 71c20 20 50 20 70 0c20 -19 20 -51 0 -71z" />
    <glyph glyph-name="Idot" unicode="&#x130;" horiz-adv-x="270" 
d="M170 777c-20 -19 -50 -19 -70 0c-20 20 -20 52 0 71c20 20 50 20 70 0c20 -19 20 -51 0 -71zM174 0h-78v697h78v-697z" />
    <glyph glyph-name="dotlessi" unicode="&#x131;" horiz-adv-x="212" 
d="M58 95v409h74v-396c0 -37 10 -53 38 -53c8 0 17 1 26 2v-61c-12 -5 -28 -8 -47 -8c-61 0 -91 36 -91 107z" />
    <glyph glyph-name="IJ" unicode="&#x132;" horiz-adv-x="475" 
d="M96 -7v72c27 -5 64 -7 109 -7c40 0 69 15 82 31c7 8 13 20 16 35c8 32 7 44 7 80v493h78v-483c0 -53 -2 -88 -17 -131c-20 -57 -66 -97 -158 -97c-46 0 -85 2 -117 7zM174 141h-78v556h78v-556z" />
    <glyph glyph-name="ij" unicode="&#x133;" horiz-adv-x="365" 
d="M305 600c-20 -19 -50 -19 -70 0c-20 20 -20 52 0 71c20 20 50 20 70 0c20 -19 20 -51 0 -71zM130 600c-20 -19 -50 -19 -70 0c-20 20 -20 52 0 71c20 20 50 20 70 0c20 -19 20 -51 0 -71zM60 -3v70c28 -9 60 -13 95 -13c53 0 78 28 78 93v357h74v-357
c0 -62 -17 -106 -50 -132c-24 -20 -61 -30 -110 -30c-34 0 -63 4 -87 12zM132 138h-74v366h74v-366z" />
    <glyph glyph-name="Jcircumflex" unicode="&#x134;" horiz-adv-x="310" 
d="M118 769h-91l126 121h62l126 -121h-91l-66 66zM14 -5v74c17 -7 34 -10 53 -10c66 4 79 55 78 130v508h78v-505c0 -48 -1 -76 -13 -116c-16 -56 -55 -86 -138 -90c-20 0 -39 3 -58 9z" />
    <glyph glyph-name="jcircumflex" unicode="&#x135;" horiz-adv-x="208" 
d="M58 576h-86l101 121h62l101 -121h-86l-46 72zM67 -52v556h74v-556c0 -104 -51 -156 -152 -156c-10 0 -19 1 -27 2v70c11 -2 23 -3 35 -3c49 0 70 24 70 87z" />
    <glyph glyph-name="Kcommaaccent" unicode="&#x136;" horiz-adv-x="638" 
d="M170 0h-78v697h78v-370l335 370h96l-278 -304l286 -393h-94l-244 336l-101 -110v-226zM279 -193h-59l53 145h99z" />
    <glyph glyph-name="kcommaaccent" unicode="&#x137;" horiz-adv-x="466" 
d="M131 0h-74v697h74v-442l216 249h85l-191 -221l218 -283h-88l-177 230l-63 -73v-157zM137 -193l53 145h99l-93 -145h-59z" />
    <glyph glyph-name="Lacute" unicode="&#x139;" horiz-adv-x="496" 
d="M457 0h-365v697h78v-625h287v-72zM169 745h-59l53 145h99z" />
    <glyph glyph-name="lacute" unicode="&#x13a;" horiz-adv-x="260" 
d="M118 722h-59l53 145h99zM58 697h74v-565c0 -56 16 -78 63 -78c17 0 29 1 36 2v-63c-9 -5 -25 -8 -46 -8c-31 0 -53 5 -82 22c-28 17 -45 59 -45 120v570z" />
    <glyph glyph-name="Lcommaaccent" unicode="&#x13b;" horiz-adv-x="496" 
d="M457 0h-365v697h78v-625h287v-72zM183 -193l53 145h99l-93 -145h-59z" />
    <glyph glyph-name="lcommaaccent" unicode="&#x13c;" horiz-adv-x="260" 
d="M58 127v570h74v-565c0 -56 16 -78 63 -78c17 0 29 1 36 2v-63c-9 -5 -25 -8 -46 -8c-31 0 -53 5 -82 22c-28 17 -45 59 -45 120zM3 -193l53 145h99l-93 -145h-59z" />
    <glyph glyph-name="Lcaron" unicode="&#x13d;" horiz-adv-x="496" 
d="M457 0h-365v697h78v-625h287v-72zM311 552h-59l53 145h99z" />
    <glyph glyph-name="lcaron" unicode="&#x13e;" horiz-adv-x="315" 
d="M58 127v570h74v-565c0 -56 16 -78 63 -78c17 0 29 1 36 2v-63c-9 -5 -25 -8 -46 -8c-31 0 -53 5 -82 22c-28 17 -45 59 -45 120zM230 552h-59l53 145h99z" />
    <glyph glyph-name="Ldot" unicode="&#x13f;" horiz-adv-x="496" 
d="M457 0h-365v697h78v-625h287v-72zM356 335c-20 -19 -50 -19 -70 0c-20 20 -20 52 0 71c20 20 50 20 70 0c20 -19 20 -51 0 -71z" />
    <glyph glyph-name="ldot" unicode="&#x140;" horiz-adv-x="315" 
d="M58 127v570h74v-565c0 -56 16 -78 63 -78c17 0 29 1 36 2v-63c-9 -5 -25 -8 -46 -8c-31 0 -53 5 -82 22c-28 17 -45 59 -45 120zM270 332c-20 -19 -50 -19 -70 0c-20 20 -20 52 0 71c20 20 50 20 70 0c20 -19 20 -51 0 -71z" />
    <glyph glyph-name="Lslash" unicode="&#x141;" horiz-adv-x="495" 
d="M457 0h-365v282l-67 -37v76l67 37v339h78v-296l140 79v-76l-140 -78v-254h287v-72z" />
    <glyph glyph-name="lslash" unicode="&#x142;" horiz-adv-x="274" 
d="M72 127v183l-68 -40v77l68 40v310h74v-266l85 51v-77l-85 -51v-222c0 -56 16 -78 63 -78c17 0 29 1 36 2v-63c-9 -5 -25 -8 -46 -8c-31 0 -53 5 -82 22c-28 17 -45 59 -45 120z" />
    <glyph glyph-name="Nacute" unicode="&#x143;" horiz-adv-x="751" 
d="M170 0h-78v697h68l421 -558v558h78v-697h-63l-426 564v-564zM392 745h-59l53 145h99z" />
    <glyph glyph-name="nacute" unicode="&#x144;" horiz-adv-x="554" 
d="M131 0h-74v504h74v-85c27 56 84 93 159 93c113 0 184 -75 184 -190v-208c0 -41 6 -53 35 -53c5 0 11 1 19 2v-61c-8 -3 -19 -5 -32 -5c-39 0 -96 11 -96 112v197c0 84 -49 137 -129 137c-83 0 -140 -58 -140 -142v-301zM316 552h-59l53 145h99z" />
    <glyph glyph-name="Ncommaaccent" unicode="&#x145;" horiz-adv-x="751" 
d="M170 0h-78v697h68l421 -558v558h78v-697h-63l-426 564v-564zM351 -193h-59l53 145h99z" />
    <glyph glyph-name="ncommaaccent" unicode="&#x146;" horiz-adv-x="554" 
d="M173 -193l53 145h99l-93 -145h-59zM131 0h-74v504h74v-85c27 56 84 93 159 93c113 0 184 -75 184 -190v-208c0 -41 6 -53 35 -53c5 0 11 1 19 2v-61c-8 -3 -19 -5 -32 -5c-39 0 -96 11 -96 112v197c0 84 -49 137 -129 137c-83 0 -140 -58 -140 -142v-301z" />
    <glyph glyph-name="Ncaron" unicode="&#x147;" horiz-adv-x="751" 
d="M406 769h-62l-126 121h91l66 -66l66 66h91zM170 0h-78v697h68l421 -558v558h78v-697h-63l-426 564v-564z" />
    <glyph glyph-name="ncaron" unicode="&#x148;" horiz-adv-x="554" 
d="M307 576h-62l-126 121h91l66 -66l66 66h91zM131 0h-74v504h74v-85c27 56 84 93 159 93c113 0 184 -75 184 -190v-208c0 -41 6 -53 35 -53c5 0 11 1 19 2v-61c-8 -3 -19 -5 -32 -5c-39 0 -96 11 -96 112v197c0 84 -49 137 -129 137c-83 0 -140 -58 -140 -142v-301z" />
    <glyph glyph-name="Eng" unicode="&#x14a;" horiz-adv-x="751" 
d="M170 0h-78v697h68l421 -575v575h78v-697c0 -132 -40 -208 -156 -208c-18 0 -36 3 -53 9v73c17 -7 35 -10 53 -10c33 0 57 17 66 46s12 54 12 90v1l-411 561v-562z" />
    <glyph glyph-name="eng" unicode="&#x14b;" horiz-adv-x="519" 
d="M131 0h-74v504h74v-85c27 56 82 93 155 93c111 0 181 -75 181 -190v-374c0 -50 -12 -88 -35 -115c-23 -26 -59 -40 -107 -41c-14 0 -26 1 -37 2v70c11 -2 23 -3 35 -3c49 0 70 24 70 87v358c0 85 -46 137 -126 137c-79 0 -136 -58 -136 -142v-301z" />
    <glyph glyph-name="Omacron" unicode="&#x14c;" horiz-adv-x="820" 
d="M152 89c-70 69 -105 156 -105 259s35 189 105 258c71 69 157 104 258 104s187 -35 257 -104c71 -69 106 -155 106 -258s-35 -190 -106 -259c-70 -69 -156 -103 -257 -103s-187 34 -258 103zM205 555c-54 -55 -81 -124 -81 -207s27 -153 81 -208c55 -55 123 -82 205 -82
s150 27 204 82s81 125 81 208s-27 152 -81 207s-122 83 -204 83s-150 -28 -205 -83zM557 770h-294v69h294v-69z" />
    <glyph glyph-name="omacron" unicode="&#x14d;" horiz-adv-x="606" 
d="M113 61c-52 51 -78 115 -78 191s26 139 78 190s115 77 190 77s138 -26 190 -77s78 -114 78 -190s-26 -140 -78 -191s-115 -76 -190 -76s-138 25 -190 76zM164 393c-37 -37 -55 -84 -55 -141s18 -104 55 -142c37 -37 83 -56 139 -56s102 19 139 56c37 38 55 85 55 142
s-18 104 -55 141c-37 38 -83 57 -139 57s-102 -19 -139 -57zM452 601h-294v69h294v-69z" />
    <glyph glyph-name="Obreve" unicode="&#x14e;" horiz-adv-x="820" 
d="M152 89c-70 69 -105 156 -105 259s35 189 105 258c71 69 157 104 258 104s187 -35 257 -104c71 -69 106 -155 106 -258s-35 -190 -106 -259c-70 -69 -156 -103 -257 -103s-187 34 -258 103zM205 555c-54 -55 -81 -124 -81 -207s27 -153 81 -208c55 -55 123 -82 205 -82
s150 27 204 82s81 125 81 208s-27 152 -81 207s-122 83 -204 83s-150 -28 -205 -83zM254 890h69c15 -49 44 -73 87 -73s72 24 87 73h69c-11 -84 -76 -139 -156 -139s-145 55 -156 139z" />
    <glyph glyph-name="obreve" unicode="&#x14f;" horiz-adv-x="606" 
d="M113 61c-52 51 -78 115 -78 191s26 139 78 190s115 77 190 77s138 -26 190 -77s78 -114 78 -190s-26 -140 -78 -191s-115 -76 -190 -76s-138 25 -190 76zM164 393c-37 -37 -55 -84 -55 -141s18 -104 55 -142c37 -37 83 -56 139 -56s102 19 139 56c37 38 55 85 55 142
s-18 104 -55 141c-37 38 -83 57 -139 57s-102 -19 -139 -57zM147 697h69c15 -49 44 -73 87 -73s72 24 87 73h69c-11 -84 -76 -139 -156 -139s-145 55 -156 139z" />
    <glyph glyph-name="Ohungarumlaut" unicode="&#x150;" horiz-adv-x="820" 
d="M152 89c-70 69 -105 156 -105 259s35 189 105 258c71 69 157 104 258 104s187 -35 257 -104c71 -69 106 -155 106 -258s-35 -190 -106 -259c-70 -69 -156 -103 -257 -103s-187 34 -258 103zM205 555c-54 -55 -81 -124 -81 -207s27 -153 81 -208c55 -55 123 -82 205 -82
s150 27 204 82s81 125 81 208s-27 152 -81 207s-122 83 -204 83s-150 -28 -205 -83zM514 745h-55l63 145h95zM360 745h-55l63 145h95z" />
    <glyph glyph-name="ohungarumlaut" unicode="&#x151;" horiz-adv-x="606" 
d="M113 61c-52 51 -78 115 -78 191s26 139 78 190s115 77 190 77s138 -26 190 -77s78 -114 78 -190s-26 -140 -78 -191s-115 -76 -190 -76s-138 25 -190 76zM164 393c-37 -37 -55 -84 -55 -141s18 -104 55 -142c37 -37 83 -56 139 -56s102 19 139 56c37 38 55 85 55 142
s-18 104 -55 141c-37 38 -83 57 -139 57s-102 -19 -139 -57zM405 552h-55l63 145h95zM251 552h-55l63 145h95z" />
    <glyph glyph-name="OE" unicode="&#x152;" horiz-adv-x="1084" 
d="M410 710c124 0 218 -49 281 -147v134h330v-72h-252v-221h233v-72h-233v-260h259v-72h-337v137c-61 -101 -155 -151 -281 -151c-101 0 -187 34 -258 103c-70 69 -105 156 -105 259s35 189 105 258c71 69 157 104 258 104zM205 555c-54 -55 -81 -124 -81 -207
s27 -153 81 -208c55 -55 123 -82 205 -82s150 27 204 82s81 125 81 208s-27 152 -81 207s-122 83 -204 83s-150 -28 -205 -83z" />
    <glyph glyph-name="oe" unicode="&#x153;" horiz-adv-x="1017" 
d="M303 519c99 0 183 -50 228 -131c44 81 123 131 215 131c70 0 129 -26 178 -77s74 -114 74 -190c0 -5 0 -11 -1 -16h-429c4 -109 74 -177 185 -177c74 0 132 22 173 67l50 -54c-58 -58 -132 -87 -223 -87c-107 0 -181 42 -224 127c-45 -80 -127 -127 -226 -127
c-75 0 -138 25 -190 76s-78 115 -78 191s26 139 78 190s115 77 190 77zM573 301h346c-19 89 -86 149 -173 149s-154 -60 -173 -149zM164 393c-37 -37 -55 -84 -55 -141s18 -104 55 -142c37 -37 83 -56 139 -56s102 19 139 56c37 38 55 85 55 142s-18 104 -55 141
c-37 38 -83 57 -139 57s-102 -19 -139 -57z" />
    <glyph glyph-name="Racute" unicode="&#x154;" horiz-adv-x="606" 
d="M170 0h-78v697h238c58 0 107 -20 148 -60c41 -39 61 -89 61 -148c0 -92 -53 -167 -133 -198l168 -291h-89l-157 276h-1h-157v-276zM170 625v-277h152c40 0 73 13 99 40c27 27 40 60 40 101c0 77 -57 136 -134 136h-157zM307 745h-59l53 145h99z" />
    <glyph glyph-name="racute" unicode="&#x155;" horiz-adv-x="361" 
d="M131 0h-74v504h74v-85c27 56 82 93 155 93c11 0 22 -1 31 -2v-80c-13 3 -30 5 -50 5c-79 0 -136 -58 -136 -142v-293zM188 552h-59l53 145h99z" />
    <glyph glyph-name="Rcommaaccent" unicode="&#x156;" horiz-adv-x="606" 
d="M170 0h-78v697h238c58 0 107 -20 148 -60c41 -39 61 -89 61 -148c0 -92 -53 -167 -133 -198l168 -291h-89l-157 276h-1h-157v-276zM170 625v-277h152c40 0 73 13 99 40c27 27 40 60 40 101c0 77 -57 136 -134 136h-157zM227 -193l53 145h99l-93 -145h-59z" />
    <glyph glyph-name="rcommaaccent" unicode="&#x157;" horiz-adv-x="361" 
d="M131 0h-74v504h74v-85c27 56 82 93 155 93c11 0 22 -1 31 -2v-80c-13 3 -30 5 -50 5c-79 0 -136 -58 -136 -142v-293zM4 -193l53 145h99l-93 -145h-59z" />
    <glyph glyph-name="Rcaron" unicode="&#x158;" horiz-adv-x="606" 
d="M323 769h-62l-126 121h91l66 -66l66 66h91zM170 0h-78v697h238c58 0 107 -20 148 -60c41 -39 61 -89 61 -148c0 -92 -53 -167 -133 -198l168 -291h-89l-157 276h-1h-157v-276zM170 625v-277h152c40 0 73 13 99 40c27 27 40 60 40 101c0 77 -57 136 -134 136h-157z" />
    <glyph glyph-name="rcaron" unicode="&#x159;" horiz-adv-x="361" 
d="M209 576h-62l-126 121h91l66 -66l66 66h91zM131 0h-74v504h74v-85c27 56 82 93 155 93c11 0 22 -1 31 -2v-80c-13 3 -30 5 -50 5c-79 0 -136 -58 -136 -142v-293z" />
    <glyph glyph-name="Sacute" unicode="&#x15a;" horiz-adv-x="550" 
d="M41 153l67 31c35 -84 93 -126 175 -126c59 0 101 20 118 49s22 50 22 74c0 38 -12 67 -35 87s-64 43 -121 68c-63 28 -110 56 -139 83s-44 67 -44 118c0 50 18 91 54 124s82 49 137 49c85 0 148 -37 188 -111l-67 -34c-26 49 -67 73 -122 73c-63 0 -112 -42 -112 -99
c0 -36 9 -60 41 -84c17 -11 30 -20 41 -26l60 -27c71 -31 121 -62 151 -93c31 -30 46 -72 46 -127c0 -57 -19 -104 -58 -141c-38 -37 -92 -55 -161 -55c-111 0 -201 56 -241 167zM298 745h-59l53 145h99z" />
    <glyph glyph-name="sacute" unicode="&#x15b;" horiz-adv-x="414" 
d="M18 109l63 24c13 -43 58 -76 127 -76c83 0 111 38 111 77c0 25 -9 44 -28 57c-18 13 -51 29 -98 48c-92 36 -137 74 -137 147c0 77 63 133 152 133c68 0 117 -29 146 -87l-60 -31c-18 33 -46 50 -85 50c-47 0 -79 -24 -79 -65s34 -62 110 -91c104 -40 153 -84 153 -161
c0 -80 -65 -146 -185 -146c-96 0 -170 44 -190 121zM219 552h-59l53 145h99z" />
    <glyph glyph-name="Scircumflex" unicode="&#x15c;" horiz-adv-x="550" 
d="M223 769h-91l126 121h62l126 -121h-91l-66 66zM41 153l67 31c35 -84 93 -126 175 -126c59 0 101 20 118 49s22 50 22 74c0 38 -12 67 -35 87s-64 43 -121 68c-63 28 -110 56 -139 83s-44 67 -44 118c0 50 18 91 54 124s82 49 137 49c85 0 148 -37 188 -111l-67 -34
c-26 49 -67 73 -122 73c-63 0 -112 -42 -112 -99c0 -36 9 -60 41 -84c17 -11 30 -20 41 -26l60 -27c71 -31 121 -62 151 -93c31 -30 46 -72 46 -127c0 -57 -19 -104 -58 -141c-38 -37 -92 -55 -161 -55c-111 0 -201 56 -241 167z" />
    <glyph glyph-name="scircumflex" unicode="&#x15d;" horiz-adv-x="414" 
d="M147 576h-91l126 121h62l126 -121h-91l-66 66zM18 109l63 24c13 -43 58 -76 127 -76c83 0 111 38 111 77c0 25 -9 44 -28 57c-18 13 -51 29 -98 48c-92 36 -137 74 -137 147c0 77 63 133 152 133c68 0 117 -29 146 -87l-60 -31c-18 33 -46 50 -85 50
c-47 0 -79 -24 -79 -65s34 -62 110 -91c104 -40 153 -84 153 -161c0 -80 -65 -146 -185 -146c-96 0 -170 44 -190 121z" />
    <glyph glyph-name="Scedilla" unicode="&#x15e;" horiz-adv-x="550" 
d="M41 153l67 31c35 -84 93 -126 175 -126c59 0 101 20 118 49s22 50 22 74c0 38 -12 67 -35 87s-64 43 -121 68c-63 28 -110 56 -139 83s-44 67 -44 118c0 50 18 91 54 124s82 49 137 49c85 0 148 -37 188 -111l-67 -34c-26 49 -67 73 -122 73c-63 0 -112 -42 -112 -99
c0 -36 9 -60 41 -84c17 -11 30 -20 41 -26l60 -27c71 -31 121 -62 151 -93c31 -30 46 -72 46 -127c0 -57 -19 -104 -56 -141c-37 -36 -90 -54 -158 -55l-15 -34c37 0 66 -28 66 -71c0 -54 -34 -81 -103 -81c-30 0 -55 8 -74 23l19 39c19 -11 37 -17 54 -17c25 0 44 15 44 36
c0 32 -22 41 -73 41l28 68c-88 15 -159 70 -192 163z" />
    <glyph glyph-name="scedilla" unicode="&#x15f;" horiz-adv-x="414" 
d="M18 109l63 24c13 -43 58 -76 127 -76c83 0 111 38 111 77c0 25 -9 44 -28 57c-18 13 -51 29 -98 48c-92 36 -137 74 -137 147c0 77 63 133 152 133c68 0 117 -29 146 -87l-60 -31c-18 33 -46 50 -85 50c-47 0 -79 -24 -79 -65s34 -62 110 -91c104 -40 153 -84 153 -161
c0 -75 -59 -138 -167 -145l-19 -35c41 0 72 -28 72 -71c0 -54 -35 -81 -106 -81c-31 0 -57 8 -79 23l20 39c19 -11 39 -17 58 -17c27 0 47 15 47 36c0 32 -24 41 -79 41l31 67c-77 9 -136 51 -153 118z" />
    <glyph glyph-name="Scaron" unicode="&#x160;" horiz-adv-x="550" 
d="M322 769h-62l-126 121h91l66 -66l66 66h91zM41 153l67 31c35 -84 93 -126 175 -126c59 0 101 20 118 49s22 50 22 74c0 38 -12 67 -35 87s-64 43 -121 68c-63 28 -110 56 -139 83s-44 67 -44 118c0 50 18 91 54 124s82 49 137 49c85 0 148 -37 188 -111l-67 -34
c-26 49 -67 73 -122 73c-63 0 -112 -42 -112 -99c0 -36 9 -60 41 -84c17 -11 30 -20 41 -26l60 -27c71 -31 121 -62 151 -93c31 -30 46 -72 46 -127c0 -57 -19 -104 -58 -141c-38 -37 -92 -55 -161 -55c-111 0 -201 56 -241 167z" />
    <glyph glyph-name="scaron" unicode="&#x161;" horiz-adv-x="414" 
d="M247 576h-62l-126 121h91l66 -66l66 66h91zM18 109l63 24c13 -43 58 -76 127 -76c83 0 111 38 111 77c0 25 -9 44 -28 57c-18 13 -51 29 -98 48c-92 36 -137 74 -137 147c0 77 63 133 152 133c68 0 117 -29 146 -87l-60 -31c-18 33 -46 50 -85 50c-47 0 -79 -24 -79 -65
s34 -62 110 -91c104 -40 153 -84 153 -161c0 -80 -65 -146 -185 -146c-96 0 -170 44 -190 121z" />
    <glyph glyph-name="Tcommaaccent" unicode="&#x162;" horiz-adv-x="518" 
d="M298 0h-78v625h-190v72h458v-72h-190v-625zM158 -193l53 145h99l-93 -145h-59z" />
    <glyph glyph-name="tcommaaccent" unicode="&#x163;" horiz-adv-x="308" 
d="M89 141v294h-59v69h59v193h74v-193h117v-69h-117v-294c0 -64 21 -87 70 -87c19 0 34 1 47 3v-64c-11 -5 -30 -8 -56 -8c-90 0 -135 52 -135 156zM41 -193l53 145h99l-93 -145h-59z" />
    <glyph glyph-name="Tcaron" unicode="&#x164;" horiz-adv-x="518" 
d="M289 769h-62l-126 121h91l66 -66l66 66h91zM298 0h-78v625h-190v72h458v-72h-190v-625z" />
    <glyph glyph-name="tcaron" unicode="&#x165;" horiz-adv-x="335" 
d="M89 141v294h-59v69h59v193h74v-193h117v-69h-117v-294c0 -64 21 -87 70 -87c19 0 34 1 47 3v-64c-11 -5 -30 -8 -56 -8c-90 0 -135 52 -135 156zM280 552h-59l53 145h99z" />
    <glyph glyph-name="Tbar" unicode="&#x166;" horiz-adv-x="518" 
d="M298 0h-78v361h-108v69h108v195h-190v72h458v-72h-190v-195h108v-69h-108v-361z" />
    <glyph glyph-name="tbar" unicode="&#x167;" horiz-adv-x="308" 
d="M89 141v153h-64v69h64v72h-59v69h59v193h74v-193h117v-69h-117v-72h112v-69h-112v-153c0 -64 21 -87 70 -87c19 0 34 1 47 3v-64c-11 -5 -30 -8 -56 -8c-90 0 -135 52 -135 156z" />
    <glyph glyph-name="Utilde" unicode="&#x168;" horiz-adv-x="696" 
d="M248 758l-49 4c7 53 41 92 90 92c18 0 39 -7 63 -20c25 -13 43 -19 54 -19c24 0 39 14 46 41l49 -4c-7 -65 -38 -98 -92 -98c-19 0 -40 6 -65 19c-24 13 -42 20 -53 20c-23 0 -38 -12 -43 -35zM87 244v453h78v-445c0 -125 70 -192 183 -192s183 67 183 192v445h78v-453
c0 -82 -24 -145 -72 -190c-48 -44 -111 -66 -189 -66s-141 22 -189 66c-48 45 -72 108 -72 190z" />
    <glyph glyph-name="utilde" unicode="&#x169;" horiz-adv-x="547" 
d="M51 182v322h74v-306c0 -84 48 -137 125 -137c80 0 137 58 137 142v301h74v-387c0 -44 10 -63 38 -63c8 0 17 1 26 2v-56c-11 -5 -26 -8 -47 -8c-27 0 -48 8 -62 23c-12 13 -20 29 -23 50c-32 -49 -86 -73 -161 -73c-111 0 -181 75 -181 190zM161 594l-49 4
c7 53 41 92 90 92c18 0 39 -7 63 -20c25 -13 43 -19 54 -19c24 0 39 14 46 41l49 -4c-7 -65 -38 -98 -92 -98c-19 0 -40 6 -65 19c-24 13 -42 20 -53 20c-23 0 -38 -12 -43 -35z" />
    <glyph glyph-name="Umacron" unicode="&#x16a;" horiz-adv-x="696" 
d="M87 244v453h78v-445c0 -125 70 -192 183 -192s183 67 183 192v445h78v-453c0 -82 -24 -145 -72 -190c-48 -44 -111 -66 -189 -66s-141 22 -189 66c-48 45 -72 108 -72 190zM495 770h-294v69h294v-69z" />
    <glyph glyph-name="umacron" unicode="&#x16b;" horiz-adv-x="547" 
d="M51 182v322h74v-306c0 -84 48 -137 125 -137c80 0 137 58 137 142v301h74v-387c0 -44 10 -63 38 -63c8 0 17 1 26 2v-56c-11 -5 -26 -8 -47 -8c-27 0 -48 8 -62 23c-12 13 -20 29 -23 50c-32 -49 -86 -73 -161 -73c-111 0 -181 75 -181 190zM410 601h-294v69h294v-69z
" />
    <glyph glyph-name="Ubreve" unicode="&#x16c;" horiz-adv-x="696" 
d="M87 244v453h78v-445c0 -125 70 -192 183 -192s183 67 183 192v445h78v-453c0 -82 -24 -145 -72 -190c-48 -44 -111 -66 -189 -66s-141 22 -189 66c-48 45 -72 108 -72 190zM192 890h69c15 -49 44 -73 87 -73s72 24 87 73h69c-11 -84 -76 -139 -156 -139s-145 55 -156 139
z" />
    <glyph glyph-name="ubreve" unicode="&#x16d;" horiz-adv-x="547" 
d="M51 182v322h74v-306c0 -84 48 -137 125 -137c80 0 137 58 137 142v301h74v-387c0 -44 10 -63 38 -63c8 0 17 1 26 2v-56c-11 -5 -26 -8 -47 -8c-27 0 -48 8 -62 23c-12 13 -20 29 -23 50c-32 -49 -86 -73 -161 -73c-111 0 -181 75 -181 190zM107 697h69
c15 -49 44 -73 87 -73s72 24 87 73h69c-11 -84 -76 -139 -156 -139s-145 55 -156 139z" />
    <glyph glyph-name="Uring" unicode="&#x16e;" horiz-adv-x="696" 
d="M349 710c-85 -5 -132 112 -69 166c56 64 171 15 166 -68c0 -55 -44 -98 -97 -98zM316 775c19 -19 48 -19 65 0c19 19 19 48 0 65c-17 19 -46 19 -65 0c-19 -17 -19 -46 0 -65zM87 244v453h78v-445c0 -125 70 -192 183 -192s183 67 183 192v445h78v-453
c0 -82 -24 -145 -72 -190c-48 -44 -111 -66 -189 -66s-141 22 -189 66c-48 45 -72 108 -72 190z" />
    <glyph glyph-name="uring" unicode="&#x16f;" horiz-adv-x="547" 
d="M263 517c-55 0 -98 43 -98 98c0 53 45 97 98 97s97 -44 97 -97c0 -55 -44 -98 -97 -98zM230 582c19 -19 48 -19 65 0c19 19 19 48 0 65c-17 19 -46 19 -65 0c-19 -17 -19 -46 0 -65zM51 182v322h74v-306c0 -84 48 -137 125 -137c80 0 137 58 137 142v301h74v-387
c0 -44 10 -63 38 -63c8 0 17 1 26 2v-56c-11 -5 -26 -8 -47 -8c-27 0 -48 8 -62 23c-12 13 -20 29 -23 50c-32 -49 -86 -73 -161 -73c-111 0 -181 75 -181 190z" />
    <glyph glyph-name="Uhungarumlaut" unicode="&#x170;" horiz-adv-x="696" 
d="M87 244v453h78v-445c0 -125 70 -192 183 -192s183 67 183 192v445h78v-453c0 -82 -24 -145 -72 -190c-48 -44 -111 -66 -189 -66s-141 22 -189 66c-48 45 -72 108 -72 190zM449 745h-55l63 145h95zM295 745h-55l63 145h95z" />
    <glyph glyph-name="uhungarumlaut" unicode="&#x171;" horiz-adv-x="547" 
d="M51 182v322h74v-306c0 -84 48 -137 125 -137c80 0 137 58 137 142v301h74v-387c0 -44 10 -63 38 -63c8 0 17 1 26 2v-56c-11 -5 -26 -8 -47 -8c-27 0 -48 8 -62 23c-12 13 -20 29 -23 50c-32 -49 -86 -73 -161 -73c-111 0 -181 75 -181 190zM362 552h-55l63 145h95z
M208 552h-55l63 145h95z" />
    <glyph glyph-name="Uogonek" unicode="&#x172;" horiz-adv-x="696" 
d="M87 244v453h78v-445c0 -125 70 -192 183 -192s183 67 183 192v445h78v-451c0 -93 -32 -163 -96 -209l-30 -18c-35 -21 -59 -36 -83 -68c-38 -51 -10 -91 32 -91c21 0 40 5 58 15l-13 -59c-19 -9 -38 -14 -57 -14c-55 0 -101 36 -101 89c0 37 20 70 61 99
c-16 -1 -28 -2 -36 -2c-76 0 -138 22 -186 66c-47 45 -71 108 -71 190z" />
    <glyph glyph-name="uogonek" unicode="&#x173;" horiz-adv-x="547" 
d="M51 182v322h74v-306c0 -84 48 -137 125 -137c80 0 137 58 137 142v301h74v-387c0 -44 10 -63 38 -63c8 0 17 1 26 2v-56c-52 -20 -96 -54 -96 -91c0 -29 22 -45 50 -45c21 0 40 5 58 15l-13 -59c-19 -9 -38 -14 -57 -14c-55 0 -101 36 -101 89c0 47 33 86 77 103
c-15 5 -26 13 -34 25c-8 11 -13 25 -16 42c-32 -49 -86 -73 -161 -73c-111 0 -181 75 -181 190z" />
    <glyph glyph-name="Wcircumflex" unicode="&#x174;" horiz-adv-x="920" 
d="M394 769h-91l126 121h62l126 -121h-91l-66 66zM281 0h-50l-204 697h79l155 -527l172 527h54l172 -527l155 527h79l-204 -697h-50l-179 539z" />
    <glyph glyph-name="wcircumflex" unicode="&#x175;" horiz-adv-x="746" 
d="M307 576h-91l126 121h62l126 -121h-91l-66 66zM246 0h-49l-182 504h76l130 -364l126 364h52l125 -364l130 364h77l-182 -504h-49l-127 367z" />
    <glyph glyph-name="Ycircumflex" unicode="&#x176;" horiz-adv-x="622" 
d="M248 769h-91l126 121h62l126 -121h-91l-66 66zM351 0h-78v286l-245 411h86l199 -334l197 334h84l-243 -411v-286z" />
    <glyph glyph-name="ycircumflex" unicode="&#x177;" horiz-adv-x="502" 
d="M190 576h-91l126 121h62l126 -121h-91l-66 66zM64 -200v68c14 -5 31 -8 50 -8c17 0 32 4 43 11c15 11 28 31 40 61l22 57l-204 515h74l166 -425l160 425h74l-228 -590c-14 -37 -30 -65 -49 -85c-25 -25 -57 -38 -98 -38c-19 0 -36 3 -50 9z" />
    <glyph glyph-name="Ydieresis" unicode="&#x178;" horiz-adv-x="622" 
d="M449 757c-20 -19 -50 -19 -70 0c-20 20 -20 52 0 71c20 20 50 20 70 0c20 -19 20 -51 0 -71zM243 757c-20 -19 -50 -19 -70 0c-20 20 -20 52 0 71c20 20 50 20 70 0c20 -19 20 -51 0 -71zM351 0h-78v286l-245 411h86l199 -334l197 334h84l-243 -411v-286z" />
    <glyph glyph-name="Zacute" unicode="&#x179;" horiz-adv-x="630" 
d="M356 745h-59l53 145h99zM584 0h-540v48l427 577h-378v72h484v-52l-424 -573h431v-72z" />
    <glyph glyph-name="zacute" unicode="&#x17a;" horiz-adv-x="499" 
d="M458 0h-430v44l309 391h-276v69h381v-49l-307 -386h323v-69zM269 552h-59l53 145h99z" />
    <glyph glyph-name="Zdotaccent" unicode="&#x17b;" horiz-adv-x="630" 
d="M379 777c-20 -19 -50 -19 -70 0c-20 20 -20 52 0 71c20 20 50 20 70 0c20 -19 20 -51 0 -71zM584 0h-540v48l427 577h-378v72h484v-52l-424 -573h431v-72z" />
    <glyph glyph-name="zdotaccent" unicode="&#x17c;" horiz-adv-x="499" 
d="M458 0h-430v44l309 391h-276v69h381v-49l-307 -386h323v-69zM299 600c-20 -19 -50 -19 -70 0c-20 20 -20 52 0 71c20 20 50 20 70 0c20 -19 20 -51 0 -71z" />
    <glyph glyph-name="Zcaron" unicode="&#x17d;" horiz-adv-x="630" 
d="M378 769h-62l-126 121h91l66 -66l66 66h91zM584 0h-540v48l427 577h-378v72h484v-52l-424 -573h431v-72z" />
    <glyph glyph-name="zcaron" unicode="&#x17e;" horiz-adv-x="499" 
d="M294 576h-62l-126 121h91l66 -66l66 66h91zM458 0h-430v44l309 391h-276v69h381v-49l-307 -386h323v-69z" />
    <glyph glyph-name="florin" unicode="&#x192;" horiz-adv-x="375" 
d="M98 -101h-74l101 475h-76l13 63h76l23 107c16 72 44 121 80 141c37 21 65 27 108 27c17 0 32 -1 46 -4l-14 -68c-15 2 -32 3 -51 3c-53 0 -80 -29 -93 -90l-25 -116h100l-13 -63h-100z" />
    <glyph glyph-name="Aringacute" unicode="&#x1fa;" horiz-adv-x="701" 
d="M117 0h-82l290 665c-41 11 -72 50 -72 94c0 53 45 97 98 97s97 -44 97 -97c0 -45 -30 -84 -73 -95l291 -664h-85l-75 172h-314zM318 726c19 -19 48 -19 65 0c19 19 19 48 0 65c-17 19 -46 19 -65 0c-19 -17 -19 -46 0 -65zM349 540l-126 -296h252zM388 907h-59l53 145h99
z" />
    <glyph glyph-name="aringacute" unicode="&#x1fb;" horiz-adv-x="629" 
d="M327 788h-59l53 145h99zM397 654c0 -55 -44 -98 -97 -98s-98 45 -98 98s45 97 98 97s97 -44 97 -97zM267 621c19 -19 48 -19 65 0c19 19 19 48 0 65c-17 19 -46 19 -65 0c-19 -17 -19 -46 0 -65zM290 519c91 0 150 -39 179 -90v75h74v-391c0 -44 10 -63 38 -63
c8 0 17 1 26 2v-56c-12 -5 -28 -8 -47 -8c-22 0 -40 5 -53 14c-19 15 -31 39 -34 72c-38 -59 -99 -89 -183 -89c-71 0 -132 25 -181 76s-74 115 -74 191s25 139 74 190s110 77 181 77zM290 54c54 0 99 19 134 56c36 38 54 85 54 142s-18 104 -54 141c-35 38 -80 57 -134 57
c-52 0 -95 -19 -130 -57c-34 -37 -51 -84 -51 -141s17 -104 51 -142c35 -37 78 -56 130 -56z" />
    <glyph glyph-name="AEacute" unicode="&#x1fc;" horiz-adv-x="890" 
d="M82 0h-98l534 697h310v-72h-252v-221h233v-72h-233v-260h259v-72h-337v172h-284zM498 549l-229 -305h229v305zM536 745h-59l53 145h99z" />
    <glyph glyph-name="aeacute" unicode="&#x1fd;" horiz-adv-x="999" 
d="M290 519c91 0 150 -39 179 -90v75h74v-90c33 60 109 105 185 105c66 0 122 -26 168 -77s69 -114 69 -190c0 -5 0 -11 -1 -16h-409c4 -111 71 -182 175 -182c71 0 108 21 160 70l49 -48c-55 -61 -125 -91 -209 -91c-85 0 -152 36 -187 93v-78h-74v75
c-29 -51 -88 -90 -179 -90c-71 0 -132 25 -181 76s-74 115 -74 191s25 139 74 190s110 77 181 77zM290 54c54 0 99 19 134 56c36 38 54 85 54 142s-18 104 -54 141c-35 38 -80 57 -134 57c-52 0 -95 -19 -130 -57c-34 -37 -51 -84 -51 -141s17 -104 51 -142
c35 -37 78 -56 130 -56zM560 301h326c-16 88 -79 149 -158 149c-84 0 -151 -61 -168 -149zM527 552h-59l53 145h99z" />
    <glyph glyph-name="Oslashacute" unicode="&#x1fe;" horiz-adv-x="820" 
d="M171 -42l-57 42l55 74c-81 71 -122 162 -122 274c0 103 35 189 105 258c71 69 157 104 258 104c70 0 135 -18 194 -54l58 78l57 -43l-58 -78c75 -71 112 -159 112 -265c0 -103 -35 -190 -106 -259c-70 -69 -156 -103 -257 -103c-65 0 -126 16 -183 47zM213 133l348 464
c-45 27 -96 41 -151 41c-82 0 -150 -28 -205 -83c-54 -55 -81 -124 -81 -207c0 -88 30 -160 89 -215zM616 553l-345 -461c42 -23 88 -34 139 -34c82 0 150 27 204 82s81 125 81 208c0 82 -26 150 -79 205zM444 745h-59l53 145h99z" />
    <glyph glyph-name="oslashacute" unicode="&#x1ff;" horiz-adv-x="606" 
d="M132 -39l-53 40l40 54c-56 52 -84 118 -84 197c0 76 26 139 78 190s115 77 190 77c47 0 91 -11 132 -33l37 51l54 -39l-38 -50c55 -52 83 -117 83 -196c0 -76 -26 -140 -78 -191s-115 -76 -190 -76c-46 0 -89 11 -130 32zM162 113l231 316c-28 14 -58 21 -90 21
c-56 0 -102 -19 -139 -57c-37 -37 -55 -84 -55 -141c0 -55 18 -102 53 -139zM446 389l-231 -315c27 -13 56 -20 88 -20c56 0 102 19 139 56c37 38 55 85 55 142c0 54 -17 100 -51 137zM342 552h-59l53 145h99z" />
    <glyph glyph-name="Scommaaccent" unicode="&#x218;" horiz-adv-x="550" 
d="M41 153l67 31c35 -84 93 -126 175 -126c59 0 101 20 118 49s22 50 22 74c0 38 -12 67 -35 87s-64 43 -121 68c-63 28 -110 56 -139 83s-44 67 -44 118c0 50 18 91 54 124s82 49 137 49c85 0 148 -37 188 -111l-67 -34c-26 49 -67 73 -122 73c-63 0 -112 -42 -112 -99
c0 -36 9 -60 41 -84c17 -11 30 -20 41 -26l60 -27c71 -31 121 -62 151 -93c31 -30 46 -72 46 -127c0 -57 -19 -104 -58 -141c-38 -37 -92 -55 -161 -55c-111 0 -201 56 -241 167zM230 -193h-59l53 145h99z" />
    <glyph glyph-name="scommaaccent" unicode="&#x219;" horiz-adv-x="414" 
d="M18 109l63 24c13 -43 58 -76 127 -76c83 0 111 38 111 77c0 25 -9 44 -28 57c-18 13 -51 29 -98 48c-92 36 -137 74 -137 147c0 77 63 133 152 133c68 0 117 -29 146 -87l-60 -31c-18 33 -46 50 -85 50c-47 0 -79 -24 -79 -65s34 -62 110 -91c104 -40 153 -84 153 -161
c0 -80 -65 -146 -185 -146c-96 0 -170 44 -190 121zM89 -193l53 145h99l-93 -145h-59z" />
    <glyph glyph-name="circumflex" unicode="&#x2c6;" horiz-adv-x="610" 
d="M230 576h-91l122 121h88l122 -121h-91l-75 74z" />
    <glyph glyph-name="caron" unicode="&#x2c7;" horiz-adv-x="610" 
d="M349 576h-88l-122 121h91l75 -74l75 74h91z" />
    <glyph glyph-name="breve" unicode="&#x2d8;" horiz-adv-x="606" 
d="M147 697h69c15 -49 44 -73 87 -73s72 24 87 73h69c-11 -84 -76 -139 -156 -139s-145 55 -156 139z" />
    <glyph glyph-name="dotaccent" unicode="&#x2d9;" horiz-adv-x="525" 
d="M298 600c-20 -19 -50 -19 -70 0c-20 20 -20 52 0 71c20 20 50 20 70 0c20 -19 20 -51 0 -71z" />
    <glyph glyph-name="ring" unicode="&#x2da;" horiz-adv-x="239" 
d="M22 615c0 53 45 97 98 97s97 -44 97 -97c0 -55 -44 -98 -97 -98s-98 43 -98 98zM87 582c19 -19 48 -19 65 0c19 19 19 48 0 65c-17 19 -46 19 -65 0c-19 -17 -19 -46 0 -65z" />
    <glyph glyph-name="ogonek" unicode="&#x2db;" horiz-adv-x="526" 
d="M157 -109c0 41 25 78 75 109h64c-51 -32 -76 -64 -76 -95c0 -29 22 -45 50 -45c21 0 40 5 58 15l-13 -59c-19 -9 -38 -14 -57 -14c-55 0 -101 36 -101 89z" />
    <glyph glyph-name="tilde" unicode="&#x2dc;" horiz-adv-x="582" 
d="M189 616l-49 4c7 53 41 92 90 92c18 0 39 -7 63 -20c25 -13 43 -19 54 -19c24 0 39 14 46 41l49 -4c-7 -65 -38 -98 -92 -98c-19 0 -40 6 -65 19c-24 13 -42 20 -53 20c-23 0 -38 -12 -43 -35z" />
    <glyph glyph-name="hungarumlaut" unicode="&#x2dd;" horiz-adv-x="585" 
d="M370 552h-55l63 145h95zM216 552h-55l63 145h95z" />
    <glyph glyph-name="mu" unicode="&#x3bc;" horiz-adv-x="525" 
d="M125 37v-230h-74v697h74v-302c0 -95 52 -145 137 -145s138 51 138 146v301h74v-302c0 -136 -87 -214 -215 -214c-52 0 -97 16 -134 49z" />
    <glyph glyph-name="pi" unicode="&#x3c0;" horiz-adv-x="585" 
d="M174 0h-80c51 113 78 258 79 435h-3c-45 0 -77 -18 -97 -54l-60 35c29 55 93 87 156 87h399l-16 -68h-73v-315c0 -32 15 -48 45 -48v-74h-1c-71 0 -118 49 -118 122v315h-158c-1 -79 -7 -158 -20 -237s-30 -145 -53 -198z" />
    <glyph glyph-name="Wgrave" unicode="&#x1e80;" horiz-adv-x="920" 
d="M281 0h-50l-204 697h79l155 -527l172 527h54l172 -527l155 527h79l-204 -697h-50l-179 539zM497 745h-59l-93 145h99z" />
    <glyph glyph-name="wgrave" unicode="&#x1e81;" horiz-adv-x="746" 
d="M246 0h-49l-182 504h76l130 -364l126 364h52l125 -364l130 364h77l-182 -504h-49l-127 367zM432 552h-59l-93 145h99z" />
    <glyph glyph-name="Wacute" unicode="&#x1e82;" horiz-adv-x="920" 
d="M281 0h-50l-204 697h79l155 -527l172 527h54l172 -527l155 527h79l-204 -697h-50l-179 539zM486 745h-59l53 145h99z" />
    <glyph glyph-name="wacute" unicode="&#x1e83;" horiz-adv-x="746" 
d="M246 0h-49l-182 504h76l130 -364l126 364h52l125 -364l130 364h77l-182 -504h-49l-127 367zM374 552h-59l53 145h99z" />
    <glyph glyph-name="Wdieresis" unicode="&#x1e84;" horiz-adv-x="920" 
d="M598 758c-20 -19 -50 -19 -70 0c-20 20 -20 52 0 71c20 20 50 20 70 0c20 -19 20 -51 0 -71zM392 758c-20 -19 -50 -19 -70 0c-20 20 -20 52 0 71c20 20 50 20 70 0c20 -19 20 -51 0 -71zM281 0h-50l-204 697h79l155 -527l172 527h54l172 -527l155 527h79l-204 -697h-50
l-179 539z" />
    <glyph glyph-name="wdieresis" unicode="&#x1e85;" horiz-adv-x="746" 
d="M511 600c-20 -19 -50 -19 -70 0c-20 20 -20 52 0 71c20 20 50 20 70 0c20 -19 20 -51 0 -71zM305 600c-20 -19 -50 -19 -70 0c-20 20 -20 52 0 71c20 20 50 20 70 0c20 -19 20 -51 0 -71zM246 0h-49l-182 504h76l130 -364l126 364h52l125 -364l130 364h77l-182 -504h-49
l-127 367z" />
    <glyph glyph-name="Ygrave" unicode="&#x1ef2;" horiz-adv-x="622" 
d="M351 0h-78v286l-245 411h86l199 -334l197 334h84l-243 -411v-286zM359 745h-59l-93 145h99z" />
    <glyph glyph-name="ygrave" unicode="&#x1ef3;" horiz-adv-x="502" 
d="M64 -200v68c14 -5 31 -8 50 -8c17 0 32 4 43 11c15 11 28 31 40 61l22 57l-204 515h74l166 -425l160 425h74l-228 -590c-14 -37 -30 -65 -49 -85c-25 -25 -57 -38 -98 -38c-19 0 -36 3 -50 9zM301 552h-59l-93 145h99z" />
    <glyph glyph-name="endash" unicode="&#x2013;" horiz-adv-x="456" 
d="M415 229h-374v69h374v-69z" />
    <glyph glyph-name="emdash" unicode="&#x2014;" horiz-adv-x="720" 
d="M679 229h-638v69h638v-69z" />
    <glyph glyph-name="quoteleft" unicode="&#x2018;" horiz-adv-x="179" 
d="M103 445h-99l131 252h63z" />
    <glyph glyph-name="quoteright" unicode="&#x2019;" horiz-adv-x="187" 
d="M59 445h-63l95 252h99z" />
    <glyph glyph-name="quotesinglbase" unicode="&#x201a;" horiz-adv-x="187" 
d="M27 -128h-63l90 239h99z" />
    <glyph glyph-name="quotedblleft" unicode="&#x201c;" horiz-adv-x="345" 
d="M269 445h-99l131 252h63zM103 445h-99l131 252h63z" />
    <glyph glyph-name="quotedblright" unicode="&#x201d;" horiz-adv-x="353" 
d="M225 445h-63l95 252h99zM59 445h-63l95 252h99z" />
    <glyph glyph-name="quotedblbase" unicode="&#x201e;" horiz-adv-x="341" 
d="M193 -128h-63l90 239h99zM27 -128h-63l90 239h99z" />
    <glyph glyph-name="dagger" unicode="&#x2020;" horiz-adv-x="288" 
d="M179 301h-70l5 239l-81 -3v65l79 -3l-3 98h70l-3 -98l79 3v-65l-81 3z" />
    <glyph glyph-name="daggerdbl" unicode="&#x2021;" horiz-adv-x="288" 
d="M179 301h-70l3 98l-79 -3v65l81 -3v82l-81 -3v65l79 -3l-3 98h70l-3 -98l79 3v-65l-81 3v-82l81 3v-65l-79 3z" />
    <glyph glyph-name="bullet" unicode="&#x2022;" horiz-adv-x="262" 
d="M188 195c-32 -31 -82 -31 -115 0c-32 32 -32 86 0 117c33 32 83 32 115 0c33 -31 33 -85 0 -117z" />
    <glyph glyph-name="ellipsis" unicode="&#x2026;" horiz-adv-x="544" 
d="M415 7c-20 20 -20 52 0 71c20 20 50 20 70 0c20 -19 20 -51 0 -71c-20 -19 -50 -19 -70 0zM237 7c-20 20 -20 52 0 71c20 20 50 20 70 0c20 -19 20 -51 0 -71c-20 -19 -50 -19 -70 0zM59 7c-20 20 -20 52 0 71c20 20 50 20 70 0c20 -19 20 -51 0 -71
c-20 -19 -50 -19 -70 0z" />
    <glyph glyph-name="perthousand" unicode="&#x2030;" horiz-adv-x="1113" 
d="M302 446c-31 -31 -67 -46 -110 -46s-79 15 -110 46s-46 67 -46 110s15 79 46 110s67 46 110 46s79 -15 110 -46s46 -67 46 -110s-15 -79 -46 -110zM181 0h-77l451 697h77zM192 461c49 0 90 42 90 95c0 52 -41 95 -90 95s-90 -43 -90 -95c0 -53 39 -95 90 -95zM810 30
c-30 31 -45 68 -45 111s15 80 45 110c31 31 68 46 111 46s80 -15 110 -46c31 -30 46 -67 46 -110s-15 -80 -46 -111c-30 -30 -67 -45 -110 -45s-80 15 -111 45zM430 30c-30 31 -45 68 -45 111s15 80 45 110c31 31 68 46 111 46s80 -15 110 -46c31 -30 46 -67 46 -110
s-15 -80 -46 -111c-30 -30 -67 -45 -110 -45s-80 15 -111 45zM831 141c0 -53 39 -95 90 -95c49 0 90 42 90 95c0 52 -41 95 -90 95s-90 -43 -90 -95zM451 141c0 -53 39 -95 90 -95c49 0 90 42 90 95c0 52 -41 95 -90 95s-90 -43 -90 -95z" />
    <glyph glyph-name="guilsinglleft" unicode="&#x2039;" horiz-adv-x="258" 
d="M223 78h-78l-110 175l110 175h78l-110 -175z" />
    <glyph glyph-name="guilsinglright" unicode="&#x203a;" horiz-adv-x="258" 
d="M113 78h-78l110 175l-110 175h78l110 -175z" />
    <glyph glyph-name="fraction" unicode="&#x2044;" horiz-adv-x="486" 
d="M56 0h-77l451 697h77z" />
    <glyph glyph-name="zerosuperior" unicode="&#x2070;" horiz-adv-x="359" 
d="M179 320c-31 0 -59 11 -84 34c-24 23 -38 51 -42 83c-1 10 -2 35 -2 76s1 66 2 76c4 32 18 59 42 82c25 23 53 34 84 34c33 0 62 -11 87 -33s38 -50 41 -83c1 -11 1 -36 1 -76s0 -65 -1 -76c-3 -33 -16 -61 -41 -84c-25 -22 -54 -33 -87 -33zM179 375c39 0 70 29 73 66
c1 9 2 33 2 72c0 38 -1 62 -2 72c-3 37 -34 66 -73 66c-36 0 -65 -29 -72 -66c-1 -9 -1 -33 -1 -72s0 -63 1 -72c7 -37 36 -66 72 -66z" />
    <glyph glyph-name="foursuperior" unicode="&#x2074;" horiz-adv-x="349" 
d="M291 328h-57v73h-204v39l128 257h59l-121 -242h138v74h57v-201z" />
    <glyph glyph-name="fivesuperior" unicode="&#x2075;" horiz-adv-x="332" 
d="M152 320c-55 0 -102 33 -129 85l50 24c16 -33 47 -54 79 -54c44 0 80 36 80 79c0 45 -37 78 -85 78c-21 0 -38 -6 -51 -17l-41 13l30 169h180v-53h-131l-12 -64c8 4 19 6 34 6c36 0 67 -13 92 -39c26 -26 39 -57 39 -93c0 -37 -13 -69 -40 -95c-26 -26 -58 -39 -95 -39z
" />
    <glyph glyph-name="sixsuperior" unicode="&#x2076;" horiz-adv-x="353" 
d="M45 453c0 12 2 24 6 37c9 27 18 38 39 70l92 137h68l-82 -117c4 1 9 1 16 1c33 0 61 -13 86 -38s38 -55 38 -90c0 -37 -13 -69 -39 -95c-25 -25 -56 -38 -92 -38s-67 13 -93 39s-39 57 -39 94zM177 375c41 0 76 35 76 76s-35 76 -76 76c-43 0 -74 -32 -74 -76
s31 -76 74 -76z" />
    <glyph glyph-name="sevensuperior" unicode="&#x2077;" horiz-adv-x="341" 
d="M146 328h-63l157 316h-189v53h265v-26z" />
    <glyph glyph-name="eightsuperior" unicode="&#x2078;" horiz-adv-x="356" 
d="M179 320c-36 0 -66 12 -91 36s-37 53 -37 87c0 47 29 86 62 99c-23 15 -35 37 -35 64c0 55 45 99 101 99c27 0 51 -10 70 -29s29 -43 29 -70s-12 -49 -35 -64c33 -13 62 -52 62 -99c0 -33 -12 -62 -37 -87c-25 -24 -54 -36 -89 -36zM179 557c24 0 43 21 43 48
c0 24 -19 46 -43 46c-25 0 -45 -22 -45 -46c0 -27 20 -48 45 -48zM179 375c37 0 69 31 69 68s-32 68 -69 68c-39 0 -71 -31 -71 -68s32 -68 71 -68z" />
    <glyph glyph-name="ninesuperior" unicode="&#x2079;" horiz-adv-x="358" 
d="M170 328h-67l89 126c-5 -1 -12 -2 -19 -2c-32 0 -60 12 -85 35c-25 24 -37 53 -37 88c0 36 12 67 37 92s56 38 91 38s65 -12 90 -37s38 -55 38 -91c0 -30 -16 -69 -49 -118zM179 503c45 0 74 31 74 74c0 40 -33 74 -74 74c-40 0 -73 -34 -73 -74c0 -41 32 -74 73 -74z
" />
    <glyph glyph-name="zero.inferior" unicode="&#x2080;" horiz-adv-x="359" 
d="M53 109c-1 10 -2 35 -2 76s1 66 2 76c4 32 18 59 42 82c25 23 53 34 84 34c33 0 62 -11 87 -33s38 -50 41 -83c1 -11 1 -36 1 -76s0 -65 -1 -76c-3 -33 -16 -61 -41 -84c-25 -22 -54 -33 -87 -33c-31 0 -59 11 -84 34c-24 23 -38 51 -42 83zM107 113c7 -37 36 -66 72 -66
c39 0 70 29 73 66c1 9 2 33 2 72c0 38 -1 62 -2 72c-3 37 -34 66 -73 66c-36 0 -65 -29 -72 -66c-1 -9 -1 -33 -1 -72s0 -63 1 -72z" />
    <glyph glyph-name="one.inferior" unicode="&#x2081;" horiz-adv-x="222" 
d="M145 0h-57v316h-48v53h105v-369z" />
    <glyph glyph-name="two.inferior" unicode="&#x2082;" horiz-adv-x="325" 
d="M287 0h-243v40l153 177c16 19 24 37 24 52c0 29 -25 54 -54 54s-54 -28 -54 -63h-56c0 65 49 117 110 117s111 -48 111 -108c0 -31 -11 -59 -34 -86l-116 -129h159v-54z" />
    <glyph glyph-name="three.inferior" unicode="&#x2083;" horiz-adv-x="346" 
d="M26 83l50 19c14 -37 43 -55 88 -55c49 0 84 30 84 73c0 44 -36 76 -88 76c-24 0 -41 -3 -52 -8l-20 26l106 102h-133v53h224v-33l-101 -93c14 0 27 -2 40 -6c47 -17 79 -64 79 -117c0 -75 -59 -128 -139 -128c-64 0 -118 35 -138 91z" />
    <glyph glyph-name="four.inferior" unicode="&#x2084;" horiz-adv-x="349" 
d="M234 73h-204v39l128 257h59l-121 -242h138v74h57v-201h-57v73z" />
    <glyph glyph-name="five.inferior" unicode="&#x2085;" horiz-adv-x="332" 
d="M23 77l50 24c16 -33 47 -54 79 -54c44 0 80 36 80 79c0 45 -37 78 -85 78c-21 0 -38 -6 -51 -17l-41 13l30 169h180v-53h-131l-12 -64c8 4 19 6 34 6c36 0 67 -13 92 -39c26 -26 39 -57 39 -93c0 -37 -13 -69 -40 -95c-26 -26 -58 -39 -95 -39c-55 0 -102 33 -129 85z
" />
    <glyph glyph-name="six.inferior" unicode="&#x2086;" horiz-adv-x="353" 
d="M45 125c0 12 2 24 6 37c9 27 18 38 39 70l92 137h68l-82 -117c4 1 9 1 16 1c33 0 61 -13 86 -38s38 -55 38 -90c0 -37 -13 -69 -39 -95c-25 -25 -56 -38 -92 -38s-67 13 -93 39s-39 57 -39 94zM177 47c41 0 76 35 76 76s-35 76 -76 76c-43 0 -74 -32 -74 -76
s31 -76 74 -76z" />
    <glyph glyph-name="seven.inferior" unicode="&#x2087;" horiz-adv-x="341" 
d="M146 0h-63l157 316h-189v53h265v-26z" />
    <glyph glyph-name="eight.inferior" unicode="&#x2088;" horiz-adv-x="356" 
d="M51 115c0 47 29 86 62 99c-23 15 -35 37 -35 64c0 55 45 99 101 99c27 0 51 -10 70 -29s29 -43 29 -70s-12 -49 -35 -64c33 -13 62 -52 62 -99c0 -33 -12 -62 -37 -87c-25 -24 -54 -36 -89 -36c-36 0 -66 12 -91 36s-37 53 -37 87zM179 229c24 0 43 21 43 48
c0 24 -19 46 -43 46c-25 0 -45 -22 -45 -46c0 -27 20 -48 45 -48zM179 47c37 0 69 31 69 68s-32 68 -69 68c-39 0 -71 -31 -71 -68s32 -68 71 -68z" />
    <glyph glyph-name="nine.inferior" unicode="&#x2089;" horiz-adv-x="346" 
d="M164 0h-67l89 126c-5 -1 -12 -2 -19 -2c-32 0 -60 12 -85 35c-25 24 -37 53 -37 88c0 36 12 67 37 92s56 38 91 38s65 -12 90 -37s38 -55 38 -91c0 -30 -16 -69 -49 -118zM173 175c45 0 74 31 74 74c0 40 -33 74 -74 74c-40 0 -73 -34 -73 -74c0 -41 32 -74 73 -74z" />
    <glyph glyph-name="Euro" unicode="&#x20ac;" horiz-adv-x="745" 
d="M131 240h-123l30 69h81c-1 17 -2 30 -2 39c0 16 1 32 3 47h-91l30 69h74c22 74 62 133 119 178c58 45 124 68 198 68c97 0 179 -35 244 -106l-55 -49c-49 55 -112 83 -189 83c-109 0 -199 -69 -236 -174h272l-30 -69h-258c-2 -15 -3 -31 -3 -47c0 -9 1 -22 2 -39h225
l-30 -69h-181c36 -111 127 -182 239 -182c82 0 148 29 197 87l56 -50c-67 -73 -151 -109 -253 -109c-75 0 -141 23 -200 70s-98 108 -119 184z" />
    <glyph glyph-name="uni2113" unicode="&#x2113;" horiz-adv-x="470" 
d="M30 118l-26 50l81 59v265c0 149 63 220 158 220c81 0 133 -61 133 -154c0 -121 -71 -234 -215 -359v-10c1 -91 36 -136 106 -136c52 0 97 32 134 95l43 -42c-45 -81 -111 -121 -198 -121c-99 0 -159 72 -159 172c-19 -14 -38 -27 -57 -39zM159 509v-227
c96 96 144 187 144 274c0 58 -22 87 -65 87c-45 0 -79 -45 -79 -134z" />
    <glyph glyph-name="uni2116" unicode="&#x2116;" horiz-adv-x="1174" 
d="M170 0h-78v697h68l379 -549v549h78v-697h-63l-384 555v-555zM784 342c-39 38 -58 85 -58 140s19 102 58 140s85 57 140 57s101 -19 140 -57s58 -85 58 -140s-19 -102 -58 -140s-85 -57 -140 -57s-101 19 -140 57zM836 572c-24 -25 -36 -55 -36 -90s12 -66 36 -91
s53 -37 88 -37s64 12 88 37s36 56 36 91s-12 65 -36 90s-53 38 -88 38s-64 -13 -88 -38zM1114 145h-375v69h375v-69z" />
    <glyph glyph-name="trademark" unicode="&#x2122;" horiz-adv-x="842" 
d="M454 326h-75v372h7l195 -199l195 199h7v-372h-75v204l-127 -140l-127 140v-204zM215 326h-75v299h-118v72h311v-72h-118v-299z" />
    <glyph glyph-name="Omega" unicode="&#x2126;" horiz-adv-x="780" 
d="M343 0h-282v72h113c-80 67 -127 169 -127 286c0 101 33 184 100 251s148 101 243 101s176 -34 243 -101s100 -150 100 -251c0 -117 -47 -219 -127 -286h113v-72h-282c146 93 219 208 219 343c0 84 -25 154 -76 210c-51 57 -114 85 -190 85s-139 -28 -190 -85
c-51 -56 -76 -126 -76 -210c0 -135 73 -250 219 -343z" />
    <glyph glyph-name="estimated" unicode="&#x212e;" horiz-adv-x="909" 
d="M200 359v-257c73 -62 158 -93 255 -93c115 0 221 48 290 127h30c-75 -91 -193 -148 -321 -148c-113 0 -210 37 -290 112s-120 165 -120 270s40 195 120 270s177 112 290 112s210 -37 290 -112c81 -75 121 -165 121 -270v-11h-665zM200 637v-257h508v259
c-73 61 -157 91 -253 91c-97 0 -182 -31 -255 -93z" />
    <glyph glyph-name="onethird" unicode="&#x2153;" horiz-adv-x="745" 
d="M152 0h-74l390 697h74zM165 328h-57v316h-48v53h105v-369zM414 83l50 19c14 -37 43 -55 88 -55c49 0 84 30 84 73c0 44 -36 76 -88 76c-24 0 -41 -3 -52 -8l-20 26l106 102h-133v53h224v-33l-101 -93c13 0 27 -2 40 -6c47 -17 79 -64 79 -117c0 -75 -59 -128 -139 -128
c-64 0 -118 35 -138 91z" />
    <glyph glyph-name="twothirds" unicode="&#x2154;" horiz-adv-x="808" 
d="M250 0h-74l390 697h74zM307 328h-243v40l153 177c16 19 24 37 24 52c0 29 -25 54 -54 54s-54 -28 -54 -63h-56c0 65 49 117 110 117s111 -48 111 -108c0 -31 -11 -59 -34 -86l-116 -129h159v-54zM477 83l50 19c14 -37 43 -55 88 -55c49 0 84 30 84 73c0 44 -36 76 -88 76
c-24 0 -41 -3 -52 -8l-20 26l106 102h-133v53h224v-33l-101 -93c14 0 27 -2 40 -6c47 -17 79 -64 79 -117c0 -75 -59 -128 -139 -128c-64 0 -118 35 -138 91z" />
    <glyph glyph-name="arrowleft" unicode="&#x2190;" horiz-adv-x="627" 
d="M303 79l-50 -50l-232 231l232 231l50 -50l-145 -145h442v-72h-443z" />
    <glyph glyph-name="arrowup" unicode="&#x2191;" horiz-adv-x="647" 
d="M361 0h-76v424l-130 -131l-50 50l218 219l218 -219l-50 -50l-130 131v-424z" />
    <glyph glyph-name="arrowright" unicode="&#x2192;" horiz-adv-x="627" 
d="M469 224h-443v72h442l-145 145l50 50l232 -231l-232 -231l-50 50z" />
    <glyph glyph-name="arrowdown" unicode="&#x2193;" horiz-adv-x="647" 
d="M323 -42l-218 219l50 50l130 -131v408h76v-408l130 131l50 -50z" />
    <glyph glyph-name="arrowboth" unicode="&#x2194;" horiz-adv-x="895" 
d="M303 79l-50 -50l-232 231l232 231l50 -50l-145 -145h578l-145 145l50 50l232 -231l-232 -231l-50 50l146 145h-580z" />
    <glyph glyph-name="arrowupdn" unicode="&#x2195;" horiz-adv-x="647" 
d="M323 -74l-197 198l50 50l109 -110v418l-109 -110l-50 50l197 198l197 -198l-50 -50l-109 110v-418l109 110l50 -50z" />
    <glyph glyph-name="arrownorthwest" unicode="&#x2196;" horiz-adv-x="647" 
d="M195 137h-76v328h328v-74h-204l308 -307l-51 -51l-305 305v-201z" />
    <glyph glyph-name="arrownortheast" unicode="&#x2197;" horiz-adv-x="647" 
d="M147 33l-51 51l308 307h-204v74h328v-328h-76v201z" />
    <glyph glyph-name="arrowsoutheast" unicode="&#x2198;" horiz-adv-x="647" 
d="M528 48h-328v74h204l-308 307l51 51l305 -305v201h76v-328z" />
    <glyph glyph-name="arrowsouthwest" unicode="&#x2199;" horiz-adv-x="647" 
d="M447 48h-328v328h76v-201l305 305l51 -51l-308 -307h204v-74z" />
    <glyph glyph-name="partialdiff" unicode="&#x2202;" horiz-adv-x="507" 
d="M250 442c55 0 111 -25 139 -73v1c0 59 -8 113 -29 172c-21 60 -67 100 -130 100c-41 0 -74 -15 -97 -44l-53 47c43 45 93 67 150 67c86 0 149 -41 188 -122c28 -57 42 -127 42 -210c0 -144 -25 -248 -75 -311c-43 -56 -96 -84 -159 -84c-59 0 -106 22 -140 65
c-33 43 -50 96 -50 158s20 116 61 163s92 71 153 71zM110 195c0 -76 41 -139 116 -139c53 0 101 38 126 94c12 27 18 57 18 90c0 77 -49 134 -120 134c-36 0 -68 -16 -97 -49s-43 -76 -43 -130z" />
    <glyph glyph-name="increment" unicode="&#x2206;" horiz-adv-x="624" 
d="M581 0h-538v47l241 650h55l242 -650v-47zM312 564l-182 -492h364z" />
    <glyph glyph-name="product" unicode="&#x220f;" horiz-adv-x="655" 
d="M208 0h-74v628h-103v69h593v-69h-103v-628h-74v628h-239v-628z" />
    <glyph glyph-name="summation" unicode="&#x2211;" horiz-adv-x="572" 
d="M520 0h-457v53l228 317l-212 274v53h430v-72h-338l204 -264l-211 -289h356v-72z" />
    <glyph glyph-name="minus" unicode="&#x2212;" horiz-adv-x="384" 
d="M342 313h-300v69h300v-69z" />
    <glyph glyph-name="radical" unicode="&#x221a;" horiz-adv-x="712" 
d="M148 346l-91 -38l-22 52l152 64l171 -400l247 776h72l-286 -887h-58z" />
    <glyph glyph-name="infinity" unicode="&#x221e;" horiz-adv-x="790" 
d="M208 174c-47 0 -85 14 -115 43s-45 66 -45 110c0 43 16 79 48 110c33 31 73 47 121 47c23 0 47 -6 70 -18s41 -24 54 -36c13 -11 30 -28 51 -51c65 70 128 105 190 105c47 0 85 -15 115 -44s45 -67 45 -113c0 -41 -16 -77 -49 -108c-33 -30 -73 -45 -121 -45
c-23 0 -45 5 -68 16c-22 11 -39 23 -52 34c-13 12 -30 29 -52 52c-65 -68 -129 -102 -192 -102zM445 325c51 -54 94 -81 129 -81c51 0 90 38 90 83c0 52 -36 88 -88 88c-15 0 -32 -5 -49 -16s-31 -21 -41 -31c-10 -9 -24 -24 -41 -43zM215 244c15 0 32 5 49 15
c36 20 52 36 87 71c-53 57 -97 85 -134 85c-52 0 -91 -39 -91 -88c0 -48 37 -83 89 -83z" />
    <glyph glyph-name="integral" unicode="&#x222b;" horiz-adv-x="316" 
d="M20 -93v63c40 -14 92 -10 100 41c9 35 11 65 11 125c0 30 -2 95 -7 194c-4 99 -6 174 -6 223c0 157 47 236 141 236c13 0 25 -1 37 -4v-63c-8 3 -18 5 -31 5c-31 0 -51 -20 -60 -57s-12 -71 -12 -123c0 -42 2 -115 7 -220s7 -173 7 -204c0 -164 -46 -225 -137 -225
c-17 0 -33 3 -50 9z" />
    <glyph glyph-name="approxequal" unicode="&#x2248;" horiz-adv-x="424" 
d="M77 374l-49 4c7 53 45 92 100 92c24 0 52 -7 85 -20s57 -19 72 -19c28 0 47 14 56 41l49 -4c-9 -65 -43 -98 -102 -98c-25 0 -54 6 -87 19c-32 13 -56 20 -71 20c-29 0 -46 -12 -53 -35zM83 239l-49 4c7 53 45 92 100 92c24 0 52 -7 85 -20s57 -19 72 -19
c28 0 47 14 56 41l49 -4c-9 -65 -43 -98 -102 -98c-25 0 -54 6 -87 19c-32 13 -56 20 -71 20c-29 0 -46 -12 -53 -35z" />
    <glyph glyph-name="notequal" unicode="&#x2260;" horiz-adv-x="426" 
d="M113 124l-49 29l50 85h-72v69h112l56 95h-168v69h209l63 107l49 -29l-46 -78h67v-69h-108l-56 -95h164v-69h-204z" />
    <glyph glyph-name="lessequal" unicode="&#x2264;" horiz-adv-x="414" 
d="M362 134l-318 195v54l318 196v-78l-239 -145l239 -144v-78zM362 0h-342v69h342v-69z" />
    <glyph glyph-name="greaterequal" unicode="&#x2265;" horiz-adv-x="414" 
d="M370 329l-318 -195v78l239 144l-239 145v78l318 -196v-54zM394 0h-342v69h342v-69z" />
    <glyph glyph-name="triagup" unicode="&#x25b2;" horiz-adv-x="539" 
d="M454 132h-369l179 315z" />
    <glyph glyph-name="triagrt" unicode="&#x25ba;" horiz-adv-x="539" 
d="M451 264l-315 -190v369z" />
    <glyph glyph-name="triagdn" unicode="&#x25bc;" horiz-adv-x="539" 
d="M454 387l-190 -315l-179 315h369z" />
    <glyph glyph-name="triaglf" unicode="&#x25c4;" horiz-adv-x="539" 
d="M403 74l-315 190l315 179v-369z" />
    <glyph glyph-name="lozenge" unicode="&#x25ca;" horiz-adv-x="534" 
d="M282 0h-30l-217 349l217 348h30l217 -348zM118 349l149 -244l149 244l-149 242z" />
    <glyph glyph-name="uni25E2" unicode="&#x25e2;" horiz-adv-x="539" 
d="M433 100l-357 88l261 261z" />
    <glyph glyph-name="uni25E3" unicode="&#x25e3;" horiz-adv-x="539" 
d="M463 188l-357 -88l96 349z" />
    <glyph glyph-name="uni25E4" unicode="&#x25e4;" horiz-adv-x="539" 
d="M463 330l-261 -261l-96 349z" />
    <glyph glyph-name="uni25E5" unicode="&#x25e5;" horiz-adv-x="539" 
d="M345 61l-261 261l349 96z" />
    <glyph glyph-name="fi" unicode="&#xfb01;" horiz-adv-x="500" 
d="M186 0h-74v435h-81v69h81v42c0 65 16 110 49 137c27 19 68 29 123 29c19 0 36 -1 49 -4v-70c-15 3 -34 5 -57 5c-63 0 -90 -24 -90 -87v-52h234v-396c0 -37 10 -53 38 -53c8 0 17 1 26 2v-61c-12 -5 -28 -8 -47 -8c-61 0 -91 36 -91 107v340h-160v-435z" />
    <glyph glyph-name="fl" unicode="&#xfb02;" horiz-adv-x="578" 
d="M186 0h-74v435h-81v69h81v42c0 65 16 110 49 137c22 19 56 29 103 29c15 0 28 -1 39 -4v-70c-13 3 -28 5 -47 5c-49 0 -70 -24 -70 -87v-52h95v-69h-95v-435zM371 127v570h74v-565c0 -56 16 -78 63 -78c17 0 29 1 36 2v-63c-9 -5 -25 -8 -46 -8c-31 0 -53 5 -82 22
c-28 17 -45 59 -45 120z" />
    <glyph glyph-name="ffi" unicode="&#xfb03;" horiz-adv-x="734" 
d="M186 0h-74v435h-81v69h81v42c0 69 19 117 51 138s61 28 101 28c15 0 28 -1 39 -4v-70c-13 3 -28 5 -47 5c-49 0 -70 -24 -70 -87v-52h160v42c0 65 16 110 49 137c27 19 68 29 123 29c19 0 36 -1 49 -4v-70c-15 3 -34 5 -57 5c-63 0 -90 -24 -90 -87v-52h234v-396
c0 -37 10 -53 38 -53c8 0 17 1 26 2v-61c-12 -5 -28 -8 -47 -8c-61 0 -91 36 -91 107v340h-160v-435h-74v435h-160v-435z" />
    <glyph glyph-name="ffl" unicode="&#xfb04;" horiz-adv-x="802" 
d="M186 0h-74v435h-81v69h81v42c0 69 19 117 51 138s61 28 101 28c15 0 28 -1 39 -4v-70c-13 3 -28 5 -47 5c-49 0 -70 -24 -70 -87v-52h160v42c0 69 19 117 51 138s61 28 101 28c15 0 28 -1 39 -4v-70c-13 3 -28 5 -47 5c-49 0 -70 -24 -70 -87v-52h95v-69h-95v-435h-74
v435h-160v-435zM595 127v570h74v-565c0 -56 16 -78 63 -78c17 0 29 1 36 2v-63c-9 -5 -25 -8 -46 -8c-31 0 -53 5 -82 22c-28 17 -45 59 -45 120z" />
    <glyph glyph-name="CR.001" horiz-adv-x="0" 
 />
    <glyph glyph-name="space.frac" horiz-adv-x="30" 
 />
    <glyph glyph-name="a.alt" horiz-adv-x="599" 
d="M290 519c91 0 150 -39 179 -90v75h74v-504h-74v75c-29 -51 -88 -90 -179 -90c-71 0 -132 25 -181 76s-74 115 -74 191s25 139 74 190s110 77 181 77zM290 54c54 0 99 19 134 56c36 38 54 85 54 142s-18 104 -54 141c-35 38 -80 57 -134 57c-52 0 -95 -19 -130 -57
c-34 -37 -51 -84 -51 -141s17 -104 51 -142c35 -37 78 -56 130 -56z" />
    <glyph glyph-name="d.alt" horiz-adv-x="600" 
d="M290 519c91 0 150 -39 179 -90v268h74v-697h-74v75c-29 -51 -88 -90 -179 -90c-71 0 -132 25 -181 76s-74 115 -74 191s25 139 74 190s110 77 181 77zM290 54c54 0 99 19 134 56c36 38 54 85 54 142s-18 104 -54 141c-35 38 -80 57 -134 57c-52 0 -95 -19 -130 -57
c-34 -37 -51 -84 -51 -141s17 -104 51 -142c35 -37 78 -56 130 -56z" />
    <glyph glyph-name="h.alt" horiz-adv-x="524" 
d="M131 0h-74v697h74v-278c27 56 82 93 155 93c111 0 181 -75 181 -190v-322h-74v306c0 84 -48 137 -125 137c-80 0 -137 -58 -137 -142v-301z" />
    <glyph glyph-name="i.alt" horiz-adv-x="190" 
d="M130 602c-20 -19 -50 -19 -70 0c-20 20 -20 52 0 71c20 20 50 20 70 0c20 -19 20 -51 0 -71zM132 0h-74v504h74v-504z" />
    <glyph glyph-name="l.alt" horiz-adv-x="190" 
d="M132 0h-74v697h74v-697z" />
    <glyph glyph-name="m.alt" horiz-adv-x="802" 
d="M131 0h-74v504h74v-85c24 56 74 93 142 93c72 0 121 -33 148 -100c31 67 85 100 161 100c103 0 168 -75 168 -190v-322h-74v306c0 84 -42 137 -114 137s-124 -58 -124 -142v-301h-74v306c0 85 -41 137 -112 137c-69 0 -121 -58 -121 -142v-301z" />
    <glyph glyph-name="n.alt" horiz-adv-x="532" 
d="M131 0h-74v504h74v-85c27 56 86 93 162 93c115 0 187 -75 187 -190v-322h-74v306c0 84 -51 137 -132 137c-84 0 -143 -58 -143 -142v-301z" />
    <glyph glyph-name="r.alt" horiz-adv-x="344" 
d="M131 0h-74v363c0 104 58 156 174 156c24 0 46 -2 67 -7v-70c-19 5 -41 8 -68 8c-31 0 -47 -3 -68 -15s-31 -39 -31 -83v-352z" />
    <glyph glyph-name="t.alt" horiz-adv-x="308" 
d="M168 0h-74v435h-64v69h64v193h74v-193h112v-69h-112v-435z" />
    <glyph glyph-name="u.alt" horiz-adv-x="525" 
d="M51 195v309h74v-302c0 -95 52 -145 137 -145s138 51 138 146v301h74v-302c0 -136 -87 -214 -215 -214c-124 0 -208 75 -208 207z" />
    <glyph glyph-name="y.alt" horiz-adv-x="520" 
d="M135 -193l81 190l-201 507h75l165 -418l174 418h76l-296 -697h-74z" />
    <glyph glyph-name="agrave.alt" horiz-adv-x="599" 
d="M290 519c91 0 150 -39 179 -90v75h74v-504h-74v75c-29 -51 -88 -90 -179 -90c-71 0 -132 25 -181 76s-74 115 -74 191s25 139 74 190s110 77 181 77zM290 54c54 0 99 19 134 56c36 38 54 85 54 142s-18 104 -54 141c-35 38 -80 57 -134 57c-52 0 -95 -19 -130 -57
c-34 -37 -51 -84 -51 -141s17 -104 51 -142c35 -37 78 -56 130 -56zM325 552h-59l-93 145h99z" />
    <glyph glyph-name="aacute.alt" horiz-adv-x="599" 
d="M290 519c91 0 150 -39 179 -90v75h74v-504h-74v75c-29 -51 -88 -90 -179 -90c-71 0 -132 25 -181 76s-74 115 -74 191s25 139 74 190s110 77 181 77zM290 54c54 0 99 19 134 56c36 38 54 85 54 142s-18 104 -54 141c-35 38 -80 57 -134 57c-52 0 -95 -19 -130 -57
c-34 -37 -51 -84 -51 -141s17 -104 51 -142c35 -37 78 -56 130 -56zM320 552h-59l53 145h99z" />
    <glyph glyph-name="acircumflex.alt" horiz-adv-x="599" 
d="M241 576h-91l126 121h62l126 -121h-91l-66 66zM290 519c91 0 150 -39 179 -90v75h74v-504h-74v75c-29 -51 -88 -90 -179 -90c-71 0 -132 25 -181 76s-74 115 -74 191s25 139 74 190s110 77 181 77zM290 54c54 0 99 19 134 56c36 38 54 85 54 142s-18 104 -54 141
c-35 38 -80 57 -134 57c-52 0 -95 -19 -130 -57c-34 -37 -51 -84 -51 -141s17 -104 51 -142c35 -37 78 -56 130 -56z" />
    <glyph glyph-name="atilde.alt" horiz-adv-x="599" 
d="M290 519c91 0 150 -39 179 -90v75h74v-504h-74v75c-29 -51 -88 -90 -179 -90c-71 0 -132 25 -181 76s-74 115 -74 191s25 139 74 190s110 77 181 77zM290 54c54 0 99 19 134 56c36 38 54 85 54 142s-18 104 -54 141c-35 38 -80 57 -134 57c-52 0 -95 -19 -130 -57
c-34 -37 -51 -84 -51 -141s17 -104 51 -142c35 -37 78 -56 130 -56zM202 594l-49 4c7 53 41 92 90 92c18 0 39 -7 63 -20c25 -13 43 -19 54 -19c24 0 39 14 46 41l49 -4c-7 -65 -38 -98 -92 -98c-19 0 -40 6 -65 19c-24 13 -42 20 -53 20c-23 0 -38 -12 -43 -35z" />
    <glyph glyph-name="adieresis.alt" horiz-adv-x="599" 
d="M440 600c-20 -19 -50 -19 -70 0c-20 20 -20 52 0 71c20 20 50 20 70 0c20 -19 20 -51 0 -71zM234 600c-20 -19 -50 -19 -70 0c-20 20 -20 52 0 71c20 20 50 20 70 0c20 -19 20 -51 0 -71zM290 519c91 0 150 -39 179 -90v75h74v-504h-74v75c-29 -51 -88 -90 -179 -90
c-71 0 -132 25 -181 76s-74 115 -74 191s25 139 74 190s110 77 181 77zM290 54c54 0 99 19 134 56c36 38 54 85 54 142s-18 104 -54 141c-35 38 -80 57 -134 57c-52 0 -95 -19 -130 -57c-34 -37 -51 -84 -51 -141s17 -104 51 -142c35 -37 78 -56 130 -56z" />
    <glyph glyph-name="amacron.alt" horiz-adv-x="599" 
d="M290 519c91 0 150 -39 179 -90v75h74v-504h-74v75c-29 -51 -88 -90 -179 -90c-71 0 -132 25 -181 76s-74 115 -74 191s25 139 74 190s110 77 181 77zM290 54c54 0 99 19 134 56c36 38 54 85 54 142s-18 104 -54 141c-35 38 -80 57 -134 57c-52 0 -95 -19 -130 -57
c-34 -37 -51 -84 -51 -141s17 -104 51 -142c35 -37 78 -56 130 -56zM454 601h-294v69h294v-69z" />
    <glyph glyph-name="abreve.alt" horiz-adv-x="599" 
d="M290 519c91 0 150 -39 179 -90v75h74v-504h-74v75c-29 -51 -88 -90 -179 -90c-71 0 -132 25 -181 76s-74 115 -74 191s25 139 74 190s110 77 181 77zM290 54c54 0 99 19 134 56c36 38 54 85 54 142s-18 104 -54 141c-35 38 -80 57 -134 57c-52 0 -95 -19 -130 -57
c-34 -37 -51 -84 -51 -141s17 -104 51 -142c35 -37 78 -56 130 -56zM135 697h69c15 -49 44 -73 87 -73s72 24 87 73h69c-11 -84 -76 -139 -156 -139s-145 55 -156 139z" />
    <glyph glyph-name="aring.alt" horiz-adv-x="599" 
d="M305 556c-85 -5 -132 112 -69 166c56 64 171 15 166 -68c0 -55 -44 -98 -97 -98zM272 621c19 -19 48 -19 65 0c19 19 19 48 0 65c-17 19 -46 19 -65 0c-19 -17 -19 -46 0 -65zM290 519c91 0 150 -39 179 -90v75h74v-504h-74v75c-29 -51 -88 -90 -179 -90
c-71 0 -132 25 -181 76s-74 115 -74 191s25 139 74 190s110 77 181 77zM290 54c54 0 99 19 134 56c36 38 54 85 54 142s-18 104 -54 141c-35 38 -80 57 -134 57c-52 0 -95 -19 -130 -57c-34 -37 -51 -84 -51 -141s17 -104 51 -142c35 -37 78 -56 130 -56z" />
    <glyph glyph-name="aringacute.alt" horiz-adv-x="599" 
d="M327 788h-59l53 145h99zM397 654c0 -55 -44 -98 -97 -98s-98 45 -98 98s45 97 98 97s97 -44 97 -97zM267 621c19 -19 48 -19 65 0c19 19 19 48 0 65c-17 19 -46 19 -65 0c-19 -17 -19 -46 0 -65zM290 519c91 0 150 -39 179 -90v75h74v-504h-74v75
c-29 -51 -88 -90 -179 -90c-71 0 -132 25 -181 76s-74 115 -74 191s25 139 74 190s110 77 181 77zM290 54c54 0 99 19 134 56c36 38 54 85 54 142s-18 104 -54 141c-35 38 -80 57 -134 57c-52 0 -95 -19 -130 -57c-34 -37 -51 -84 -51 -141s17 -104 51 -142
c35 -37 78 -56 130 -56z" />
    <glyph glyph-name="aogonek.alt" horiz-adv-x="599" 
d="M290 519c91 0 150 -39 179 -90v75h74v-500c-55 -35 -82 -68 -82 -99c0 -29 22 -45 50 -45c21 0 40 5 58 15l-13 -59c-19 -9 -38 -14 -57 -14c-55 0 -101 36 -101 89c0 41 24 76 71 106v1v77c-29 -51 -88 -90 -179 -90c-71 0 -132 25 -181 76s-74 115 -74 191
s25 139 74 190s110 77 181 77zM290 54c54 0 99 19 134 56c36 38 54 85 54 142s-18 104 -54 141c-35 38 -80 57 -134 57c-52 0 -95 -19 -130 -57c-34 -37 -51 -84 -51 -141s17 -104 51 -142c35 -37 78 -56 130 -56z" />
    <glyph glyph-name="dcaron.alt" horiz-adv-x="777" 
d="M290 519c91 0 150 -39 179 -90v268h74v-697h-74v75c-29 -51 -88 -90 -179 -90c-71 0 -132 25 -181 76s-74 115 -74 191s25 139 74 190s110 77 181 77zM290 54c54 0 99 19 134 56c36 38 54 85 54 142s-18 104 -54 141c-35 38 -80 57 -134 57c-52 0 -95 -19 -130 -57
c-34 -37 -51 -84 -51 -141s17 -104 51 -142c35 -37 78 -56 130 -56zM637 552h-59l53 145h99z" />
    <glyph glyph-name="dcroat.alt" horiz-adv-x="600" 
d="M290 519c91 0 150 -39 179 -90v146h-198v60h198v62h74v-62h57v-60h-57v-575h-74v75c-29 -51 -88 -90 -179 -90c-71 0 -132 25 -181 76s-74 115 -74 191s25 139 74 190s110 77 181 77zM290 54c54 0 99 19 134 56c36 38 54 85 54 142s-18 104 -54 141
c-35 38 -80 57 -134 57c-52 0 -95 -19 -130 -57c-34 -37 -51 -84 -51 -141s17 -104 51 -142c35 -37 78 -56 130 -56z" />
    <glyph glyph-name="hcircumflex.alt" horiz-adv-x="524" 
d="M28 721h-91l126 121h62l126 -121h-91l-66 66zM131 0h-74v697h74v-278c27 56 82 93 155 93c111 0 181 -75 181 -190v-322h-74v306c0 84 -48 137 -125 137c-80 0 -137 -58 -137 -142v-301z" />
    <glyph glyph-name="hbar.alt" horiz-adv-x="524" 
d="M131 0h-74v573h-57v60h57v64h74v-64h198v-60h-198v-154c27 56 82 93 155 93c111 0 181 -75 181 -190v-322h-74v306c0 85 -46 137 -126 137c-79 0 -136 -58 -136 -142v-301z" />
    <glyph glyph-name="igrave.alt" horiz-adv-x="190" 
d="M132 0h-74v504h74v-504zM131 552h-59l-93 145h99z" />
    <glyph glyph-name="iacute.alt" horiz-adv-x="190" 
d="M132 0h-74v504h74v-504zM119 552h-59l53 145h99z" />
    <glyph glyph-name="icircumflex.alt" horiz-adv-x="190" 
d="M49 576h-86l101 121h62l101 -121h-86l-46 72zM132 0h-74v504h74v-504z" />
    <glyph glyph-name="itilde.alt" horiz-adv-x="190" 
d="M13 596l-48 4c7 53 34 90 78 90c13 0 31 -7 53 -20s36 -19 43 -19c19 0 32 14 37 41l47 -4c-7 -64 -33 -96 -79 -96c-13 0 -31 6 -53 19s-37 20 -44 20c-19 0 -30 -12 -34 -35zM132 0h-74v504h74v-504z" />
    <glyph glyph-name="idieresis.alt" horiz-adv-x="190" 
d="M202 600c-20 -19 -50 -19 -70 0c-20 20 -20 52 0 71c20 20 50 20 70 0c20 -19 20 -51 0 -71zM58 600c-20 -19 -50 -19 -70 0c-20 20 -20 52 0 71c20 20 50 20 70 0c20 -19 20 -51 0 -71zM132 0h-74v504h74v-504z" />
    <glyph glyph-name="imacron.alt" horiz-adv-x="190" 
d="M214 601h-238v69h238v-69zM132 0h-74v504h74v-504z" />
    <glyph glyph-name="ibreve.alt" horiz-adv-x="190" 
d="M-33 697h69c3 -41 22 -67 59 -67s56 26 59 67h69c-3 -81 -53 -133 -128 -133s-125 52 -128 133zM132 0h-74v504h74v-504z" />
    <glyph glyph-name="iogonek.alt" horiz-adv-x="190" 
d="M130 600c-20 -19 -50 -19 -70 0c-20 20 -20 52 0 71c20 20 50 20 70 0c20 -19 20 -51 0 -71zM58 -5v1v508h74v-503c-52 -33 -78 -65 -78 -96c0 -29 22 -45 50 -45c21 0 40 5 58 15l-13 -59c-19 -9 -38 -14 -57 -14c-55 0 -101 36 -101 89c0 39 22 74 67 104z" />
    <glyph glyph-name="dotlessi.alt" horiz-adv-x="190" 
d="M132 0h-74v504h74v-504z" />
    <glyph glyph-name="lacute.alt" horiz-adv-x="190" 
d="M132 0h-74v697h74v-697zM118 722h-59l53 145h99z" />
    <glyph glyph-name="lcaron.alt" horiz-adv-x="304" 
d="M132 0h-74v697h74v-697zM230 552h-59l53 145h99z" />
    <glyph glyph-name="lcommaaccent.alt" horiz-adv-x="190" 
d="M132 0h-74v697h74v-697zM3 -193l53 145h99l-93 -145h-59z" />
    <glyph glyph-name="ldot.alt" horiz-adv-x="314" 
d="M256 332c-20 -19 -50 -19 -70 0c-20 20 -20 52 0 71c20 20 50 20 70 0c20 -19 20 -51 0 -71zM132 0h-74v697h74v-697z" />
    <glyph glyph-name="lslash.alt" horiz-adv-x="218" 
d="M146 0h-74v310l-68 -40v77l68 40v310h74v-266l85 51v-77l-85 -51v-354z" />
    <glyph glyph-name="nacute.alt" horiz-adv-x="532" 
d="M131 0h-74v504h74v-85c27 56 86 93 162 93c115 0 187 -75 187 -190v-322h-74v306c0 84 -51 137 -132 137c-84 0 -143 -58 -143 -142v-301zM316 552h-59l53 145h99z" />
    <glyph glyph-name="ncaron.alt" horiz-adv-x="532" 
d="M307 576h-62l-126 121h91l66 -66l66 66h91zM131 0h-74v504h74v-85c27 56 86 93 162 93c115 0 187 -75 187 -190v-322h-74v306c0 84 -51 137 -132 137c-84 0 -143 -58 -143 -142v-301z" />
    <glyph glyph-name="ntilde.alt" horiz-adv-x="532" 
d="M177 594l-49 4c7 53 41 92 90 92c18 0 39 -7 63 -20c25 -13 43 -19 54 -19c24 0 39 14 46 41l49 -4c-7 -65 -38 -98 -92 -98c-19 0 -40 6 -65 19c-24 13 -42 20 -53 20c-23 0 -38 -12 -43 -35zM131 0h-74v504h74v-85c27 56 86 93 162 93c115 0 187 -75 187 -190v-322h-74
v306c0 84 -51 137 -132 137c-84 0 -143 -58 -143 -142v-301z" />
    <glyph glyph-name="ncommaaccent.alt" horiz-adv-x="532" 
d="M131 0h-74v504h74v-85c27 56 86 93 162 93c115 0 187 -75 187 -190v-322h-74v306c0 84 -51 137 -132 137c-84 0 -143 -58 -143 -142v-301zM173 -193l53 145h99l-93 -145h-59z" />
    <glyph glyph-name="racute.alt" horiz-adv-x="344" 
d="M131 0h-74v363c0 104 58 156 174 156c24 0 46 -2 67 -7v-70c-19 5 -41 8 -68 8c-31 0 -47 -3 -68 -15s-31 -39 -31 -83v-352zM188 552h-59l53 145h99z" />
    <glyph glyph-name="rcommaaccent.alt" horiz-adv-x="344" 
d="M131 0h-74v363c0 104 58 156 174 156c24 0 46 -2 67 -7v-70c-19 5 -41 8 -68 8c-31 0 -47 -3 -68 -15s-31 -39 -31 -83v-352zM4 -193l53 145h99l-93 -145h-59z" />
    <glyph glyph-name="rcaron.alt" horiz-adv-x="344" 
d="M222 576h-62l-126 121h91l66 -66l66 66h91zM131 0h-74v363c0 104 58 156 174 156c24 0 46 -2 67 -7v-70c-19 5 -41 8 -68 8c-31 0 -47 -3 -68 -15s-31 -39 -31 -83v-352z" />
    <glyph glyph-name="tcaron.alt" horiz-adv-x="330" 
d="M272 552h-59l52 145h92zM168 0h-74v435h-64v69h64v193h74v-193h112v-69h-112v-435z" />
    <glyph glyph-name="tcommaaccent.alt" horiz-adv-x="308" 
d="M168 0h-74v435h-64v69h64v193h74v-193h112v-69h-112v-435zM41 -193l53 145h99l-93 -145h-59z" />
    <glyph glyph-name="tbar.alt" horiz-adv-x="308" 
d="M168 0h-74v294h-64v69h64v72h-64v69h64v193h74v-193h112v-69h-112v-72h112v-69h-112v-294z" />
    <glyph glyph-name="ugrave.alt" horiz-adv-x="525" 
d="M51 195v309h74v-302c0 -95 52 -145 137 -145s138 51 138 146v301h74v-302c0 -136 -87 -214 -215 -214c-124 0 -208 75 -208 207zM296 552h-59l-93 145h99z" />
    <glyph glyph-name="uacute.alt" horiz-adv-x="525" 
d="M51 195v309h74v-302c0 -95 52 -145 137 -145s138 51 138 146v301h74v-302c0 -136 -87 -214 -215 -214c-124 0 -208 75 -208 207zM287 552h-59l53 145h99z" />
    <glyph glyph-name="ucircumflex.alt" horiz-adv-x="525" 
d="M196 576h-91l126 121h62l126 -121h-91l-66 66zM51 195v309h74v-302c0 -95 52 -145 137 -145s138 51 138 146v301h74v-302c0 -136 -87 -214 -215 -214c-124 0 -208 75 -208 207z" />
    <glyph glyph-name="utilde.alt" horiz-adv-x="525" 
d="M161 594l-49 4c7 53 41 92 90 92c18 0 39 -7 63 -20c25 -13 43 -19 54 -19c24 0 39 14 46 41l49 -4c-7 -65 -38 -98 -92 -98c-19 0 -40 6 -65 19c-24 13 -42 20 -53 20c-23 0 -38 -12 -43 -35zM51 195v309h74v-302c0 -95 52 -145 137 -145s138 51 138 146v301h74v-302
c0 -136 -87 -214 -215 -214c-124 0 -208 75 -208 207z" />
    <glyph glyph-name="udieresis.alt" horiz-adv-x="525" 
d="M401 600c-20 -19 -50 -19 -70 0c-20 20 -20 52 0 71c20 20 50 20 70 0c20 -19 20 -51 0 -71zM195 600c-20 -19 -50 -19 -70 0c-20 20 -20 52 0 71c20 20 50 20 70 0c20 -19 20 -51 0 -71zM51 195v309h74v-302c0 -95 52 -145 137 -145s138 51 138 146v301h74v-302
c0 -136 -87 -214 -215 -214c-124 0 -208 75 -208 207z" />
    <glyph glyph-name="umacron.alt" horiz-adv-x="525" 
d="M51 195v309h74v-302c0 -95 52 -145 137 -145s138 51 138 146v301h74v-302c0 -136 -87 -214 -215 -214c-124 0 -208 75 -208 207zM410 601h-294v69h294v-69z" />
    <glyph glyph-name="ubreve.alt" horiz-adv-x="525" 
d="M51 195v309h74v-302c0 -95 52 -145 137 -145s138 51 138 146v301h74v-302c0 -136 -87 -214 -215 -214c-124 0 -208 75 -208 207zM107 697h69c15 -49 44 -73 87 -73s72 24 87 73h69c-11 -84 -76 -139 -156 -139s-145 55 -156 139z" />
    <glyph glyph-name="uring.alt" horiz-adv-x="525" 
d="M263 517c-55 0 -98 43 -98 98c0 53 45 97 98 97s97 -44 97 -97c0 -55 -44 -98 -97 -98zM230 582c19 -19 48 -19 65 0c19 19 19 48 0 65c-17 19 -46 19 -65 0c-19 -17 -19 -46 0 -65zM51 195v309h74v-302c0 -95 52 -145 137 -145s138 51 138 146v301h74v-302
c0 -136 -87 -214 -215 -214c-124 0 -208 75 -208 207z" />
    <glyph glyph-name="uhungarumlaut.alt" horiz-adv-x="525" 
d="M51 195v309h74v-302c0 -95 52 -145 137 -145s138 51 138 146v301h74v-302c0 -136 -87 -214 -215 -214c-124 0 -208 75 -208 207zM362 552h-55l63 145h95zM208 552h-55l63 145h95z" />
    <glyph glyph-name="uogonek.alt" horiz-adv-x="525" 
d="M51 195v309h74v-302c0 -95 52 -145 137 -145s138 51 138 146v301h74v-302c0 -84 -38 -151 -115 -202c-51 -34 -76 -66 -76 -95s22 -45 50 -45c21 0 40 5 58 15l-13 -59c-19 -9 -38 -14 -57 -14c-55 0 -101 36 -101 89c0 36 20 69 59 98c-8 -1 -15 -1 -20 -1
c-124 0 -208 75 -208 207z" />
    <glyph glyph-name="ygrave.alt" horiz-adv-x="516" 
d="M301 552h-59l-93 145h99zM135 -193l81 190l-201 507h75l164 -420l175 420h72l-294 -697h-72z" />
    <glyph glyph-name="yacute.alt" horiz-adv-x="516" 
d="M282 552h-59l53 145h99zM135 -193l81 190l-201 507h75l164 -420l175 420h72l-294 -697h-72z" />
    <glyph glyph-name="ycircumflex.alt" horiz-adv-x="516" 
d="M192 576h-91l126 121h62l126 -121h-91l-66 66zM135 -193l81 190l-201 507h75l164 -420l175 420h72l-294 -697h-72z" />
    <glyph glyph-name="ydieresis.alt" horiz-adv-x="516" 
d="M396 600c-20 -19 -50 -19 -70 0c-20 20 -20 52 0 71c20 20 50 20 70 0c20 -19 20 -51 0 -71zM190 600c-20 -19 -50 -19 -70 0c-20 20 -20 52 0 71c20 20 50 20 70 0c20 -19 20 -51 0 -71zM135 -193l81 190l-201 507h75l164 -420l175 420h72l-294 -697h-72z" />
    <glyph glyph-name="fi.alt" horiz-adv-x="478" 
d="M186 0h-74v435h-81v69h81v42c0 65 16 110 49 137c27 19 68 29 123 29c19 0 36 -1 49 -4v-70c-15 3 -34 5 -57 5c-63 0 -90 -24 -90 -87v-52h234v-504h-74v435h-160v-435z" />
    <glyph glyph-name="fl.alt" horiz-adv-x="503" 
d="M186 0h-74v435h-81v69h81v42c0 65 16 110 49 137c22 19 56 29 103 29c15 0 28 -1 39 -4v-70c-13 3 -28 5 -47 5c-49 0 -70 -24 -70 -87v-52h95v-69h-95v-435zM445 0h-74v697h74v-697z" />
    <glyph glyph-name="ffi.alt" horiz-adv-x="712" 
d="M186 0h-74v435h-81v69h81v42c0 69 19 117 51 138s61 28 101 28c15 0 28 -1 39 -4v-70c-13 3 -28 5 -47 5c-49 0 -70 -24 -70 -87v-52h160v42c0 65 16 110 49 137c27 19 68 29 123 29c19 0 36 -1 49 -4v-70c-15 3 -34 5 -57 5c-63 0 -90 -24 -90 -87v-52h234v-504h-74v435
h-160v-435h-74v435h-160v-435z" />
    <glyph glyph-name="ffl.alt" horiz-adv-x="727" 
d="M186 0h-74v435h-81v69h81v42c0 69 19 117 51 138s61 28 101 28c15 0 28 -1 39 -4v-70c-13 3 -28 5 -47 5c-49 0 -70 -24 -70 -87v-52h160v42c0 69 19 117 51 138s61 28 101 28c15 0 28 -1 39 -4v-70c-13 3 -28 5 -47 5c-49 0 -70 -24 -70 -87v-52h95v-69h-95v-435h-74
v435h-160v-435zM669 0h-74v697h74v-697z" />
    <glyph glyph-name="zero.onum" horiz-adv-x="552" 
d="M41 201c-1 9 -1 27 -1 52s0 42 1 51c7 61 32 112 77 153s97 62 158 62s113 -21 158 -62s70 -92 76 -153c1 -19 2 -36 2 -51c0 -16 -1 -33 -2 -52c-6 -61 -31 -113 -76 -154s-97 -61 -158 -61s-113 20 -158 61s-70 93 -77 154zM116 207c4 -42 21 -77 52 -105
s67 -42 108 -42s77 14 108 42s48 63 52 105c1 17 2 33 2 46s-1 28 -2 45c-4 42 -21 77 -52 105s-67 42 -108 42s-77 -14 -108 -42s-48 -63 -52 -105c-1 -9 -2 -24 -2 -45c0 -22 1 -37 2 -46z" />
    <glyph glyph-name="one.onum" horiz-adv-x="354" 
d="M265 0h-78v404l-112 -80l-43 62l162 118h71v-504z" />
    <glyph glyph-name="two.onum" horiz-adv-x="481" 
d="M456 0h-426v54l275 206c33 25 50 56 50 92c0 53 -46 93 -109 93c-35 0 -64 -12 -88 -37c-24 -24 -36 -53 -36 -87h-74c0 55 19 101 58 140s85 58 140 58c53 0 96 -16 131 -49c35 -32 52 -71 52 -118c0 -61 -25 -111 -75 -148l-180 -132h282v-72z" />
    <glyph glyph-name="three.onum" horiz-adv-x="512" 
d="M15 11l67 31c27 -59 81 -89 162 -89c93 0 155 49 155 125c0 79 -62 129 -162 129c-21 0 -49 -4 -84 -12l-28 50l210 187h-266v72h387v-52l-207 -181c5 1 12 1 21 1c57 0 105 -18 144 -54s59 -83 59 -140c0 -59 -21 -107 -64 -144s-98 -55 -165 -55
c-108 0 -193 49 -229 132z" />
    <glyph glyph-name="four.onum" horiz-adv-x="555" 
d="M407 0h-364v52l223 452h84l-214 -432h271v152h78v-417h-78v193z" />
    <glyph glyph-name="five.onum" horiz-adv-x="520" 
d="M30 12l68 32c29 -60 81 -90 154 -90c41 0 76 14 104 41c29 27 43 61 43 102c0 39 -14 73 -43 100c-28 28 -62 42 -102 42c-50 0 -92 -15 -127 -45l-55 13l54 297h323v-72h-257l-26 -138c27 13 57 19 90 19c66 0 120 -21 161 -64s62 -91 62 -146c0 -67 -21 -121 -64 -162
s-97 -61 -163 -61c-104 0 -182 49 -222 132z" />
    <glyph glyph-name="six.onum" horiz-adv-x="530" 
d="M40 209c-4 32 14 75 25 102c3 8 10 20 20 36l20 34c4 6 13 19 26 40l27 40l159 236h92l-182 -268c12 3 28 5 48 5c57 0 107 -22 150 -67c43 -44 64 -97 64 -158s-22 -114 -67 -158c-44 -44 -97 -66 -158 -66s-114 22 -158 66c-44 45 -66 97 -66 158zM158 315
c-29 -29 -44 -65 -44 -106s15 -77 44 -106s65 -44 106 -44s77 15 106 44c30 29 45 65 45 106s-15 77 -45 106c-29 30 -65 45 -106 45s-77 -15 -106 -45z" />
    <glyph glyph-name="seven.onum" horiz-adv-x="494" 
d="M177 -193h-82l274 625h-338v72h429v-54z" />
    <glyph glyph-name="eight.onum" horiz-adv-x="542" 
d="M38 211c0 95 52 163 124 192c-47 33 -71 76 -71 129c0 49 18 92 53 127s78 53 127 53s92 -18 127 -53s53 -78 53 -127c0 -53 -24 -96 -71 -129c72 -29 124 -97 124 -192c0 -62 -23 -115 -68 -160c-45 -44 -100 -66 -165 -66s-120 22 -165 66c-45 45 -68 98 -68 160z
M198 457c40 -41 106 -41 146 0s40 109 0 150s-106 41 -146 0s-40 -109 0 -150zM161 318c-30 -29 -45 -65 -45 -107s15 -78 45 -108c31 -29 67 -44 110 -44s79 15 109 44c31 30 46 66 46 108s-15 78 -46 107c-30 30 -66 45 -109 45s-79 -15 -110 -45z" />
    <glyph glyph-name="nine.onum" horiz-adv-x="529" 
d="M212 0h-92l182 268c-12 -3 -28 -5 -48 -5c-57 0 -107 22 -150 66c-43 45 -64 98 -64 159s22 114 66 158c45 44 98 66 159 66s113 -22 157 -66c45 -44 67 -97 67 -158c0 -25 -5 -51 -16 -78c-10 -27 -21 -50 -32 -69s-30 -46 -55 -83l-19 -28zM158 381
c30 -29 66 -44 107 -44s77 15 106 44c29 30 44 66 44 107s-15 77 -44 106s-65 44 -106 44s-77 -15 -107 -44c-29 -29 -44 -65 -44 -106s15 -77 44 -107z" />
    <glyph glyph-name="zero.tnum" horiz-adv-x="528" 
d="M43 193c-2 23 -3 75 -3 156s1 132 3 155c6 59 30 109 72 148c43 40 92 60 149 60s106 -20 148 -60c43 -39 67 -89 73 -148c2 -23 3 -74 3 -155s-1 -133 -3 -156c-6 -59 -30 -109 -73 -149c-42 -39 -91 -59 -148 -59s-106 20 -149 59c-42 40 -66 90 -72 149zM117 198
c4 -40 20 -73 48 -100c28 -26 61 -39 99 -39s71 13 99 39c28 27 44 60 48 100c2 20 3 70 3 151c0 80 -1 130 -3 150c-4 40 -20 73 -48 99c-28 27 -61 40 -99 40s-71 -13 -99 -40c-28 -26 -44 -59 -48 -99c-2 -20 -3 -70 -3 -150c0 -81 1 -131 3 -151z" />
    <glyph glyph-name="one.tnum" horiz-adv-x="528" 
d="M381 0h-78v604l-195 -126l-40 64l240 155h73v-697z" />
    <glyph glyph-name="two.tnum" horiz-adv-x="528" 
d="M486 0h-444v51l303 353c31 35 46 72 46 111c0 34 -12 63 -37 87c-24 24 -53 36 -87 36s-63 -12 -87 -37c-24 -24 -36 -53 -36 -87h-77c0 55 20 101 59 140s87 58 142 58c59 0 107 -19 144 -57c38 -37 57 -84 57 -141c0 -55 -24 -110 -72 -165l-239 -277h328v-72z" />
    <glyph glyph-name="three.tnum" horiz-adv-x="528" 
d="M22 130l67 31c24 -64 85 -102 166 -102c47 0 85 15 115 44c30 30 45 69 45 116c0 92 -68 157 -175 157c-29 0 -59 -5 -89 -16l-28 50l221 215h-268v72h386v-52l-215 -206c4 1 12 2 23 2c61 0 113 -21 155 -63c43 -42 64 -95 64 -159c0 -69 -22 -125 -67 -169
c-44 -43 -100 -65 -167 -65c-109 0 -198 54 -233 145z" />
    <glyph glyph-name="four.tnum" horiz-adv-x="528" 
d="M398 155h-364v52l242 490h84l-233 -470h271v152h78v-379h-78v155z" />
    <glyph glyph-name="five.tnum" horiz-adv-x="528" 
d="M20 127l67 32c27 -61 86 -100 153 -100c45 0 82 16 113 47c31 32 46 72 46 119c0 46 -14 85 -43 118s-64 50 -106 50c-45 0 -85 -13 -118 -38l-55 13l51 329h314v-72h-248l-23 -170c23 8 51 12 83 12c68 0 122 -24 163 -72c41 -47 62 -102 62 -164
c0 -73 -23 -133 -68 -178s-102 -68 -171 -68c-95 0 -180 57 -220 142z" />
    <glyph glyph-name="six.tnum" horiz-adv-x="530" 
d="M40 213c0 29 4 54 23 93l21 42c5 9 15 28 32 55s27 44 31 51l143 243h87l-163 -277c14 7 34 11 61 11c57 0 107 -21 150 -64c43 -42 65 -93 65 -153c0 -64 -22 -118 -66 -163c-43 -44 -96 -66 -158 -66s-115 22 -160 66c-44 45 -66 99 -66 162zM266 59c41 0 76 15 105 44
c30 30 45 66 45 107s-15 77 -44 106s-65 44 -106 44c-43 0 -78 -14 -106 -43c-27 -28 -41 -64 -41 -107s14 -79 42 -108c29 -29 64 -43 105 -43z" />
    <glyph glyph-name="seven.tnum" horiz-adv-x="528" 
d="M189 0h-86l308 625h-383v72h476v-54z" />
    <glyph glyph-name="eight.tnum" horiz-adv-x="528" 
d="M38 211c0 95 52 163 124 192c-47 33 -71 76 -71 129c0 49 17 92 51 127s75 53 122 53s88 -18 122 -53s51 -78 51 -127c0 -53 -24 -96 -71 -129c72 -29 124 -97 124 -192c0 -62 -22 -115 -66 -160c-44 -44 -97 -66 -160 -66s-116 22 -160 66c-44 45 -66 98 -66 160z
M196 457c37 -41 99 -41 136 0s37 109 0 150s-99 41 -136 0s-37 -109 0 -150zM159 318c-29 -29 -43 -65 -43 -107s14 -78 43 -108c29 -29 64 -44 105 -44s75 15 104 44c29 30 44 66 44 108s-15 78 -44 107c-29 30 -63 45 -104 45s-76 -15 -105 -45z" />
    <glyph glyph-name="nine.tnum" horiz-adv-x="528" 
d="M240 0h-87l163 277c-14 -7 -34 -11 -61 -11c-57 0 -108 21 -151 63c-43 43 -64 94 -64 154c0 64 22 118 65 162c44 45 97 67 159 67s115 -22 159 -67c45 -44 67 -98 67 -161c0 -29 -4 -54 -23 -93c-9 -19 -16 -34 -21 -43s-15 -27 -32 -54s-27 -44 -31 -51zM264 337
c43 0 78 14 105 42c28 29 42 65 42 108s-14 79 -43 108c-28 29 -63 43 -104 43s-76 -15 -106 -45c-29 -29 -44 -65 -44 -106s15 -76 44 -106c29 -29 65 -44 106 -44z" />
    <glyph glyph-name="four.alt" horiz-adv-x="565" 
d="M368 124h-341v54l363 519h56v-501h85v-72h-85v-124h-78v124zM368 542l-245 -346h245v346z" />
    <glyph glyph-name="four.onum.alt" horiz-adv-x="527" 
d="M330 0h-308v54l330 450h56v-432h78v-72h-78v-193h-78v193zM330 356l-210 -284h210v284z" />
    <glyph glyph-name="four.tnum.alt" horiz-adv-x="528" 
d="M331 124h-311v54l333 519h56v-501h72v-72h-72v-124h-78v124zM331 534l-218 -338h218v338z" />
    <glyph glyph-name="foursuperior.alt" horiz-adv-x="364" 
d="M218 390h-184v38l191 269h50v-253h44v-54h-44v-62h-57v62zM218 593l-107 -149h107v149z" />
    <glyph glyph-name="four.inferior.alt" horiz-adv-x="364" 
d="M218 62h-184v38l191 269h50v-253h44v-54h-44v-62h-57v62zM218 265l-107 -149h107v149z" />
    <glyph glyph-name="onequarter.alt" horiz-adv-x="674" 
d="M152 0h-74l390 697h74zM165 328h-57v316h-48v53h105v-369zM518 62h-184v38l191 269h50v-253h44v-54h-44v-62h-57v62zM518 265l-107 -149h107v149z" />
    <glyph glyph-name="threequarters.alt" horiz-adv-x="772" 
d="M250 0h-74l390 697h74zM174 320c-64 0 -118 35 -138 91l50 19c14 -37 43 -55 88 -55c49 0 84 30 84 73c0 44 -36 76 -88 76c-24 0 -41 -3 -52 -8l-20 26l106 102h-133v53h224v-33l-101 -93c13 0 27 -2 40 -6c47 -17 79 -64 79 -117c0 -75 -59 -128 -139 -128zM616 62
h-184v38l191 269h50v-253h44v-54h-44v-62h-57v62zM616 265l-107 -149h107v149z" />
    <glyph glyph-name="published" horiz-adv-x="812" 
d="M149 91c-71 71 -107 157 -107 257s36 185 107 256s157 107 257 107s186 -36 257 -107s107 -156 107 -256s-36 -186 -107 -257s-157 -107 -257 -107s-186 36 -257 107zM180 575c-63 -63 -94 -138 -94 -227s31 -165 94 -228s138 -95 226 -95s163 32 226 95s94 139 94 228
s-31 164 -94 227s-138 95 -226 95s-163 -32 -226 -95zM359 119h-68v439h143c39 0 71 -13 98 -40s40 -59 40 -98s-13 -72 -40 -99c-27 -26 -59 -39 -98 -39h-75v-163zM359 492v-145h74c41 0 71 30 71 73s-30 72 -71 72h-74z" />
    <glyph glyph-name="colon.case" horiz-adv-x="188" 
d="M129 444c-20 -19 -50 -19 -70 0c-20 20 -20 52 0 71c20 20 50 20 70 0c20 -19 20 -51 0 -71zM129 168c-20 -19 -50 -19 -70 0c-20 20 -20 52 0 71c20 20 50 20 70 0c20 -19 20 -51 0 -71z" />
    <glyph glyph-name="semicolon.case" horiz-adv-x="238" 
d="M159 444c-20 -19 -50 -19 -70 0c-20 20 -20 52 0 71c20 20 50 20 70 0c20 -19 20 -51 0 -71zM61 0h-66l84 223h99z" />
    <glyph glyph-name="bullet.case" horiz-adv-x="262" 
d="M188 289c-32 -31 -82 -31 -115 0c-32 32 -32 86 0 117c33 32 83 32 115 0c33 -31 33 -85 0 -117z" />
    <glyph glyph-name="periodcentered.case" horiz-adv-x="188" 
d="M129 311c-20 -19 -50 -19 -70 0c-20 20 -20 52 0 71c20 20 50 20 70 0c20 -19 20 -51 0 -71z" />
    <glyph glyph-name="guilsinglleft.case" horiz-adv-x="258" 
d="M223 174h-78l-110 175l110 175h78l-110 -175z" />
    <glyph glyph-name="guilsinglright.case" horiz-adv-x="258" 
d="M113 174h-78l110 175l-110 175h78l110 -175z" />
    <glyph glyph-name="guillemotleft.case" horiz-adv-x="414" 
d="M379 174h-78l-110 175l110 175h78l-110 -175zM223 174h-78l-110 175l110 175h78l-110 -175z" />
    <glyph glyph-name="guillemotright.case" horiz-adv-x="414" 
d="M269 174h-78l110 175l-110 175h78l110 -175zM113 174h-78l110 175l-110 175h78l110 -175z" />
    <glyph glyph-name="slash.case" horiz-adv-x="422" 
d="M90 -81h-69l315 859h68z" />
    <glyph glyph-name="backslash.case" horiz-adv-x="422" 
d="M404 -81h-69l-314 859h68z" />
    <glyph glyph-name="hyphen.case" horiz-adv-x="384" 
d="M342 314h-300v69h300v-69z" />
    <glyph glyph-name="endash.case" horiz-adv-x="456" 
d="M415 314h-374v69h374v-69z" />
    <glyph glyph-name="emdash.case" horiz-adv-x="720" 
d="M679 314h-638v69h638v-69z" />
    <glyph glyph-name="parenleft.case" horiz-adv-x="294" 
d="M310 -98l-37 -40c-151 133 -226 293 -226 480s75 347 226 480l37 -40c-126 -124 -189 -271 -189 -440s63 -316 189 -440z" />
    <glyph glyph-name="parenright.case" horiz-adv-x="294" 
d="M21 -138l-37 40c126 124 189 271 189 440s-63 316 -189 440l37 40c151 -133 226 -293 226 -480s-75 -347 -226 -480z" />
    <glyph glyph-name="bracketleft.case" horiz-adv-x="307" 
d="M309 -96h-225v890h225v-72h-147v-746h147v-72z" />
    <glyph glyph-name="bracketright.case" horiz-adv-x="307" 
d="M-2 -96v72h147v746h-147v72h225v-890h-225z" />
    <glyph glyph-name="braceleft.case" horiz-adv-x="318" 
d="M113 33v190c0 43 -13 73 -40 89c-13 8 -30 13 -39 14h-6v48c15 1 30 5 45 14c27 16 40 46 40 89v190c0 75 51 128 120 128h45v-59h-37c-37 0 -54 -32 -54 -69v-179c0 -51 -11 -87 -34 -110c-11 -12 -25 -21 -40 -28c15 -7 28 -16 40 -28c23 -23 34 -59 34 -110v-179
c0 -37 17 -69 54 -69h37v-59h-45c-69 0 -120 53 -120 128z" />
    <glyph glyph-name="braceright.case" horiz-adv-x="318" 
d="M40 -95v59h37c37 0 54 32 54 69v179c0 51 11 87 34 110c11 12 25 21 40 28c-15 7 -29 16 -40 28c-23 23 -34 59 -34 110v179c0 37 -17 69 -54 69h-37v59h45c69 0 120 -53 120 -128v-190c0 -43 13 -73 40 -89c13 -8 30 -13 39 -14h6v-48c-15 -1 -30 -5 -45 -14
c-27 -16 -40 -46 -40 -89v-190c0 -75 -51 -128 -120 -128h-45z" />
    <glyph glyph-name="exclamdown.case" horiz-adv-x="240" 
d="M155 626c-20 -19 -50 -19 -70 0c-20 20 -20 52 0 71c20 20 50 20 70 0c20 -19 20 -51 0 -71zM167 0h-94l16 542h62z" />
    <glyph glyph-name="questiondown.case" horiz-adv-x="396" 
d="M239 626c-20 -19 -50 -19 -70 0c-20 20 -20 52 0 71c20 20 50 20 70 0c20 -19 20 -51 0 -71zM35 129c0 49 6 82 37 115c15 17 28 30 39 39l62 48c43 31 64 60 64 87c0 34 -19 51 -56 51c-27 0 -50 -6 -71 -18v77c20 9 44 13 71 13c81 0 134 -48 134 -123
c0 -49 -30 -95 -89 -138l-50 -36c-9 -7 -20 -17 -33 -30c-24 -25 -30 -47 -30 -82c0 -8 2 -75 92 -75c50 0 97 22 142 65v-88c-41 -33 -88 -49 -142 -49c-63 0 -112 22 -136 53c-24 32 -34 63 -34 91z" />
    <glyph glyph-name="at.case" horiz-adv-x="803" 
d="M38 348c0 62 15 121 45 176c31 55 74 100 130 135c57 35 119 53 188 53c98 0 183 -33 255 -100c73 -67 109 -149 109 -247c0 -136 -57 -211 -152 -211c-53 0 -88 22 -105 67c-29 -35 -66 -53 -110 -53c-48 0 -89 17 -122 50s-50 75 -50 125s17 92 50 125s74 50 122 50
c41 0 75 -15 100 -44v35h68v-229c0 -63 33 -63 47 -63c19 0 31 3 51 19c21 17 33 62 33 129c0 79 -29 146 -87 201s-128 83 -209 83s-151 -30 -209 -89c-57 -59 -86 -129 -86 -212s29 -153 86 -212c58 -59 128 -88 209 -88c48 0 94 13 138 39l32 -60
c-52 -28 -109 -42 -170 -42c-62 0 -121 15 -176 45c-55 31 -100 74 -135 130c-35 57 -52 119 -52 188zM293 343c0 -63 44 -109 105 -109c59 0 105 48 105 109c0 64 -45 110 -105 110c-61 0 -105 -46 -105 -110z" />
    <glyph glyph-name="A.smcp" horiz-adv-x="612" 
d="M113 0h-81l247 558h54l247 -558h-81l-57 128h-272zM306 439l-105 -241h210z" />
    <glyph glyph-name="B.smcp" horiz-adv-x="491" 
d="M275 0h-196v558h180c43 0 79 -14 108 -42c29 -27 44 -62 44 -104c0 -52 -22 -88 -67 -109c71 -16 108 -66 108 -134c0 -49 -17 -89 -50 -121s-76 -48 -127 -48zM156 487v-157h93c49 0 85 34 85 79c0 44 -36 78 -84 78h-94zM156 261v-191h114c61 0 105 42 105 99
c0 52 -44 92 -105 92h-114z" />
    <glyph glyph-name="C.smcp" horiz-adv-x="570" 
d="M330 569c85 0 166 -36 214 -95l-52 -46c-41 47 -95 70 -162 70c-62 0 -113 -21 -154 -63c-41 -41 -61 -94 -61 -157s20 -116 61 -158c41 -41 92 -62 154 -62c68 0 123 25 164 74l53 -47c-48 -60 -130 -97 -217 -97c-81 0 -150 27 -207 82c-56 55 -84 125 -84 208
s28 153 84 208c57 55 126 83 207 83z" />
    <glyph glyph-name="D.smcp" horiz-adv-x="624" 
d="M276 -1h-197v560h196c95 0 170 -26 225 -78c55 -51 82 -119 82 -203c0 -83 -27 -151 -82 -202c-54 -51 -129 -77 -224 -77zM158 486v-415h112c156 0 234 82 234 207c0 128 -78 208 -235 208h-111z" />
    <glyph glyph-name="E.smcp" horiz-adv-x="457" 
d="M409 0h-330v558h324v-71h-247v-158h231v-70h-231v-189h253v-70z" />
    <glyph glyph-name="F.smcp" horiz-adv-x="420" 
d="M156 0h-77v558h298v-71h-221v-162h200v-70h-200v-255z" />
    <glyph glyph-name="G.smcp" horiz-adv-x="600" 
d="M331 569c77 0 154 -30 201 -81l-46 -52c-43 42 -95 63 -155 63c-62 0 -114 -21 -155 -63s-61 -94 -61 -157s20 -116 61 -158s92 -63 155 -63c57 0 105 18 144 53v127h-164v71h239v-224c-58 -65 -131 -97 -219 -97c-81 0 -150 28 -207 83s-85 125 -85 208s28 152 85 207
s126 83 207 83z" />
    <glyph glyph-name="H.smcp" horiz-adv-x="630" 
d="M156 0h-77v558h77v-227h318v227h77v-558h-77v261h-318v-261z" />
    <glyph glyph-name="I.smcp" horiz-adv-x="241" 
d="M159 0h-77v558h77v-558z" />
    <glyph glyph-name="J.smcp" horiz-adv-x="297" 
d="M26 -5v73c13 -6 28 -9 44 -9c55 0 68 37 68 96v403h77v-400c0 -49 -4 -75 -21 -114c-17 -37 -59 -57 -124 -57c-17 0 -31 3 -44 8z" />
    <glyph glyph-name="K.smcp" horiz-adv-x="553" 
d="M156 0h-77v558h77v-276l268 276h98l-235 -244l242 -314h-93l-201 261l-79 -81v-180z" />
    <glyph glyph-name="L.smcp" horiz-adv-x="428" 
d="M394 0h-315v558h77v-488h238v-70z" />
    <glyph glyph-name="M.smcp" horiz-adv-x="742" 
d="M155 0h-76v558h72l220 -349l220 349h72v-558h-76v413l-216 -339l-216 339v-413z" />
    <glyph glyph-name="N.smcp" horiz-adv-x="650" 
d="M156 0h-77v558h68l347 -424v424h77v-558h-63l-352 430v-430z" />
    <glyph glyph-name="O.smcp" horiz-adv-x="661" 
d="M37 278c0 84 28 154 85 209s127 83 209 83s151 -28 208 -83s85 -125 85 -209c0 -83 -29 -153 -86 -208s-126 -83 -207 -83c-82 0 -152 28 -209 83s-85 125 -85 208zM115 278c0 -63 20 -115 61 -157c41 -41 93 -62 155 -62s113 21 153 62c41 42 61 94 61 157
s-20 116 -61 157c-40 41 -91 62 -153 62c-63 0 -114 -21 -155 -62s-61 -94 -61 -157z" />
    <glyph glyph-name="P.smcp" horiz-adv-x="498" 
d="M156 0h-77v558h198c49 0 92 -16 128 -49s54 -74 54 -124c0 -49 -18 -91 -54 -124s-79 -49 -128 -49h-121v-212zM156 487v-204h118c60 0 108 42 108 102s-48 102 -108 102h-118z" />
    <glyph glyph-name="Q.smcp" horiz-adv-x="662" 
d="M623 278c0 -79 -26 -146 -78 -201l59 -72l-54 -44l-59 72c-47 -30 -101 -45 -160 -45c-81 0 -150 27 -207 82s-85 125 -85 208s28 153 85 208s126 83 207 83s150 -28 207 -83s85 -125 85 -208zM331 58c42 0 80 10 114 31l-84 102l54 44l83 -101c33 41 49 89 49 144
c0 63 -20 116 -61 157c-41 42 -92 63 -155 63s-115 -21 -156 -63c-41 -41 -61 -94 -61 -157s20 -116 61 -158c41 -41 93 -62 156 -62z" />
    <glyph glyph-name="R.smcp" horiz-adv-x="526" 
d="M156 0h-77v558h208c50 0 92 -16 127 -49s53 -73 53 -121c0 -73 -46 -135 -111 -162l142 -226h-88l-131 213h-4h-119v-213zM156 487v-204h123c64 0 111 44 111 105c0 56 -45 99 -106 99h-128z" />
    <glyph glyph-name="S.smcp" horiz-adv-x="469" 
d="M36 123l66 31c29 -63 75 -94 139 -94c110 0 112 73 112 90c0 28 -10 49 -29 64s-52 32 -99 51c-54 22 -94 44 -119 66s-38 54 -38 96c0 41 15 76 46 103s71 41 118 41c75 0 128 -32 161 -97l-66 -33c-18 39 -50 59 -96 59c-49 0 -86 -26 -86 -71c0 -20 11 -38 20 -49
c5 -5 14 -12 27 -19l30 -15l40 -17c61 -26 105 -51 130 -75c25 -23 38 -58 38 -103c0 -93 -70 -161 -190 -161c-93 0 -169 44 -204 133z" />
    <glyph glyph-name="T.smcp" horiz-adv-x="442" 
d="M259 0h-76v487h-157v71h390v-71h-157v-487z" />
    <glyph glyph-name="U.smcp" horiz-adv-x="605" 
d="M75 201v357h76v-349c0 -100 56 -151 151 -151s151 51 151 152v348h77v-348c0 -71 -22 -125 -65 -164c-43 -38 -98 -57 -167 -57c-132 0 -223 76 -223 212z" />
    <glyph glyph-name="V.smcp" horiz-adv-x="583" 
d="M318 0h-55l-232 558h82l178 -427l178 427h83z" />
    <glyph glyph-name="W.smcp" horiz-adv-x="812" 
d="M264 0h-50l-190 558h79l138 -401l138 401h54l138 -401l138 401h79l-190 -558h-50l-142 414z" />
    <glyph glyph-name="X.smcp" horiz-adv-x="565" 
d="M118 0h-82l197 289l-184 269h85l149 -218l147 218h83l-183 -270l199 -288h-87l-163 235z" />
    <glyph glyph-name="Y.smcp" horiz-adv-x="543" 
d="M311 0h-77v225l-209 333h85l164 -258l161 258h83l-207 -333v-225z" />
    <glyph glyph-name="Z.smcp" horiz-adv-x="553" 
d="M515 0h-460v48l348 439h-314v71h418v-52l-344 -436h352v-70z" />
    <glyph glyph-name="Agrave.smcp" horiz-adv-x="612" 
d="M370 596h-57l-82 116h97zM113 0h-81l247 558h54l247 -558h-81l-57 128h-272zM306 439l-105 -241h210z" />
    <glyph glyph-name="Aacute.smcp" horiz-adv-x="612" 
d="M296 596h-57l42 116h98zM113 0h-81l247 558h54l247 -558h-81l-57 128h-272zM306 439l-105 -241h210z" />
    <glyph glyph-name="Acircumflex.smcp" horiz-adv-x="612" 
d="M249 615h-91l119 97h56l119 -97h-91l-56 50zM113 0h-81l247 558h54l247 -558h-81l-57 128h-272zM306 439l-105 -241h210z" />
    <glyph glyph-name="Atilde.smcp" horiz-adv-x="612" 
d="M222 602l-47 4c5 48 35 81 80 81c15 0 33 -5 53 -14c21 -9 35 -14 43 -14c19 0 32 10 37 29l48 -4c-7 -57 -34 -85 -82 -85c-16 0 -34 5 -54 14c-20 10 -34 15 -43 15c-18 0 -30 -9 -35 -26zM113 0h-81l247 558h54l247 -558h-81l-57 128h-272zM306 439l-105 -241h210z
" />
    <glyph glyph-name="Adieresis.smcp" horiz-adv-x="612" 
d="M425 602c-19 -19 -47 -19 -67 0c-19 19 -19 49 0 68c20 19 48 19 67 0c20 -19 20 -49 0 -68zM250 602c-19 -19 -47 -19 -67 0c-19 19 -19 49 0 68c20 19 48 19 67 0c20 -19 20 -49 0 -68zM113 0h-81l247 558h54l247 -558h-81l-57 128h-272zM306 439l-105 -241h210z" />
    <glyph glyph-name="Amacron.smcp" horiz-adv-x="612" 
d="M430 615h-250v68h250v-68zM113 0h-81l247 558h54l247 -558h-81l-57 128h-272zM306 439l-105 -241h210z" />
    <glyph glyph-name="Abreve.smcp" horiz-adv-x="612" 
d="M164 724h67c15 -39 39 -59 74 -59s59 20 74 59h68c-9 -73 -70 -123 -142 -123s-132 50 -141 123zM113 0h-81l247 558h54l247 -558h-81l-57 128h-272zM306 439l-105 -241h210z" />
    <glyph glyph-name="Aring.smcp" horiz-adv-x="612" 
d="M113 0h-81l249 524c-37 11 -64 44 -64 83c0 47 40 86 89 86s89 -39 89 -86c0 -40 -26 -73 -65 -84l250 -523h-84l-62 128h-259zM278 581c34 -36 94 20 55 52c-32 36 -94 -20 -55 -52zM304 412l-99 -214h198z" />
    <glyph glyph-name="Aringacute.smcp" horiz-adv-x="612" 
d="M343 738h-58l42 116h98zM113 0h-81l249 524c-37 11 -64 44 -64 83c0 47 40 86 89 86s89 -39 89 -86c0 -40 -26 -73 -65 -84l250 -523h-84l-62 128h-259zM278 581c34 -36 94 20 55 52c-32 36 -94 -20 -55 -52zM304 412l-99 -214h198z" />
    <glyph glyph-name="Aogonek.smcp" horiz-adv-x="612" 
d="M113 0h-81l247 558h54l247 -558c-15 -3 -30 -12 -46 -27c-15 -15 -23 -31 -23 -46c0 -21 18 -33 41 -33c15 0 32 4 49 12l-13 -57c-16 -7 -32 -11 -48 -11c-48 0 -91 29 -91 76c0 29 18 55 53 80l-1 2l-59 132h-272zM306 439l-105 -241h210z" />
    <glyph glyph-name="AE.smcp" horiz-adv-x="758" 
d="M88 0h-97l454 558h259v-71h-202v-158h186v-70h-186v-189h208v-70h-285v132h-229zM425 420l-174 -218h174v218z" />
    <glyph glyph-name="AEacute.smcp" horiz-adv-x="758" 
d="M462 596h-58l43 116h97zM88 0h-97l454 558h259v-71h-202v-158h186v-70h-186v-189h208v-70h-285v132h-229zM425 420l-174 -218h174v218z" />
    <glyph glyph-name="Cacute.smcp" horiz-adv-x="570" 
d="M354 596h-57l39 116h96zM330 569c85 0 166 -36 214 -95l-52 -46c-41 47 -95 70 -162 70c-62 0 -113 -21 -154 -63c-41 -41 -61 -94 -61 -157s20 -116 61 -158c41 -41 92 -62 154 -62c68 0 123 25 164 74l53 -47c-48 -60 -130 -97 -217 -97c-81 0 -150 27 -207 82
c-56 55 -84 125 -84 208s28 153 84 208c57 55 126 83 207 83z" />
    <glyph glyph-name="Ccircumflex.smcp" horiz-adv-x="570" 
d="M276 615h-91l119 97h56l119 -97h-91l-56 50zM330 569c85 0 166 -36 214 -95l-52 -46c-41 47 -95 70 -162 70c-62 0 -113 -21 -154 -63c-41 -41 -61 -94 -61 -157s20 -116 61 -158c41 -41 92 -62 154 -62c68 0 123 25 164 74l53 -47c-48 -60 -130 -97 -217 -97
c-81 0 -150 27 -207 82c-56 55 -84 125 -84 208s28 153 84 208c57 55 126 83 207 83z" />
    <glyph glyph-name="Ccaron.smcp" horiz-adv-x="570" 
d="M359 615h-56l-119 97h91l56 -50l56 50h91zM330 569c85 0 166 -36 214 -95l-52 -46c-41 47 -95 70 -162 70c-62 0 -113 -21 -154 -63c-41 -41 -61 -94 -61 -157s20 -116 61 -158c41 -41 92 -62 154 -62c68 0 123 25 164 74l53 -47c-48 -60 -130 -97 -217 -97
c-81 0 -150 27 -207 82c-56 55 -84 125 -84 208s28 153 84 208c57 55 126 83 207 83z" />
    <glyph glyph-name="Cdotaccent.smcp" horiz-adv-x="570" 
d="M358 621c-19 -19 -47 -19 -67 0c-19 19 -19 49 0 68c20 19 48 19 67 0c20 -19 20 -49 0 -68zM330 569c85 0 166 -36 214 -95l-52 -46c-41 47 -95 70 -162 70c-62 0 -113 -21 -154 -63c-41 -41 -61 -94 -61 -157s20 -116 61 -158c41 -41 92 -62 154 -62
c68 0 123 25 164 74l53 -47c-48 -60 -130 -97 -217 -97c-81 0 -150 27 -207 82c-56 55 -84 125 -84 208s28 153 84 208c57 55 126 83 207 83z" />
    <glyph glyph-name="Ccedilla.smcp" horiz-adv-x="570" 
d="M39 278c0 83 28 153 84 208c57 55 126 83 207 83c85 0 166 -36 214 -95l-52 -46c-41 47 -95 70 -162 70c-62 0 -113 -21 -154 -63c-41 -41 -61 -94 -61 -157s20 -116 61 -158c41 -41 92 -62 154 -62c68 0 123 25 164 74l53 -47c-48 -60 -130 -97 -217 -97
c-10 0 -17 0 -21 1l-10 -21c29 -1 52 -26 52 -62c0 -48 -31 -72 -93 -72c-27 0 -48 6 -63 18l18 38c16 -9 31 -13 44 -13c20 0 36 12 36 29c0 25 -17 31 -58 34l22 55c-64 16 -116 50 -157 101s-61 112 -61 182z" />
    <glyph glyph-name="Dcaron.smcp" horiz-adv-x="625" 
d="M309 615h-56l-119 97h91l56 -50l56 50h91zM276 -1h-197v560h197c95 0 169 -26 224 -78c55 -51 83 -119 83 -203c0 -83 -27 -151 -82 -202s-130 -77 -225 -77zM158 486v-415h113c155 0 233 82 233 207c0 128 -78 208 -234 208h-112z" />
    <glyph glyph-name="Dcroat.smcp" horiz-adv-x="619" 
d="M275 0h-196v251h-57v70h57v237h195c95 0 170 -26 224 -78c55 -51 82 -119 82 -202s-27 -151 -82 -202c-54 -51 -128 -76 -223 -76zM156 251v-181h113c156 0 235 83 235 208c0 128 -79 209 -236 209h-112v-166h123v-70h-123z" />
    <glyph glyph-name="Egrave.smcp" horiz-adv-x="457" 
d="M284 596h-57l-82 116h97zM409 0h-330v558h324v-71h-247v-158h231v-70h-231v-189h253v-70z" />
    <glyph glyph-name="Eacute.smcp" horiz-adv-x="457" 
d="M264 596h-58l42 116h98zM409 0h-330v558h324v-71h-247v-158h231v-70h-231v-189h253v-70z" />
    <glyph glyph-name="Ecircumflex.smcp" horiz-adv-x="457" 
d="M182 615h-91l119 97h56l119 -97h-91l-56 50zM409 0h-330v558h324v-71h-247v-158h231v-70h-231v-189h253v-70z" />
    <glyph glyph-name="Ecaron.smcp" horiz-adv-x="457" 
d="M270 615h-56l-119 97h91l56 -50l56 50h91zM409 0h-330v558h324v-71h-247v-158h231v-70h-231v-189h253v-70z" />
    <glyph glyph-name="Edieresis.smcp" horiz-adv-x="457" 
d="M367 621c-19 -19 -47 -19 -67 0s-20 49 0 68s48 19 67 0c20 -19 20 -49 0 -68zM192 621c-19 -19 -47 -19 -67 0s-20 49 0 68s48 19 67 0c20 -19 20 -49 0 -68zM409 0h-330v558h324v-71h-247v-158h231v-70h-231v-189h253v-70z" />
    <glyph glyph-name="Emacron.smcp" horiz-adv-x="457" 
d="M367 615h-250v68h250v-68zM409 0h-330v558h324v-71h-247v-158h231v-70h-231v-189h253v-70z" />
    <glyph glyph-name="Ebreve.smcp" horiz-adv-x="457" 
d="M98 724h68c15 -39 39 -59 74 -59s59 20 74 59h68c-9 -73 -70 -123 -142 -123s-133 50 -142 123zM409 0h-330v558h324v-71h-247v-158h231v-70h-231v-189h253v-70z" />
    <glyph glyph-name="Edotaccent.smcp" horiz-adv-x="457" 
d="M278 621c-20 -19 -48 -19 -68 0c-19 19 -19 49 0 68c20 19 48 19 68 0s20 -49 0 -68zM409 0h-330v558h324v-71h-247v-158h231v-70h-231v-189h253v-70z" />
    <glyph glyph-name="Eogonek.smcp" horiz-adv-x="457" 
d="M347 0h-268v558h324v-71h-247v-158h231v-70h-231v-189h253v-70c-42 -24 -63 -48 -63 -73c0 -21 18 -33 41 -33c15 0 32 4 49 12l-12 -57c-17 -7 -33 -11 -49 -11c-48 0 -91 29 -91 76c0 33 21 61 63 86z" />
    <glyph glyph-name="Gcircumflex.smcp" horiz-adv-x="599" 
d="M277 615h-91l119 97h56l119 -97h-91l-56 50zM331 569c77 0 154 -30 201 -81l-46 -52c-43 42 -95 63 -155 63c-62 0 -114 -21 -155 -63s-61 -94 -61 -157s20 -116 61 -158s92 -63 155 -63c57 0 105 18 144 53v127h-164v71h239v-224c-58 -65 -131 -97 -219 -97
c-81 0 -150 28 -207 83s-85 125 -85 208s28 152 85 207s126 83 207 83z" />
    <glyph glyph-name="Gbreve.smcp" horiz-adv-x="599" 
d="M191 724h67c15 -39 38 -59 70 -59c33 0 56 20 69 59h68c-9 -73 -68 -123 -137 -123s-128 50 -137 123zM331 569c77 0 154 -30 201 -81l-46 -52c-43 42 -95 63 -155 63c-62 0 -114 -21 -155 -63s-61 -94 -61 -157s20 -116 61 -158s92 -63 155 -63c57 0 105 18 144 53v127
h-164v71h239v-224c-58 -65 -131 -97 -219 -97c-81 0 -150 28 -207 83s-85 125 -85 208s28 152 85 207s126 83 207 83z" />
    <glyph glyph-name="Gdotaccent.smcp" horiz-adv-x="599" 
d="M365 621c-19 -19 -47 -19 -67 0c-19 19 -19 49 0 68c20 19 48 19 67 0s19 -49 0 -68zM331 569c77 0 154 -30 201 -81l-46 -52c-43 42 -95 63 -155 63c-62 0 -114 -21 -155 -63s-61 -94 -61 -157s20 -116 61 -158s92 -63 155 -63c57 0 105 18 144 53v127h-164v71h239v-224
c-58 -65 -131 -97 -219 -97c-81 0 -150 28 -207 83s-85 125 -85 208s28 152 85 207s126 83 207 83z" />
    <glyph glyph-name="Gcommaaccent.smcp" horiz-adv-x="599" 
d="M331 569c77 0 154 -30 201 -81l-46 -52c-43 42 -95 63 -155 63c-62 0 -114 -21 -155 -63s-61 -94 -61 -157s20 -116 61 -158s92 -63 155 -63c57 0 105 18 144 53v127h-164v71h239v-224c-58 -65 -131 -97 -219 -97c-81 0 -150 28 -207 83s-85 125 -85 208s28 152 85 207
s126 83 207 83zM303 -154h-58l39 116h97z" />
    <glyph glyph-name="Hcircumflex.smcp" horiz-adv-x="630" 
d="M258 615h-91l119 97h56l119 -97h-91l-56 50zM156 0h-77v558h77v-227h318v227h77v-558h-77v261h-318v-261z" />
    <glyph glyph-name="Hbar.smcp" horiz-adv-x="630" 
d="M156 0h-77v399h-50v66h50v93h77v-93h318v93h77v-93h50v-66h-50v-399h-77v261h-318v-261zM156 399v-68h318v68h-318z" />
    <glyph glyph-name="Igrave.smcp" horiz-adv-x="241" 
d="M152 596h-57l-82 116h97zM159 0h-77v558h77v-558z" />
    <glyph glyph-name="Iacute.smcp" horiz-adv-x="241" 
d="M144 596h-57l42 116h98zM159 0h-77v558h77v-558z" />
    <glyph glyph-name="Icircumflex.smcp" horiz-adv-x="241" 
d="M65 615h-87l115 97h56l115 -97h-87l-56 50zM159 0h-77v558h77v-558z" />
    <glyph glyph-name="Itilde.smcp" horiz-adv-x="241" 
d="M37 602l-48 4c5 48 35 81 80 81c15 0 33 -5 53 -14c21 -9 35 -14 44 -14c19 0 31 10 37 29l48 -4c-7 -57 -35 -85 -82 -85c-16 0 -34 5 -55 14c-20 10 -34 15 -43 15c-18 0 -29 -9 -34 -26zM159 0h-77v558h77v-558z" />
    <glyph glyph-name="Idieresis.smcp" horiz-adv-x="241" 
d="M230 621c-20 -19 -48 -19 -68 0c-19 19 -19 49 0 68c20 19 48 19 68 0s20 -49 0 -68zM78 621c-19 -19 -47 -19 -67 0c-19 19 -19 49 0 68c20 19 48 19 67 0c20 -19 20 -49 0 -68zM159 0h-77v558h77v-558z" />
    <glyph glyph-name="Imacron.smcp" horiz-adv-x="241" 
d="M246 615h-250v68h250v-68zM159 0h-77v558h77v-558z" />
    <glyph glyph-name="Ibreve.smcp" horiz-adv-x="241" 
d="M-21 724h68c15 -39 39 -59 74 -59s59 20 74 59h67c-9 -73 -69 -123 -141 -123s-133 50 -142 123zM159 0h-77v558h77v-558z" />
    <glyph glyph-name="Idotaccent.smcp" horiz-adv-x="241" 
d="M154 621c-19 -19 -47 -19 -67 0s-20 49 0 68s48 19 67 0c20 -19 20 -49 0 -68zM159 0h-77v558h77v-558z" />
    <glyph glyph-name="Iogonek.smcp" horiz-adv-x="241" 
d="M82 -8v1v565h77v-558c-13 -3 -27 -12 -43 -27c-15 -16 -23 -31 -23 -46c0 -21 17 -33 40 -33c15 0 32 4 49 12l-12 -57c-17 -7 -33 -11 -48 -11c-48 0 -91 29 -91 76c0 30 17 56 51 78z" />
    <glyph glyph-name="IJ.smcp" horiz-adv-x="474" 
d="M94 -3v72c33 -7 70 -11 111 -11c40 0 69 15 82 31c7 8 13 20 16 35c8 32 7 44 7 80v354h77v-344c0 -53 -2 -88 -17 -131c-20 -57 -68 -97 -163 -97c-47 0 -84 4 -113 11zM173 141h-77v417h77v-417z" />
    <glyph glyph-name="Jcircumflex.smcp" horiz-adv-x="297" 
d="M117 615h-87l115 97h56l115 -97h-87l-56 50zM26 -5v73c13 -6 28 -9 44 -9c55 0 68 37 68 96v403h77v-400c0 -49 -4 -75 -21 -114c-17 -37 -59 -57 -124 -57c-17 0 -31 3 -44 8z" />
    <glyph glyph-name="Kcommaaccent.smcp" horiz-adv-x="544" 
d="M156 0h-77v558h77v-276l268 276h98l-235 -244l242 -314h-93l-201 261l-79 -81v-180zM244 -154h-58l43 116h97z" />
    <glyph glyph-name="Lacute.smcp" horiz-adv-x="428" 
d="M154 596h-58l43 116h97zM394 0h-315v558h77v-488h238v-70z" />
    <glyph glyph-name="Lcaron.smcp" horiz-adv-x="428" 
d="M394 0h-315v558h77v-488h238v-70zM271 442h-57l42 116h98z" />
    <glyph glyph-name="Lcommaaccent.smcp" horiz-adv-x="428" 
d="M394 0h-315v558h77v-488h238v-70zM213 -154h-58l42 116h98z" />
    <glyph glyph-name="Ldot.smcp" horiz-adv-x="428" 
d="M394 0h-315v558h77v-488h238v-70zM311 260c-19 -19 -47 -19 -67 0c-19 19 -19 50 0 67c20 19 48 19 67 0c20 -17 20 -48 0 -67z" />
    <glyph glyph-name="Lslash.smcp" horiz-adv-x="427" 
d="M394 0h-315v217l-57 -29v74l57 29v267h77v-225l118 61v-74l-118 -60v-190h238v-70z" />
    <glyph glyph-name="Nacute.smcp" horiz-adv-x="650" 
d="M340 596h-58l43 116h97zM156 0h-77v558h68l347 -424v424h77v-558h-63l-352 430v-430z" />
    <glyph glyph-name="Ncaron.smcp" horiz-adv-x="650" 
d="M353 615h-56l-119 97h91l56 -50l56 50h91zM156 0h-77v558h68l347 -424v424h77v-558h-63l-352 430v-430z" />
    <glyph glyph-name="Ntilde.smcp" horiz-adv-x="650" 
d="M238 602l-47 4c5 48 35 81 80 81c15 0 33 -5 53 -14c21 -9 35 -14 43 -14c19 0 32 10 37 29l48 -4c-7 -57 -34 -85 -82 -85c-16 0 -34 5 -54 14c-20 10 -34 15 -43 15c-18 0 -30 -9 -35 -26zM156 0h-77v558h68l347 -424v424h77v-558h-63l-352 430v-430z" />
    <glyph glyph-name="Ncommaaccent.smcp" horiz-adv-x="650" 
d="M156 0h-77v558h68l347 -424v424h77v-558h-63l-352 430v-430zM309 -154h-57l42 116h97z" />
    <glyph glyph-name="Ograve.smcp" horiz-adv-x="661" 
d="M363 596h-58l-78 116h97zM37 278c0 84 28 154 85 209s127 83 209 83s151 -28 208 -83s85 -125 85 -209c0 -83 -29 -153 -86 -208s-126 -83 -207 -83c-82 0 -152 28 -209 83s-85 125 -85 208zM115 278c0 -63 20 -115 61 -157c41 -41 93 -62 155 -62s113 21 153 62
c41 42 61 94 61 157s-20 116 -61 157c-40 41 -91 62 -153 62c-63 0 -114 -21 -155 -62s-61 -94 -61 -157z" />
    <glyph glyph-name="Oacute.smcp" horiz-adv-x="661" 
d="M347 596h-57l38 116h97zM37 278c0 84 28 154 85 209s127 83 209 83s151 -28 208 -83s85 -125 85 -209c0 -83 -29 -153 -86 -208s-126 -83 -207 -83c-82 0 -152 28 -209 83s-85 125 -85 208zM115 278c0 -63 20 -115 61 -157c41 -41 93 -62 155 -62s113 21 153 62
c41 42 61 94 61 157s-20 116 -61 157c-40 41 -91 62 -153 62c-63 0 -114 -21 -155 -62s-61 -94 -61 -157z" />
    <glyph glyph-name="Ocircumflex.smcp" horiz-adv-x="661" 
d="M270 615h-91l119 97h56l119 -97h-91l-56 50zM37 278c0 84 28 154 85 209s127 83 209 83s151 -28 208 -83s85 -125 85 -209c0 -83 -29 -153 -86 -208s-126 -83 -207 -83c-82 0 -152 28 -209 83s-85 125 -85 208zM115 278c0 -63 20 -115 61 -157c41 -41 93 -62 155 -62
s113 21 153 62c41 42 61 94 61 157s-20 116 -61 157c-40 41 -91 62 -153 62c-63 0 -114 -21 -155 -62s-61 -94 -61 -157z" />
    <glyph glyph-name="Otilde.smcp" horiz-adv-x="661" 
d="M254 602l-47 4c5 48 34 81 77 81c14 0 30 -5 49 -14s33 -14 40 -14c17 0 29 10 34 29l48 -4c-7 -57 -33 -85 -79 -85c-15 0 -32 5 -51 14c-19 10 -32 15 -39 15c-17 0 -28 -9 -32 -26zM37 278c0 84 28 154 85 209s127 83 209 83s151 -28 208 -83s85 -125 85 -209
c0 -83 -29 -153 -86 -208s-126 -83 -207 -83c-82 0 -152 28 -209 83s-85 125 -85 208zM115 278c0 -63 20 -115 61 -157c41 -41 93 -62 155 -62s113 21 153 62c41 42 61 94 61 157s-20 116 -61 157c-40 41 -91 62 -153 62c-63 0 -114 -21 -155 -62s-61 -94 -61 -157z" />
    <glyph glyph-name="Odieresis.smcp" horiz-adv-x="661" 
d="M414 588c-25 0 -48 21 -48 48s23 48 48 48s47 -21 47 -48s-23 -48 -47 -48zM282 602c-19 -19 -47 -19 -67 0c-19 19 -19 49 0 68c20 19 48 19 67 0c20 -19 20 -49 0 -68zM37 278c0 84 28 154 85 209s127 83 209 83s151 -28 208 -83s85 -125 85 -209
c0 -83 -29 -153 -86 -208s-126 -83 -207 -83c-82 0 -152 28 -209 83s-85 125 -85 208zM115 278c0 -63 20 -115 61 -157c41 -41 93 -62 155 -62s113 21 153 62c41 42 61 94 61 157s-20 116 -61 157c-40 41 -91 62 -153 62c-63 0 -114 -21 -155 -62s-61 -94 -61 -157z" />
    <glyph glyph-name="Omacron.smcp" horiz-adv-x="661" 
d="M448 616h-235v68h235v-68zM37 278c0 84 28 154 85 209s127 83 209 83s151 -28 208 -83s85 -125 85 -209c0 -83 -29 -153 -86 -208s-126 -83 -207 -83c-82 0 -152 28 -209 83s-85 125 -85 208zM115 278c0 -63 20 -115 61 -157c41 -41 93 -62 155 -62s113 21 153 62
c41 42 61 94 61 157s-20 116 -61 157c-40 41 -91 62 -153 62c-63 0 -114 -21 -155 -62s-61 -94 -61 -157z" />
    <glyph glyph-name="Obreve.smcp" horiz-adv-x="661" 
d="M188 724h67c15 -39 39 -59 74 -59s59 20 74 59h68c-9 -73 -70 -123 -142 -123s-132 50 -141 123zM37 278c0 84 28 154 85 209s127 83 209 83s151 -28 208 -83s85 -125 85 -209c0 -83 -29 -153 -86 -208s-126 -83 -207 -83c-82 0 -152 28 -209 83s-85 125 -85 208z
M115 278c0 -63 20 -115 61 -157c41 -41 93 -62 155 -62s113 21 153 62c41 42 61 94 61 157s-20 116 -61 157c-40 41 -91 62 -153 62c-63 0 -114 -21 -155 -62s-61 -94 -61 -157z" />
    <glyph glyph-name="Ohungarumlaut.smcp" horiz-adv-x="661" 
d="M418 596h-53l47 116h93zM295 596h-53l46 116h93zM37 278c0 84 28 154 85 209s127 83 209 83s151 -28 208 -83s85 -125 85 -209c0 -83 -29 -153 -86 -208s-126 -83 -207 -83c-82 0 -152 28 -209 83s-85 125 -85 208zM115 278c0 -63 20 -115 61 -157c41 -41 93 -62 155 -62
s113 21 153 62c41 42 61 94 61 157s-20 116 -61 157c-40 41 -91 62 -153 62c-63 0 -114 -21 -155 -62s-61 -94 -61 -157z" />
    <glyph glyph-name="Oslash.smcp" horiz-adv-x="662" 
d="M145 -38l-55 41l43 59c-63 56 -94 128 -94 216c0 83 28 153 85 208s126 83 207 83c53 0 103 -13 151 -40l45 62l56 -42l-46 -62c57 -56 86 -126 86 -209s-28 -153 -85 -208s-126 -82 -207 -82c-51 0 -98 11 -142 34zM176 120l264 352c-33 17 -69 26 -109 26
c-63 0 -115 -21 -156 -63c-41 -41 -61 -94 -61 -157c0 -65 21 -118 62 -158zM493 429l-261 -349c31 -15 64 -22 99 -22c62 0 113 21 154 62c41 42 62 95 62 158c0 58 -18 108 -54 151z" />
    <glyph glyph-name="Oslashacute.smcp" horiz-adv-x="662" 
d="M361 596h-57l39 116h97zM145 -38l-55 41l43 59c-63 56 -94 128 -94 216c0 83 28 153 85 208s126 83 207 83c53 0 103 -13 151 -40l45 62l56 -42l-46 -62c57 -56 86 -126 86 -209s-28 -153 -85 -208s-126 -82 -207 -82c-51 0 -98 11 -142 34zM176 120l264 352
c-33 17 -69 26 -109 26c-63 0 -115 -21 -156 -63c-41 -41 -61 -94 -61 -157c0 -65 21 -118 62 -158zM493 429l-261 -349c31 -15 64 -22 99 -22c62 0 113 21 154 62c41 42 62 95 62 158c0 58 -18 108 -54 151z" />
    <glyph glyph-name="OE.smcp" horiz-adv-x="894" 
d="M341 569c96 0 169 -33 220 -99v88h279v-71h-202v-158h186v-70h-186v-189h208v-70h-285v87c-51 -66 -124 -99 -220 -99c-84 0 -155 27 -213 82s-87 125 -87 208s29 153 87 208s129 83 213 83zM180 435c-43 -41 -64 -94 -64 -157s21 -116 64 -158c43 -41 96 -62 161 -62
s118 21 160 62c43 42 64 95 64 158s-21 116 -64 157c-42 42 -95 63 -160 63s-118 -21 -161 -63z" />
    <glyph glyph-name="Racute.smcp" horiz-adv-x="526" 
d="M267 596h-57l42 116h97zM156 0h-77v558h208c50 0 92 -16 127 -49s53 -73 53 -121c0 -73 -46 -135 -111 -162l142 -226h-88l-131 213h-4h-119v-213zM156 487v-204h123c64 0 111 44 111 105c0 56 -45 99 -106 99h-128z" />
    <glyph glyph-name="Rcaron.smcp" horiz-adv-x="526" 
d="M280 615h-56l-119 97h91l56 -50l56 50h91zM156 0h-77v558h208c50 0 92 -16 127 -49s53 -73 53 -121c0 -73 -46 -135 -111 -162l142 -226h-88l-131 213h-4h-119v-213zM156 487v-204h123c64 0 111 44 111 105c0 56 -45 99 -106 99h-128z" />
    <glyph glyph-name="Rcommaaccent.smcp" horiz-adv-x="526" 
d="M156 0h-77v558h208c50 0 92 -16 127 -49s53 -73 53 -121c0 -73 -46 -135 -111 -162l142 -226h-88l-131 213h-4h-119v-213zM156 487v-204h123c64 0 111 44 111 105c0 56 -45 99 -106 99h-128zM252 -154h-58l42 116h98z" />
    <glyph glyph-name="Sacute.smcp" horiz-adv-x="469" 
d="M266 596h-57l42 116h98zM36 123l66 31c29 -63 75 -94 139 -94c110 0 112 73 112 90c0 28 -10 49 -29 64s-52 32 -99 51c-54 22 -94 44 -119 66s-38 54 -38 96c0 41 15 76 46 103s71 41 118 41c75 0 128 -32 161 -97l-66 -33c-18 39 -50 59 -96 59c-49 0 -86 -26 -86 -71
c0 -20 11 -38 20 -49c5 -5 14 -12 27 -19l30 -15l40 -17c61 -26 105 -51 130 -75c25 -23 38 -58 38 -103c0 -93 -70 -161 -190 -161c-93 0 -169 44 -204 133z" />
    <glyph glyph-name="Scircumflex.smcp" horiz-adv-x="469" 
d="M180 615h-91l119 97h56l119 -97h-91l-56 50zM36 123l66 31c29 -63 75 -94 139 -94c110 0 112 73 112 90c0 28 -10 49 -29 64s-52 32 -99 51c-54 22 -94 44 -119 66s-38 54 -38 96c0 41 15 76 46 103s71 41 118 41c75 0 128 -32 161 -97l-66 -33c-18 39 -50 59 -96 59
c-49 0 -86 -26 -86 -71c0 -20 11 -38 20 -49c5 -5 14 -12 27 -19l30 -15l40 -17c61 -26 105 -51 130 -75c25 -23 38 -58 38 -103c0 -93 -70 -161 -190 -161c-93 0 -169 44 -204 133z" />
    <glyph glyph-name="Scaron.smcp" horiz-adv-x="469" 
d="M264 615h-56l-119 97h91l56 -50l56 50h91zM36 123l66 31c29 -63 75 -94 139 -94c110 0 112 73 112 90c0 28 -10 49 -29 64s-52 32 -99 51c-54 22 -94 44 -119 66s-38 54 -38 96c0 41 15 76 46 103s71 41 118 41c75 0 128 -32 161 -97l-66 -33c-18 39 -50 59 -96 59
c-49 0 -86 -26 -86 -71c0 -20 11 -38 20 -49c5 -5 14 -12 27 -19l30 -15l40 -17c61 -26 105 -51 130 -75c25 -23 38 -58 38 -103c0 -93 -70 -161 -190 -161c-93 0 -169 44 -204 133z" />
    <glyph glyph-name="Scommaaccent.smcp" horiz-adv-x="469" 
d="M36 123l66 31c29 -63 75 -94 139 -94c110 0 112 73 112 90c0 28 -10 49 -29 64s-52 32 -99 51c-54 22 -94 44 -119 66s-38 54 -38 96c0 41 15 76 46 103s71 41 118 41c75 0 128 -32 161 -97l-66 -33c-18 39 -50 59 -96 59c-49 0 -86 -26 -86 -71c0 -20 11 -38 20 -49
c5 -5 14 -12 27 -19l30 -15l40 -17c61 -26 105 -51 130 -75c25 -23 38 -58 38 -103c0 -93 -70 -161 -190 -161c-93 0 -169 44 -204 133zM200 -154h-60l42 116h100z" />
    <glyph glyph-name="Scedilla.smcp" horiz-adv-x="469" 
d="M36 123l66 31c29 -63 75 -94 139 -94c110 0 112 73 112 90c0 28 -10 49 -29 64s-52 32 -99 51c-54 22 -94 44 -119 66s-38 54 -38 96c0 41 15 76 46 103s71 41 118 41c75 0 128 -32 161 -97l-66 -33c-18 39 -50 59 -96 59c-49 0 -86 -26 -86 -71c0 -20 11 -38 20 -49
c5 -5 14 -12 27 -19l30 -15l40 -17c61 -26 105 -51 130 -75c25 -23 38 -58 38 -103c0 -92 -68 -160 -185 -161l-11 -22c31 -1 55 -26 55 -62c0 -48 -32 -72 -96 -72c-26 0 -48 6 -66 18l19 38c17 -9 33 -13 46 -13c23 0 38 12 38 29c0 25 -18 31 -62 34l24 54
c-76 13 -128 56 -156 129z" />
    <glyph glyph-name="germandbls.smcp" horiz-adv-x="948" 
d="M510 123l66 31c29 -63 75 -94 139 -94c110 0 112 73 112 90c0 28 -10 49 -29 64s-52 32 -99 51c-54 22 -94 44 -119 66s-38 54 -38 96c0 41 15 76 46 103s71 41 118 41c75 0 128 -32 161 -97l-66 -33c-18 39 -50 59 -96 59c-49 0 -86 -26 -86 -71c0 -20 11 -38 20 -49
c5 -5 14 -12 27 -19l30 -15l40 -17c61 -26 105 -51 130 -75c25 -23 38 -58 38 -103c0 -93 -70 -161 -190 -161c-93 0 -169 44 -204 133zM36 123l66 31c29 -63 75 -94 139 -94c110 0 112 73 112 90c0 28 -10 49 -29 64s-52 32 -99 51c-54 22 -94 44 -119 66s-38 54 -38 96
c0 41 15 76 46 103s71 41 118 41c75 0 128 -32 161 -97l-66 -33c-18 39 -50 59 -96 59c-49 0 -86 -26 -86 -71c0 -20 11 -38 20 -49c5 -5 14 -12 27 -19l30 -15l40 -17c61 -26 105 -51 130 -75c25 -23 38 -58 38 -103c0 -93 -70 -161 -190 -161c-93 0 -169 44 -204 133z" />
    <glyph glyph-name="Tcaron.smcp" horiz-adv-x="442" 
d="M248 615h-56l-119 97h91l56 -50l56 50h91zM259 0h-76v487h-157v71h390v-71h-157v-487z" />
    <glyph glyph-name="Tcommaaccent.smcp" horiz-adv-x="442" 
d="M259 0h-76v487h-157v71h390v-71h-157v-487zM189 -154h-58l43 116h97z" />
    <glyph glyph-name="Tbar.smcp" horiz-adv-x="442" 
d="M259 0h-76v277h-87v67h87v143h-157v71h390v-71h-157v-143h87v-67h-87v-277z" />
    <glyph glyph-name="Ugrave.smcp" horiz-adv-x="601" 
d="M337 596h-57l-82 116h97zM75 201v357h76v-349c0 -100 56 -151 151 -151s151 51 151 152v348h77v-348c0 -71 -22 -125 -65 -164c-43 -38 -98 -57 -167 -57c-132 0 -223 76 -223 212z" />
    <glyph glyph-name="Uacute.smcp" horiz-adv-x="601" 
d="M328 596h-57l42 116h97zM75 201v357h76v-349c0 -100 56 -151 151 -151s151 51 151 152v348h77v-348c0 -71 -22 -125 -65 -164c-43 -38 -98 -57 -167 -57c-132 0 -223 76 -223 212z" />
    <glyph glyph-name="Ucircumflex.smcp" horiz-adv-x="601" 
d="M247 615h-91l119 97h56l119 -97h-91l-56 50zM75 201v357h76v-349c0 -100 56 -151 151 -151s151 51 151 152v348h77v-348c0 -71 -22 -125 -65 -164c-43 -38 -98 -57 -167 -57c-132 0 -223 76 -223 212z" />
    <glyph glyph-name="Utilde.smcp" horiz-adv-x="601" 
d="M224 602l-47 4c5 48 35 81 80 81c15 0 33 -5 53 -14c21 -9 35 -14 43 -14c19 0 32 10 37 29l48 -4c-7 -57 -34 -85 -82 -85c-16 0 -34 5 -54 14c-20 10 -34 15 -43 15c-18 0 -30 -9 -35 -26zM75 201v357h76v-349c0 -100 56 -151 151 -151s151 51 151 152v348h77v-348
c0 -71 -22 -125 -65 -164c-43 -38 -98 -57 -167 -57c-132 0 -223 76 -223 212z" />
    <glyph glyph-name="Udieresis.smcp" horiz-adv-x="601" 
d="M425 602c-19 -19 -47 -19 -67 0c-19 19 -19 49 0 68c20 19 48 19 67 0c20 -19 20 -49 0 -68zM250 602c-19 -19 -47 -19 -67 0c-19 19 -19 49 0 68c20 19 48 19 67 0c20 -19 20 -49 0 -68zM75 201v357h76v-349c0 -100 56 -151 151 -151s151 51 151 152v348h77v-348
c0 -71 -22 -125 -65 -164c-43 -38 -98 -57 -167 -57c-132 0 -223 76 -223 212z" />
    <glyph glyph-name="Umacron.smcp" horiz-adv-x="601" 
d="M426 615h-250v68h250v-68zM75 201v357h76v-349c0 -100 56 -151 151 -151s151 51 151 152v348h77v-348c0 -71 -22 -125 -65 -164c-43 -38 -98 -57 -167 -57c-132 0 -223 76 -223 212z" />
    <glyph glyph-name="Ubreve.smcp" horiz-adv-x="601" 
d="M160 724h67c15 -39 39 -59 74 -59s59 20 74 59h68c-9 -73 -70 -123 -142 -123s-132 50 -141 123zM75 201v357h76v-349c0 -100 56 -151 151 -151s151 51 151 152v348h77v-348c0 -71 -22 -125 -65 -164c-43 -38 -98 -57 -167 -57c-132 0 -223 76 -223 212z" />
    <glyph glyph-name="Uring.smcp" horiz-adv-x="601" 
d="M213 656c0 47 40 86 89 86s89 -39 89 -86c0 -48 -40 -87 -89 -87s-89 39 -89 87zM274 629c16 -15 40 -15 56 0c16 16 16 38 0 53s-40 15 -56 0c-15 -15 -15 -37 0 -53zM75 201v357h76v-349c0 -100 56 -151 151 -151s151 51 151 152v348h77v-348c0 -71 -22 -125 -65 -164
c-43 -38 -98 -57 -167 -57c-132 0 -223 76 -223 212z" />
    <glyph glyph-name="Uhungarumlaut.smcp" horiz-adv-x="601" 
d="M377 596h-53l47 116h93zM254 596h-53l46 116h93zM75 201v357h76v-349c0 -100 56 -151 151 -151s151 51 151 152v348h77v-348c0 -71 -22 -125 -65 -164c-43 -38 -98 -57 -167 -57c-132 0 -223 76 -223 212z" />
    <glyph glyph-name="Uogonek.smcp" horiz-adv-x="605" 
d="M75 201v357h76v-349c0 -100 56 -151 151 -151s151 51 151 152v348h77v-348c0 -79 -27 -138 -82 -177c-3 -3 -36 -22 -61 -38c-24 -16 -50 -44 -50 -68c0 -21 18 -33 41 -33c15 0 32 4 49 12l-12 -57c-17 -7 -33 -11 -49 -11c-48 0 -90 29 -90 76c0 28 15 53 46 75h-24
c-132 0 -223 76 -223 212z" />
    <glyph glyph-name="Wgrave.smcp" horiz-adv-x="812" 
d="M455 596h-58l-82 116h97zM264 0h-50l-190 558h79l138 -401l138 401h54l138 -401l138 401h79l-190 -558h-50l-142 414z" />
    <glyph glyph-name="Wacute.smcp" horiz-adv-x="812" 
d="M414 596h-58l42 116h98zM264 0h-50l-190 558h79l138 -401l138 401h54l138 -401l138 401h79l-190 -558h-50l-142 414z" />
    <glyph glyph-name="Wcircumflex.smcp" horiz-adv-x="812" 
d="M349 615h-91l119 97h56l119 -97h-91l-56 50zM264 0h-50l-190 558h79l138 -401l138 401h54l138 -401l138 401h79l-190 -558h-50l-142 414z" />
    <glyph glyph-name="Wdieresis.smcp" horiz-adv-x="812" 
d="M526 602c-19 -19 -47 -19 -67 0c-19 19 -19 49 0 68c20 19 48 19 67 0c20 -19 20 -49 0 -68zM351 602c-19 -19 -47 -19 -67 0c-19 19 -19 49 0 68c20 19 48 19 67 0c20 -19 20 -49 0 -68zM264 0h-50l-190 558h79l138 -401l138 401h54l138 -401l138 401h79l-190 -558h-50
l-142 414z" />
    <glyph glyph-name="Ygrave.smcp" horiz-adv-x="544" 
d="M317 596h-58l-82 116h97zM311 0h-77v225l-209 333h85l164 -258l161 258h83l-207 -333v-225z" />
    <glyph glyph-name="Yacute.smcp" horiz-adv-x="544" 
d="M299 596h-58l43 116h97zM311 0h-77v225l-209 333h85l164 -258l161 258h83l-207 -333v-225z" />
    <glyph glyph-name="Ycircumflex.smcp" horiz-adv-x="544" 
d="M215 615h-91l119 97h56l119 -97h-91l-56 50zM311 0h-77v225l-209 333h85l164 -258l161 258h83l-207 -333v-225z" />
    <glyph glyph-name="Ydieresis.smcp" horiz-adv-x="544" 
d="M392 601c-20 -19 -48 -19 -68 0c-19 19 -19 49 0 68c20 19 48 19 68 0s20 -49 0 -68zM217 601c-20 -19 -48 -19 -68 0c-19 19 -19 49 0 68c20 19 48 19 68 0s20 -49 0 -68zM311 0h-77v225l-209 333h85l164 -258l161 258h83l-207 -333v-225z" />
    <glyph glyph-name="Zacute.smcp" horiz-adv-x="553" 
d="M323 596h-58l42 116h98zM515 0h-460v48l348 439h-314v71h418v-52l-344 -436h352v-70z" />
    <glyph glyph-name="Zcaron.smcp" horiz-adv-x="553" 
d="M339 615h-56l-119 97h91l56 -50l56 50h91zM515 0h-460v48l348 439h-314v71h418v-52l-344 -436h352v-70z" />
    <glyph glyph-name="Zdotaccent.smcp" horiz-adv-x="553" 
d="M345 621c-20 -19 -48 -19 -68 0c-19 19 -19 49 0 68c20 19 48 19 68 0s20 -49 0 -68zM515 0h-460v48l348 439h-314v71h418v-52l-344 -436h352v-70z" />
    <glyph glyph-name="Eng.smcp" horiz-adv-x="650" 
d="M156 0h-77v558h67l349 -443v443h76v-543c0 -37 -1 -57 -10 -94c-12 -52 -48 -86 -125 -89c-19 0 -37 2 -53 7v72c10 -6 28 -9 53 -9c39 0 59 33 59 98v1l-339 428v-429z" />
    <glyph glyph-name="Eth.smcp" horiz-adv-x="619" 
d="M275 0h-196v251h-57v70h57v237h195c95 0 170 -26 224 -78c55 -51 82 -119 82 -202s-27 -151 -82 -202c-54 -51 -128 -76 -223 -76zM156 251v-181h113c156 0 235 83 235 208c0 128 -79 209 -236 209h-112v-166h123v-70h-123z" />
    <glyph glyph-name="Thorn.smcp" horiz-adv-x="431" 
d="M156 0h-77v558h77v-117h53c120 0 186 -66 186 -165c0 -97 -62 -162 -179 -162h-60v-114zM156 370v-185h53c73 0 109 31 109 94c0 61 -37 91 -110 91h-52z" />
    <glyph glyph-name="arrowleft.case" horiz-adv-x="647" 
d="M303 167l-50 -50l-232 231l232 231l50 -50l-145 -145h462v-72h-463z" />
    <glyph glyph-name="arrowup.case" horiz-adv-x="647" 
d="M361 70h-76v442l-130 -131l-50 50l218 219l218 -219l-50 -50l-130 131v-442z" />
    <glyph glyph-name="arrowright.case" horiz-adv-x="647" 
d="M489 312h-463v72h462l-145 145l50 50l232 -231l-232 -231l-50 50z" />
    <glyph glyph-name="arrowdown.case" horiz-adv-x="647" 
d="M323 46l-218 219l50 50l130 -131v442h76v-442l130 131l50 -50z" />
    <glyph glyph-name="arrowboth.case" horiz-adv-x="924" 
d="M303 167l-50 -50l-232 231l232 231l50 -50l-145 -145h608l-145 145l50 50l232 -231l-232 -231l-50 50l146 145h-610z" />
    <glyph glyph-name="arrowupdn.case" horiz-adv-x="647" 
d="M323 -34l-218 219l50 50l130 -131v498l-130 -131l-50 50l218 219l218 -219l-50 -50l-130 131v-498l130 131l50 -50z" />
    <glyph glyph-name="arrownorthwest.case" horiz-adv-x="647" 
d="M195 225h-76v328h328v-74h-204l334 -333l-51 -51l-331 331v-201z" />
    <glyph glyph-name="arrownortheast.case" horiz-adv-x="647" 
d="M452 426l-331 -331l-51 51l334 333h-204v74h328v-328h-76v201z" />
    <glyph glyph-name="arrowsoutheast.case" horiz-adv-x="647" 
d="M528 136h-328v74h204l-334 333l51 51l331 -331v201h76v-328z" />
    <glyph glyph-name="arrowsouthwest.case" horiz-adv-x="647" 
d="M447 136h-328v328h76v-201l331 331l51 -51l-334 -333h204v-74z" />
    <glyph glyph-name="triagup.case" horiz-adv-x="539" 
d="M454 229h-369l179 315z" />
    <glyph glyph-name="triagrt.case" horiz-adv-x="539" 
d="M451 361l-315 -190v369z" />
    <glyph glyph-name="triagdn.case" horiz-adv-x="539" 
d="M454 484l-190 -315l-179 315h369z" />
    <glyph glyph-name="triaglf.case" horiz-adv-x="539" 
d="M403 171l-315 190l315 179v-369z" />
    <glyph glyph-name="uni25E2.case" horiz-adv-x="539" 
d="M433 197l-357 88l261 261z" />
    <glyph glyph-name="uni25E3.case" horiz-adv-x="539" 
d="M463 285l-357 -88l96 349z" />
    <glyph glyph-name="uni25E4.case" horiz-adv-x="539" 
d="M463 427l-261 -261l-96 349z" />
    <glyph glyph-name="uni25E5.case" horiz-adv-x="539" 
d="M433 515l-88 -357l-261 261z" />
    <glyph glyph-name="A.swsh11" 
d="M213 0h-84l264 625h-84c-42 0 -77 -7 -105 -21c-58 -29 -87 -77 -87 -144c0 -65 39 -124 98 -151l-29 -66c-87 37 -145 124 -145 217c0 92 47 166 130 209c37 19 83 28 138 28h175l295 -697h-84l-72 172h-338zM454 576l-139 -332h278z" />
    <glyph glyph-name="A.swsh12" 
d="M119 0h-84l295 697h175c55 0 101 -9 138 -28c83 -43 130 -117 130 -209c0 -93 -58 -180 -145 -217l-29 66c59 27 98 86 98 151c0 67 -29 115 -87 144c-28 14 -63 21 -105 21h-84l264 -625h-84l-72 172h-338zM360 576l-139 -332h278z" />
    <glyph glyph-name="A.swsh21" horiz-adv-x="1065" 
d="M45 213c0 67 24 125 72 172c49 48 106 72 173 72c79 0 140 -26 183 -77l-31 -71c-39 51 -90 76 -152 76c-46 0 -86 -17 -119 -51c-33 -33 -49 -74 -49 -121c0 -45 16 -84 48 -117c33 -33 71 -49 116 -49c44 0 82 17 103 33c11 9 23 22 34 39c11 18 20 32 25 43
s13 28 22 50l205 485h60l295 -697h-84l-72 172h-338l-3 -7c-29 -65 -62 -113 -97 -144s-85 -46 -150 -46c-66 0 -123 23 -170 70s-71 103 -71 168zM705 576l-139 -332h278z" />
    <glyph glyph-name="A.swsh22" horiz-adv-x="1065" 
d="M119 0h-84l295 697h60l205 -485c9 -22 17 -39 22 -50s14 -25 25 -43c11 -17 22 -30 33 -39c23 -16 60 -33 104 -33c45 0 83 16 115 49c33 33 49 72 49 117c0 47 -17 88 -50 121c-33 34 -72 51 -118 51c-62 0 -113 -25 -152 -76l-31 71c43 51 104 77 183 77
c67 0 124 -24 172 -72c49 -47 73 -105 73 -172c0 -65 -24 -121 -71 -168s-104 -70 -170 -70c-65 0 -115 15 -150 46s-68 79 -97 144l-3 7h-338zM360 576l-139 -332h278z" />
    <glyph glyph-name="B.swsh11" horiz-adv-x="840" 
d="M579 0h-239v625h-31c-42 0 -77 -7 -105 -21c-58 -29 -87 -77 -87 -144c0 -39 13 -74 38 -105s57 -50 95 -57l-15 -70c-55 10 -102 37 -139 81c-37 45 -55 95 -55 151c0 92 47 166 130 209c37 19 83 28 138 28h244c53 0 97 -17 133 -51c36 -33 54 -76 54 -127
c0 -67 -33 -117 -89 -140c91 -19 140 -84 140 -173c0 -59 -20 -109 -61 -148c-40 -39 -90 -58 -151 -58zM418 336v-264h156c80 0 139 57 139 134c0 37 -13 68 -40 93c-26 25 -59 37 -100 37h-155zM418 625v-219h130c65 0 114 47 114 110s-48 109 -113 109h-131z" />
    <glyph glyph-name="D.swsh11" horiz-adv-x="974" 
d="M565 0h-225v625h-31c-42 0 -77 -7 -105 -21c-58 -29 -87 -77 -87 -144c0 -39 13 -74 38 -105s57 -50 95 -57l-15 -70c-55 10 -102 37 -139 81c-37 45 -55 95 -55 151c0 92 47 166 130 209c37 19 83 28 138 28h255c111 0 199 -32 263 -96c65 -64 97 -148 97 -253
s-32 -189 -96 -253c-64 -63 -152 -95 -263 -95zM418 625v-553h141c188 0 287 108 287 276c0 169 -99 277 -288 277h-140z" />
    <glyph glyph-name="E.swsh11" horiz-adv-x="797" 
d="M741 0h-401v625h-31c-42 0 -77 -7 -105 -21c-58 -29 -87 -77 -87 -144c0 -39 13 -74 38 -105s57 -50 95 -57l-15 -70c-55 10 -102 37 -139 81c-37 45 -55 95 -55 151c0 92 47 166 130 209c37 19 83 28 138 28h425v-72h-316v-221h297v-72h-297v-260h323v-72z" />
    <glyph glyph-name="E.swsh12" horiz-adv-x="833" 
d="M464 0h-372v697h394v-72h-316v-221h297v-72h-297v-260h294c84 0 139 7 165 21c55 24 87 79 87 142c0 41 -13 76 -38 107s-57 50 -95 57l15 70c56 -11 102 -38 139 -82s55 -95 55 -152c0 -92 -53 -176 -141 -211c-35 -16 -98 -24 -187 -24z" />
    <glyph glyph-name="F.swsh11" horiz-adv-x="754" 
d="M418 0h-78v625h-31c-42 0 -77 -7 -105 -21c-58 -29 -87 -77 -87 -144c0 -39 13 -74 38 -105s57 -50 95 -57l-15 -70c-55 10 -102 37 -139 81c-37 45 -55 95 -55 151c0 92 47 166 130 209c37 19 83 28 138 28h395v-72h-286v-225h261v-72h-261v-328z" />
    <glyph glyph-name="G.swsh11" horiz-adv-x="740" 
d="M410 710c95 0 175 -30 241 -91l-49 -54c-53 49 -117 73 -192 73c-82 0 -150 -28 -204 -83s-81 -124 -81 -207s27 -153 81 -208s122 -82 204 -82c74 0 138 23 191 70v180h-213v72h291v-335c0 -80 -4 -136 -11 -169c-31 -100 -112 -157 -225 -157c-117 0 -205 77 -226 190
l73 17c16 -80 73 -135 153 -135c76 0 130 38 150 103c5 25 8 75 8 150v1c-51 -39 -115 -59 -191 -59c-101 0 -187 34 -258 103c-70 69 -105 156 -105 259s35 189 105 258c71 69 157 104 258 104z" />
    <glyph glyph-name="H.swsh11" horiz-adv-x="975" 
d="M418 0h-78v625h-31c-42 0 -77 -7 -105 -21c-58 -29 -87 -77 -87 -144c0 -39 13 -74 38 -105s57 -50 95 -57l-15 -70c-55 10 -102 37 -139 81c-37 45 -55 95 -55 151c0 92 47 166 130 209c37 19 83 28 138 28h109v-291h387v291h78v-697h-78v334h-387v-334z" />
    <glyph glyph-name="H.swsh12" horiz-adv-x="1022" 
d="M170 0h-78v697h78v-291h387v291h78v-625h31c42 0 77 7 105 21c58 29 87 77 87 144c0 39 -13 74 -38 105s-57 50 -95 57l15 70c55 -10 101 -37 138 -82c37 -44 56 -94 56 -150c0 -92 -47 -166 -130 -209c-37 -19 -83 -28 -138 -28h-109v334h-387v-334z" />
    <glyph glyph-name="I.swsh11" horiz-adv-x="514" 
d="M418 0h-78v625h-31c-42 0 -77 -7 -105 -21c-58 -29 -87 -77 -87 -144c0 -39 13 -74 38 -105s57 -50 95 -57l-15 -70c-55 10 -102 37 -139 81c-37 45 -55 95 -55 151c0 92 47 166 130 209c37 19 83 28 138 28h109v-697z" />
    <glyph glyph-name="I.swsh21" horiz-adv-x="622" 
d="M526 0h-78v426c0 38 -1 65 -4 82s-8 35 -17 53c-25 51 -78 83 -142 83c-45 0 -83 -16 -115 -48s-48 -70 -48 -115c0 -44 16 -82 47 -113c32 -31 71 -46 116 -46c20 0 40 4 60 11l25 -66c-31 -11 -59 -17 -85 -17c-67 0 -124 22 -171 67c-46 45 -69 99 -69 164
c0 64 23 119 70 165c47 47 104 70 170 70c69 0 126 -22 172 -67c53 -52 69 -118 69 -213v-436z" />
    <glyph glyph-name="J.swsh11" horiz-adv-x="505" 
d="M134 -10v74c28 -10 57 -15 88 -15c49 0 83 16 98 45c16 31 20 60 20 105v426h-31c-42 0 -77 -7 -105 -21c-58 -29 -87 -77 -87 -144c0 -39 13 -74 38 -105s57 -50 95 -57l-15 -70c-55 10 -102 37 -139 81c-37 45 -55 95 -55 151c0 92 47 166 130 209c37 19 83 28 138 28
h109v-495c0 -52 -2 -84 -17 -128c-20 -60 -69 -95 -174 -98c-37 0 -68 5 -93 14z" />
    <glyph glyph-name="J.swsh12" horiz-adv-x="563" 
d="M14 -5v74c17 -7 34 -10 53 -10c66 4 79 55 78 130v508h109c55 0 101 -9 138 -28c83 -43 130 -117 130 -209c0 -56 -19 -106 -56 -151c-37 -44 -83 -71 -138 -81l-15 70c38 7 70 26 95 57s38 66 38 105c0 67 -29 115 -87 144c-28 14 -63 21 -105 21h-31v-433
c0 -48 -1 -76 -13 -116c-16 -56 -55 -86 -138 -90c-20 0 -39 3 -58 9z" />
    <glyph glyph-name="J.swsh21" horiz-adv-x="593" 
d="M45 201c0 54 18 101 54 142s81 68 136 79l25 -69c-39 -6 -72 -23 -99 -52c-26 -29 -39 -62 -39 -100c0 -43 14 -79 43 -109c29 -29 66 -44 110 -44c61 0 113 33 137 84c11 28 16 73 16 134v359h-262v72h340v-441c0 -99 -21 -170 -62 -213c-43 -45 -99 -67 -169 -67
c-67 0 -122 22 -165 66s-65 97 -65 159z" />
    <glyph glyph-name="K.swsh11" horiz-adv-x="886" 
d="M418 0h-78v625h-31c-42 0 -77 -7 -105 -21c-58 -29 -87 -77 -87 -144c0 -39 13 -74 38 -105s57 -50 95 -57l-15 -70c-55 10 -102 37 -139 81c-37 45 -55 95 -55 151c0 92 47 166 130 209c37 19 83 28 138 28h109v-370l335 370h96l-278 -304l286 -393h-94l-244 336
l-101 -110v-226z" />
    <glyph glyph-name="K.swsh12" horiz-adv-x="953" 
d="M170 0h-78v697h78v-370l335 370h96l-278 -304l159 -219c35 -48 66 -83 93 -104s60 -31 99 -31c43 0 80 16 111 48c31 33 46 72 46 118s-16 85 -47 118s-67 49 -110 49c-33 0 -64 -10 -93 -29l-43 58c41 29 86 43 136 43c65 0 120 -23 165 -70c46 -47 69 -103 69 -169
c0 -65 -23 -121 -68 -168s-100 -70 -166 -70c-64 0 -112 15 -155 52c-21 19 -38 35 -51 50c-12 15 -29 36 -50 65l-147 202l-101 -110v-226z" />
    <glyph glyph-name="L.swsh11" horiz-adv-x="744" 
d="M705 0h-365v625h-31c-42 0 -77 -7 -105 -21c-58 -29 -87 -77 -87 -144c0 -39 13 -74 38 -105s57 -50 95 -57l-15 -70c-55 10 -102 37 -139 81c-37 45 -55 95 -55 151c0 92 47 166 130 209c37 19 83 28 138 28h109v-625h287v-72z" />
    <glyph glyph-name="L.swsh12" horiz-adv-x="618" 
d="M531 0h-439v466c0 77 23 138 70 184c45 44 102 66 171 66c67 0 122 -23 165 -68s65 -99 65 -162c0 -56 -19 -105 -56 -148s-83 -69 -139 -79l-13 71c38 7 69 26 94 55s37 63 37 101c0 44 -15 81 -44 112s-66 46 -109 46c-97 0 -163 -73 -163 -178v-394h361v-72z" />
    <glyph glyph-name="M.swsh11" horiz-adv-x="1107" 
d="M417 0h-77v625h-31c-42 0 -77 -7 -105 -21c-58 -29 -87 -77 -87 -144c0 -39 13 -74 38 -105s57 -50 95 -57l-15 -70c-55 10 -102 37 -139 81c-37 45 -55 95 -55 151c0 92 47 166 130 209c37 19 83 28 138 28h103l266 -442l266 442h71v-697h-77v543l-260 -426l-261 425
v-542z" />
    <glyph glyph-name="M.swsh12" horiz-adv-x="1107" 
d="M169 0h-77v697h72l266 -442l266 442h71v-625h31c42 0 77 7 105 21c58 29 87 77 87 144c0 39 -13 74 -38 105s-57 50 -95 57l15 70c55 -10 101 -37 138 -82c37 -44 56 -94 56 -150c0 -92 -47 -166 -130 -209c-37 -19 -83 -28 -138 -28h-108v543l-260 -426l-261 425v-542z
" />
    <glyph glyph-name="M.swsh21" horiz-adv-x="1156" 
d="M466 0h-77v514c0 85 -34 127 -102 127c-48 0 -88 -16 -119 -48s-46 -72 -46 -119c0 -80 57 -147 133 -163l-20 -69c-57 11 -103 39 -138 83s-52 94 -52 149c0 68 23 125 70 170c48 46 107 69 177 69c60 0 110 -14 150 -42s79 -73 116 -135l169 -281l266 442h71v-697h-77
v543l-260 -426l-234 382c-13 21 -22 34 -27 40v-539z" />
    <glyph glyph-name="M.swsh22" horiz-adv-x="1156" 
d="M169 0h-77v697h71l266 -442l169 281c37 62 76 107 116 135s90 42 150 42c70 0 129 -23 177 -69c47 -45 70 -102 70 -170c0 -55 -18 -105 -53 -149s-80 -72 -137 -83l-20 69c76 16 133 83 133 163c0 47 -16 87 -47 119s-70 48 -118 48c-68 0 -102 -42 -102 -127v-514h-77
v539c-5 -6 -14 -19 -27 -40l-234 -382l-260 426v-543z" />
    <glyph glyph-name="N.swsh11" horiz-adv-x="999" 
d="M418 0h-78v625h-31c-42 0 -77 -7 -105 -21c-58 -29 -87 -77 -87 -144c0 -39 13 -74 38 -105s57 -50 95 -57l-15 -70c-55 10 -102 37 -139 81c-37 45 -55 95 -55 151c0 92 47 166 130 209c37 19 83 28 138 28h99l421 -558v558h78v-697h-63l-426 564v-564z" />
    <glyph glyph-name="N.swsh12" horiz-adv-x="999" 
d="M170 0h-78v697h68l421 -558v558h109c55 0 100 -9 137 -28c84 -43 131 -117 131 -209c0 -56 -19 -106 -56 -151c-37 -44 -83 -71 -138 -81l-15 70c38 7 70 26 95 57s38 66 38 105c0 67 -29 115 -87 144c-28 14 -63 21 -105 21h-31v-625h-63l-426 564v-564z" />
    <glyph glyph-name="N.swsh21" horiz-adv-x="1048" 
d="M467 0h-78v517c0 83 -34 124 -102 124c-45 0 -84 -16 -117 -49c-32 -33 -48 -72 -48 -118c0 -80 57 -147 133 -163l-19 -69c-53 10 -99 37 -136 81c-37 45 -55 95 -55 151c0 69 25 126 74 172c47 45 104 67 173 67c60 0 117 -18 150 -37c17 -9 36 -24 55 -43
s33 -34 42 -45l39 -51l300 -398v558h78v-697h-63l-374 494c-5 5 -13 16 -25 32c-11 16 -20 28 -27 35v-561z" />
    <glyph glyph-name="N.swsh22" horiz-adv-x="1107" 
d="M170 0h-78v697h68l421 -558v312c0 95 16 161 69 213c46 45 103 67 172 67c66 0 122 -23 169 -70c47 -46 71 -101 71 -165c0 -65 -23 -119 -70 -164c-46 -45 -103 -67 -170 -67c-26 0 -54 6 -85 17l25 66c20 -7 40 -11 60 -11c45 0 84 15 115 46c32 31 48 69 48 113
c0 45 -16 84 -48 115c-31 32 -70 48 -115 48c-64 0 -117 -33 -142 -84c-9 -18 -14 -35 -17 -52s-4 -44 -4 -82v-441h-63l-426 564v-564z" />
    </font>
</defs>
</svg>
